{
.appVersion = "3134";
.formatVersion = 3;
DisplayStrings = (
abcdefghijklmnopqrstuvwxyz
);
customParameters = (
{
name = vendorID;
value = ITFO;
},
{
name = panose;
value = (
0,
0,
5,
0,
0,
0,
0,
0,
0,
0
);
},
{
name = unicodeRanges;
value = (
0,
1,
2,
15
);
},
{
name = codePageRanges;
value = (
"1252",
"1250",
"1254",
"1257",
"bit 29"
);
},
{
name = fsType;
value = (
);
},
{
name = glyphOrder;
value = (
.notdef,
NULL,
CR,
space,
dvA,
dvAA,
dvI,
dvII,
dvU,
dvUU,
dvvR,
dvvRR,
dvvL,
dvvLL,
dvE,
dvAI,
dvO,
dvAU,
dvEcandra,
dvAcandra,
dvOcandra,
dvmAA,
dvmI,
dvmII,
dvmU,
dvmUU,
dvmvR,
dvmvRR,
dvmvL,
dvmvLL,
dvmE,
dvmAI,
dvmO,
dvmAU,
dvmEcandra,
dvmOcandra,
dvKA,
dvKHA,
dvGA,
dvGHA,
dvNGA,
dvCA,
dvCHA,
dvJA,
dvJHA,
dvNYA,
dvTTA,
dvTTHA,
dvDDA,
dvDDHA,
dvNNA,
dvTA,
dvTHA,
dvDA,
dvDHA,
dvNA,
dvPA,
dvPHA,
dvBA,
dvBHA,
dvMA,
dvYA,
dvRA,
dvLA,
dvVA,
dvSHA,
dvSSA,
dvSA,
dvHA,
dvLLA,
dvK_SSA,
dvJ_NYA,
dvKxA,
dvKHxA,
dvGxA,
dvJxA,
dvDDxA,
dvDDHxA,
dvPHxA,
dvRxA,
dvK,
dvKH,
dvG,
dvGH,
dvNG,
dvC,
dvCH,
dvJ,
dvJH,
dvNY,
dvTT,
dvTTH,
dvDD,
dvDDH,
dvNN,
dvT,
dvTH,
dvD,
dvDH,
dvN,
dvP,
dvPH,
dvB,
dvBH,
dvM,
dvY,
dvR,
dvL,
dvV,
dvSH,
dvSS,
dvS,
dvH,
dvLL,
dvK_SS,
dvJ_NY,
dvKx,
dvKHx,
dvGx,
dvJx,
dvPHx,
dvAnusvara,
dvCandrabindu,
dvVisarga,
dvAvagraha,
dvVirama,
dvNukta,
dvZero,
dvOne,
dvTwo,
dvThree,
dvFour,
dvFive,
dvSix,
dvSeven,
dvEight,
dvNine,
dvOm,
dvAbbreviationsign,
danda,
doubledanda,
rupee,
indianrupee,
zerowidthnonjoiner,
zerowidthjoiner,
dottedcircle,
dvReph,
dvEyelash,
dvRashtrasign,
dvK_RA,
dvKH_RA,
dvG_RA,
dvGH_RA,
dvNG_RA,
dvC_RA,
dvCH_RA,
dvJ_RA,
dvJH_RA,
dvNY_RA,
dvTT_RA,
dvTTH_RA,
dvDD_RA,
dvDDH_RA,
dvNN_RA,
dvT_RA,
dvTH_RA,
dvD_RA,
dvDH_RA,
dvN_RA,
dvP_RA,
dvPH_RA,
dvB_RA,
dvBH_RA,
dvM_RA,
dvY_RA,
dvL_RA,
dvV_RA,
dvSH_RA,
dvSS_RA,
dvS_RA,
dvH_RA,
dvLL_RA,
dvKx_RA,
dvKHx_RA,
dvGx_RA,
dvJx_RA,
dvPHx_RA,
dvK_R,
dvKH_R,
dvG_R,
dvGH_R,
dvNG_R,
dvC_R,
dvCH_R,
dvJ_R,
dvJH_R,
dvNY_R,
dvTT_R,
dvTTH_R,
dvDD_R,
dvDDH_R,
dvNN_R,
dvT_R,
dvTH_R,
dvD_R,
dvDH_R,
dvN_R,
dvP_R,

glyphs = (
{
glyphname = .notdef;
layers = (
{
layerId = m01;
shapes = (
{
closed = 1;
nodes = (
(0,0,l),
(500,0,l),
(500,700,l),
(0,700,l)
);
},
{
closed = 1;
nodes = (
(250,395,l),
(80,650,l),
(420,650,l)
);
},
{
closed = 1;
nodes = (
(280,350,l),
(450,605,l),
(450,95,l)
);
},
{
closed = 1;
nodes = (
(80,50,l),
(250,305,l),
(420,50,l)
);
},
{
closed = 1;
nodes = (
(50,605,l),
(220,350,l),
(50,95,l)
);
}
);
width = 500;
}
);
note = ".notdef";
},
{
glyphname = dvR;
layers = (
{
layerId = m01;
shapes = (
{
closed = 1;
nodes = (
(354,-290,l),
(440,-290,l),
(316,-91,l),
(232,-91,l)
);
},
{
closed = 1;
nodes = (
(-27,670,l),
(359,670,l),
(359,574,ls),
(359,463,o),
(302,407,o),
(188,407,cs),
(83,407,l),
(83,207,ls),
(83,82,o),
(148,-9,o),
(281,-9,cs),
(401,-9,o),
(473,71,o),
(473,194,cs),
(473,211,l),
(393,211,l),
(393,192,ls),
(393,115,o),
(350,63,o),
(279,63,cs),
(201,63,o),
(165,121,o),
(165,202,cs),
(165,339,l),
(216,339,ls),
(371,339,o),
(442,426,o),
(442,574,cs),
(442,670,l),
(562,670,l),
(562,740,l),
(-27,740,l)
);
}
);
width = 535;
}
);
note = dvR;
},
{
glyphname = dvKx;
layers = (
{
layerId = m01;
shapes = (
{
closed = 1;
nodes = (
(463,0,l),
(543,0,l),
(543,322,ls),
(543,401,o),
(586,487,o),
(693,487,cs),
(775,487,o),
(840,426,o),
(840,330,c),
(925,330,l),
(925,466,o),
(838,559,o),
(716,559,cs),
(627,559,o),
(571,513,o),
(543,453,c),
(543,670,l),
(925,670,l),
(925,740,l),
(-27,740,l),
(-27,670,l),
(463,670,l),
(463,457,l),
(434,515,o),
(376,559,o),
(286,559,cs),
(160,559,o),
(70,470,o),
(70,330,cs),
(70,188,o),
(158,98,o),
(283,98,cs),
(375,98,o),
(434,143,o),
(463,202,c)
);
},
{
closed = 1;
nodes = (
(301,-95,o),
(325,-71,o),
(325,-40,cs),
(325,-8,o),
(301,17,o),
(269,17,cs),
(237,17,o),
(213,-8,o),
(213,-40,cs),
(213,-71,o),
(237,-95,o),
(269,-95,cs)
);
},
{
closed = 1;
nodes = (
(220,168,o),
(154,228,o),
(154,330,cs),
(154,427,o),
(223,487,o),
(309,487,cs),
(417,487,o),
(463,404,o),
(463,328,cs),
(463,255,o),
(416,168,o),
(309,168,cs)
);
}
);
width = 738;
}
);
note = dvKx;
},
{
glyphname = dvGx;
layers = (
{
layerId = m01;
shapes = (
{
closed = 1;
nodes = (
(-27,670,l),
(295,670,l),
(295,397,ls),
(295,348,o),
(279,296,o),
(212,296,cs),
(150,296,o),
(130,346,o),
(130,394,cs),
(130,425,l),
(48,425,l),
(48,395,ls),
(48,295,o),
(103,224,o),
(215,224,cs),
(332,224,o),
(379,304,o),
(379,400,cs),
(379,670,l),
(506,670,l),
(506,740,l),
(-27,740,l)
);
},
{
closed = 1;
nodes = (
(251,28,o),
(275,52,o),
(275,83,cs),
(275,115,o),
(251,140,o),
(219,140,cs),
(187,140,o),
(163,115,o),
(163,83,cs),
(163,52,o),
(187,28,o),
(219,28,cs)
);
}
);
width = 480;
}
);
note = dvGx;
},
{
glyphname = dvJx;
layers = (
{
layerId = m01;
shapes = (
{
closed = 1;
nodes = (
(388,131,o),
(462,214,o),
(462,332,cs),
(462,427,l),
(694,427,l),
(694,499,l),
(381,499,l),
(381,334,ls),
(381,257,o),
(338,204,o),
(268,204,cs),
(200,204,o),
(159,257,o),
(159,334,cs),
(159,499,l),
(75,499,l),
(75,332,ls),
(75,214,o),
(144,131,o),
(267,131,cs)
);
},
{
closed = 1;
nodes = (
(-27,670,l),
(694,670,l),
(694,740,l),
(-27,740,l)
);
},
{
closed = 1;
nodes = (
(303,-60,o),
(327,-36,o),
(327,-5,cs),
(327,27,o),
(303,52,o),
(271,52,cs),
(239,52,o),
(215,27,o),
(215,-5,cs),
(215,-36,o),
(239,-60,o),
(271,-60,cs)
);
}
);
width = 546;
}
);
note = dvJx;
},
{
glyphname = rupee;
layers = (
{
layerId = m01;
shapes = (
{
closed = 1;
nodes = (
(450,414,o),
(406,360,o),
(302,360,cs),
(168,360,l),
(168,625,l),
(302,625,ls),
(406,625,o),
(450,573,o),
(450,492,cs)
);
},
{
closed = 1;
nodes = (
(77,697,l),
(77,0,l),
(168,0,l),
(168,288,l),
(258,288,l),
(442,0,l),
(553,0,l),
(362,292,l),
(491,313,o),
(543,399,o),
(543,492,cs),
(543,606,o),
(466,697,o),
(302,697,cs)
);
},
{
closed = 1;
nodes = (
(612,197,o),
(937,292,o),
(937,150,cs),
(937,100,o),
(898,64,o),
(826,64,cs),
(752,64,o),
(708,106,o),
(703,166,c),
(609,166,l),
(618,54,o),
(703,-9,o),
(826,-9,cs),
(943,-9,o),
(1027,56,o),
(1027,148,cs),
(1027,357,o),
(701,258,o),
(701,399,cs),
(701,448,o),
(740,484,o),
(810,484,cs),
(884,484,o),
(922,442,o),
(927,383,c),
(1020,383,l),
(1013,491,o),
(935,557,o),
(816,557,cs),
(688,557,o),
(612,485,o),
(612,396,cs)
);
}
);
width = 1109;
}
);
note = rupee;
unicode = 8360;
},
{
glyphname = indianrupee;
layers = (
{
layerId = m01;
shapes = (
{
closed = 1;
nodes = (
(51,631,l),
(380,631,l),
(380,541,ls),
(380,535,o),
(380,529,o),
(380,523,c),
(51,523,l),
(51,457,l),
(376,457,l),
(363,352,o),
(306,340,o),
(96,340,c),
(96,199,ls),
(96,69,o),
(164,-10,o),
(298,-10,cs),
(425,-10,o),
(498,57,o),
(499,192,c),
(415,192,l),
(415,112,o),
(382,62,o),
(299,62,cs),
(212,62,o),
(181,118,o),
(181,197,cs),
(181,276,l),
(368,276,o),
(443,321,o),
(461,457,c),
(595,457,l),
(595,523,l),
(466,523,l),
(466,528,o),
(466,534,o),
(466,540,cs),
(466,631,l),
(595,631,l),
(595,698,l),
(51,698,l)
);
}
);
width = 635;
}
);
note = indianrupee;
unicode = 8377;
},
{
glyphname = zerowidthnonjoiner;
layers = (
{
layerId = m01;
shapes = (
{
closed = 1;
nodes = (
(24,-230,l),
(24,811,l),
(-23,811,l),
(-23,-230,l)
);
}
);
width = 0;
}
);
note = zerowidthnonjoiner;
unicode = 8204;
},
{
glyphname = zerowidthjoiner;
layers = (
{
layerId = m01;
shapes = (
{
closed = 1;
nodes = (
(128,593,l),
(32,688,l),
(128,784,l),
(96,816,l),
(0,721,l),
(-95,816,l),
(-128,783,l),
(-33,688,l),
(-126,595,l),
(-93,562,l),
(-24,635,l),
(-24,-230,l),
(23,-230,l),
(23,635,l),
(95,560,l)
);
}
);
width = 0;
}
);
note = zerowidthjoiner;
unicode = 8205;
},
{
glyphname = dottedcircle;
layers = (
{
layerId = m01;
shapes = (
{
closed = 1;
nodes = (
(557,434,o),
(539,451,o),
(514,451,cs),
(489,451,o),
(471,434,o),
(471,409,cs),
(471,384,o),
(489,367,o),
(514,367,cs),
(539,367,o),
(557,384,o),
(557,409,cs)
);
},
{
closed = 1;
nodes = (
(181,148,o),
(163,165,o),
(138,165,cs),
(113,165,o),
(95,148,o),
(95,123,cs),
(95,98,o),
(113,81,o),
(138,81,cs),
(163,81,o),
(181,98,o),
(181,123,cs)
);
},
{
closed = 1;
nodes = (
(279,72,o),
(261,89,o),
(236,89,cs),
(211,89,o),
(193,72,o),
(193,47,cs),
(193,22,o),
(211,5,o),
(236,5,cs),
(261,5,o),
(279,22,o),
(279,47,cs)
);
},
{
closed = 1;
nodes = (
(136,261,o),
(118,278,o),
(93,278,cs),
(68,278,o),
(50,261,o),
(50,236,cs),
(50,211,o),
(68,194,o),
(93,194,cs),
(118,194,o),
(136,211,o),
(136,236,cs)
);
},
{
closed = 1;
nodes = (
(403,58,o),
(385,75,o),
(360,75,cs),
(335,75,o),
(317,58,o),
(317,33,cs),
(317,8,o),
(335,-9,o),
(360,-9,cs),
(385,-9,o),
(403,8,o),
(403,33,cs)
);
},
{
closed = 1;
nodes = (
(151,382,o),
(133,399,o),
(108,399,cs),
(83,399,o),
(65,382,o),
(65,357,cs),
(65,332,o),
(83,315,o),
(108,315,cs),
(133,315,o),
(151,332,o),
(151,357,cs)
);
},
{
closed = 1;
nodes = (
(518,104,o),
(500,121,o),
(475,121,cs),
(450,121,o),
(432,104,o),
(432,79,cs),
(432,54,o),
(450,37,o),
(475,37,cs),
(500,37,o),
(518,54,o),
(518,79,cs)
);
},
{
closed = 1;
nodes = (
(227,481,o),
(209,498,o),
(184,498,cs),
(159,498,o),
(141,481,o),
(141,456,cs),
(141,431,o),
(159,414,o),
(184,414,cs),
(209,414,o),
(227,431,o),
(227,456,cs)
);
},
{
closed = 1;
nodes = (
(591,200,o),
(573,217,o),
(548,217,cs),
(523,217,o),
(505,200,o),
(505,175,cs),
(505,150,o),
(523,133,o),
(548,133,cs),
(573,133,o),
(591,150,o),
(591,175,cs)
);
},
{
closed = 1;
nodes = (
(344,523,o),
(326,540,o),
(301,540,cs),
(276,540,o),
(258,523,o),
(258,498,cs),
(258,473,o),
(276,456,o),
(301,456,cs),
(326,456,o),
(344,473,o),
(344,498,cs)
);
},
{
closed = 1;
nodes = (
(601,320,o),
(583,337,o),
(558,337,cs),
(533,337,o),
(515,320,o),
(515,295,cs),
(515,270,o),
(533,253,o),
(558,253,cs),
(583,253,o),
(601,270,o),
(601,295,cs)
);
},
{
closed = 1;
nodes = (
(465,508,o),
(447,525,o),
(422,525,cs),
(397,525,o),
(379,508,o),
(379,483,cs),
(379,458,o),
(397,441,o),
(422,441,cs),
(447,441,o),
(465,458,o),
(465,483,cs)
);
}
);
width = 651;
}
);
note = dottedcircle;
unicode = 9676;
},
{
glyphname = dvEyelash;
layers = (
{
layerId = m01;
shapes = (
{
closed = 1;
nodes = (
(354,436,l),
(336,431,o),
(313,424,o),
(277,424,cs),
(198,424,o),
(111,457,o),
(110,558,c),
(30,558,l),
(33,412,o),
(153,362,o),
(265,362,cs),
(313,362,o),
(358,373,o),
(384,387,c)
);
},
{
closed = 1;
nodes = (
(-27,670,l),
(366,670,l),
(366,740,l),
(-27,740,l)
);
}
);
width = 294;
}
);
note = dvEyelash;
},
{
glyphname = dvRashtrasign;
layers = (
{
layerId = m01;
shapes = (
{
closed = 1;
nodes = (
(-462,-97,l),
(-375,-97,l),
(-240,50,l),
(-105,-97,l),
(-18,-97,l),
(-184,82,l),
(-296,82,l)
);
}
);
width = 0;
}
);
note = dvRashtrasign;
},
{
glyphname = dvKx_RA;
layers = (
{
layerId = m01;
shapes = (
{
closed = 1;
nodes = (
(510,0,l),
(591,0,l),
(591,322,ls),
(591,400,o),
(634,487,o),
(740,487,cs),
(823,487,o),
(888,426,o),
(888,330,cs),
(888,229,o),
(825,171,o),
(743,171,cs),
(729,171,o),
(713,172,o),
(701,175,c),
(701,109,l),
(719,104,o),
(741,102,o),
(763,102,cs),
(882,102,o),
(972,186,o),
(972,332,cs),
(972,466,o),
(885,559,o),
(763,559,cs),
(675,559,o),
(619,514,o),
(591,456,c),
(591,670,l),
(1068,670,l),
(1068,740,l),
(-27,740,l),
(-27,670,l),
(510,670,l),
(510,458,l),
(481,515,o),
(423,559,o),
(333,559,cs),
(207,559,o),
(117,470,o),
(117,330,cs),
(117,192,o),
(208,104,o),
(330,104,cs),
(332,104,l),
(177,-46,l),
(268,-46,l),
(468,151,l),
(486,166,o),
(500,185,o),
(510,205,c)
);
},
{
closed = 1;
nodes = (
(268,168,o),
(201,228,o),
(201,330,cs),
(201,427,o),
(270,487,o),
(356,487,cs),
(464,487,o),
(510,404,o),
(510,328,cs),
(510,272,o),
(483,208,o),
(421,181,c),
(414,184,l),
(404,175,l),
(390,170,o),
(374,168,o),
(356,168,cs)
);
},
{
closed = 1;
nodes = (
(117,9,o),
(139,32,o),
(139,61,cs),
(139,91,o),
(117,114,o),
(87,114,cs),
(57,114,o),
(34,91,o),
(34,61,cs),
(34,32,o),
(57,9,o),
(87,9,cs)
);
}
);
width = 1042;
}
);
note = dvKx_RA;
},
{
glyphname = dvGx_RA;
layers = (
{
layerId = m01;
shapes = (
{
closed = 1;
nodes = (
(559,0,l),
(640,0,l),
(640,670,l),
(772,670,l),
(772,740,l),
(-27,740,l),
(-27,670,l),
(295,670,l),
(295,449,ls),
(295,401,o),
(279,349,o),
(212,349,cs),
(150,349,o),
(130,399,o),
(130,448,cs),
(130,479,l),
(48,479,l),
(48,448,ls),
(48,349,o),
(103,278,o),
(215,278,cs),
(332,278,o),
(379,357,o),
(379,453,cs),
(379,670,l),
(557,670,l),
(557,337,l),
(193,-20,l),
(289,-20,l),
(559,251,l)
);
},
{
closed = 1;
nodes = (
(128,56,o),
(150,79,o),
(150,108,cs),
(150,138,o),
(128,161,o),
(98,161,cs),
(68,161,o),
(45,138,o),
(45,108,cs),
(45,79,o),
(68,56,o),
(98,56,cs)
);
}
);
width = 745;
}
);
note = dvGx_RA;
},
{
glyphname = dvJx_RA;
layers = (
{
layerId = m01;
shapes = (
{
closed = 1;
nodes = (
(-27,670,l),
(656,670,l),
(656,501,l),
(381,501,l),
(381,404,ls),
(381,326,o),
(338,274,o),
(268,274,cs),
(200,274,o),
(159,326,o),
(159,404,cs),
(159,501,l),
(75,501,l),
(75,402,ls),
(75,284,o),
(144,200,o),
(267,200,cs),
(388,200,o),
(459,284,o),
(459,402,cs),
(459,433,l),
(656,433,l),
(656,327,l),
(303,-34,l),
(396,-34,l),
(657,242,l),
(657,0,l),
(735,0,l),
(735,670,l),
(867,670,l),
(867,740,l),
(-27,740,l)
);
},
{
closed = 1;
nodes = (
(174,-9,o),
(196,14,o),
(196,43,cs),
(196,73,o),
(174,96,o),
(144,96,cs),
(114,96,o),
(91,73,o),
(91,43,cs),
(91,14,o),
(114,-9,o),
(144,-9,cs)
);
}
);
width = 840;
}
);
note = dvJx_RA;
},
{
glyphname = dvKx_R;
layers = (
{
layerId = m01;
shapes = (
{
closed = 1;
nodes = (
(510,0,l),
(591,0,l),
(591,322,ls),
(591,400,o),
(634,487,o),
(740,487,cs),
(823,487,o),
(888,426,o),
(888,330,c),
(972,330,l),
(972,466,o),
(885,559,o),
(763,559,cs),
(675,559,o),
(619,514,o),
(591,456,c),
(591,670,l),
(972,670,l),
(972,740,l),
(-27,740,l),
(-27,670,l),
(510,670,l),
(510,458,l),
(481,515,o),
(423,559,o),
(333,559,cs),
(207,559,o),
(117,470,o),
(117,330,cs),
(117,192,o),
(208,104,o),
(330,104,cs),
(332,104,l),
(177,-46,l),
(268,-46,l),
(468,151,l),
(486,166,o),
(500,185,o),
(510,205,c)
);
},
{
closed = 1;
nodes = (
(268,168,o),
(201,228,o),
(201,330,cs),
(201,427,o),
(270,487,o),
(356,487,cs),
(464,487,o),
(510,404,o),
(510,328,cs),
(510,272,o),
(483,208,o),
(421,181,c),
(414,184,l),
(404,175,l),
(390,170,o),
(374,168,o),
(356,168,cs)
);
},
{
closed = 1;
nodes = (
(117,9,o),
(139,32,o),
(139,61,cs),
(139,91,o),
(117,114,o),
(87,114,cs),
(57,114,o),
(34,91,o),
(34,61,cs),
(34,32,o),
(57,9,o),
(87,9,cs)
);
}
);
width = 785;
}
);
note = dvKx_R;
},
{
glyphname = dvGx_R;
layers = (
{
layerId = m01;
shapes = (
{
closed = 1;
nodes = (
(573,265,l),
(573,353,l),
(193,-20,l),
(289,-20,l)
);
},
{
closed = 1;
nodes = (
(-27,670,l),
(295,670,l),
(295,449,ls),
(295,401,o),
(279,349,o),
(212,349,cs),
(150,349,o),
(130,399,o),
(130,448,cs),
(130,479,l),
(48,479,l),
(48,448,ls),
(48,349,o),
(103,278,o),
(215,278,cs),
(332,278,o),
(379,357,o),
(379,453,cs),
(379,670,l),
(573,670,l),
(573,740,l),
(-27,740,l)
);
},
{
closed = 1;
nodes = (
(128,56,o),
(150,79,o),
(150,108,cs),
(150,138,o),
(128,161,o),
(98,161,cs),
(68,161,o),
(45,138,o),
(45,108,cs),
(45,79,o),
(68,56,o),
(98,56,cs)
);
}
);
width = 480;
}
);
note = dvGx_R;
},
{
glyphname = dvJx_R;
layers = (
{
layerId = m01;
shapes = (
{
closed = 1;
nodes = (
(303,-34,l),
(396,-34,l),
(694,281,l),
(694,366,l)
);
},
{
closed = 1;
nodes = (
(-27,670,l),
(694,670,l),
(694,740,l),
(-27,740,l)
);
},
{
closed = 1;
nodes = (
(388,200,o),
(459,284,o),
(459,402,cs),
(459,430,l),
(694,430,l),
(694,501,l),
(381,501,l),
(381,404,ls),
(381,326,o),
(338,274,o),
(268,274,cs),
(200,274,o),
(159,326,o),
(159,404,cs),
(159,501,l),
(75,501,l),
(75,402,ls),
(75,284,o),
(144,200,o),
(267,200,cs)
);
},
{
closed = 1;
nodes = (
(174,-9,o),
(196,14,o),
(196,43,cs),
(196,73,o),
(174,96,o),
(144,96,cs),
(114,96,o),
(91,73,o),
(91,43,cs),
(91,14,o),
(114,-9,o),
(144,-9,cs)
);
}
);
width = 546;
}
);
note = dvJx_R;
},
{
glyphname = dvKx_KxA;
layers = (
{
layerId = m01;
shapes = (
{
closed = 1;
nodes = (
(301,-95,o),
(325,-71,o),
(325,-40,cs),
(325,-8,o),
(301,17,o),
(269,17,cs),
(237,17,o),
(213,-8,o),
(213,-40,cs),
(213,-71,o),
(237,-95,o),
(269,-95,cs)
);
},
{
closed = 1;
nodes = (
(1059,-95,o),
(1083,-71,o),
(1083,-40,cs),
(1083,-8,o),
(1059,17,o),
(1027,17,cs),
(995,17,o),
(971,-8,o),
(971,-40,cs),
(971,-71,o),
(995,-95,o),
(1027,-95,cs)
);
},
{
closed = 1;
nodes = (
(220,168,o),
(154,228,o),
(154,330,cs),
(154,427,o),
(223,487,o),
(309,487,cs),
(417,487,o),
(463,404,o),
(463,328,cs),
(463,255,o),
(416,168,o),
(309,168,cs)
);
},
{
closed = 1;
nodes = (
(977,168,o),
(911,228,o),
(911,330,cs),
(911,427,o),
(980,487,o),
(1066,487,cs),
(1174,487,o),
(1220,404,o),
(1220,328,cs),
(1220,255,o),
(1173,168,o),
(1066,168,cs)
);
},
{
closed = 1;
nodes = (
(1220,670,l),
(1220,457,l),
(1191,515,o),
(1133,559,o),
(1043,559,cs),
(967,559,o),
(904,527,o),
(866,470,c),
(834,526,o),
(780,559,o),
(710,559,cs),
(622,559,o),
(569,515,o),
(543,458,c),
(543,670,l)
);
},
{
closed = 1;
nodes = (
(1220,0,l),
(1300,0,l),
(1300,322,ls),
(1300,401,o),
(1343,487,o),
(1450,487,cs),
(1532,487,o),
(1597,426,o),
(1597,330,cs),
(1597,229,o),
(1534,171,o),
(1453,171,cs),
(1439,171,o),
(1423,172,o),
(1411,175,c),
(1411,109,l),
(1429,104,o),
(1450,102,o),
(1473,102,cs),
(1592,102,o),
(1682,186,o),
(1682,332,cs),
(1682,466,o),
(1595,559,o),
(1473,559,cs),
(1384,559,o),
(1328,513,o),
(1300,453,c),
(1300,670,l),
(1778,670,l),
(1778,740,l),
(-27,740,l),
(-27,670,l),
(463,670,l),
(463,457,l),
(434,515,o),
(376,559,o),
(286,559,cs),
(160,559,o),
(70,470,o),
(70,330,cs),
(70,188,o),
(158,98,o),
(283,98,cs),
(375,98,o),
(434,143,o),
(463,202,c),
(463,0,l),
(543,0,l),
(543,322,ls),
(543,401,o),
(580,487,o),
(686,487,cs),
(769,487,o),
(827,426,o),
(827,330,cs),
(827,188,o),
(915,98,o),
(1040,98,cs),
(1132,98,o),
(1191,143,o),
(1220,202,c)
);
}
);
width = 1752;
}
);
note = dvKx_KxA;
},
{
glyphname = dvKx_TA;
layers = (
{
layerId = m01;
shapes = (
{
closed = 1;
nodes = (
(619,552,o),
(568,512,o),
(543,457,c),
(543,670,l),
(1237,670,l),
(1237,498,l),
(1087,498,ls),
(998,498,o),
(922,476,o),
(871,428,c),
(847,511,o),
(781,552,o),
(701,552,cs)
);
},
{
closed = 1;
nodes = (
(301,-95,o),
(325,-71,o),
(325,-40,cs),
(325,-8,o),
(301,17,o),
(269,17,cs),
(237,17,o),
(213,-8,o),
(213,-40,cs),
(213,-71,o),
(237,-95,o),
(269,-95,cs)
);
},
{
closed = 1;
nodes = (
(220,168,o),
(154,228,o),
(154,330,cs),
(154,427,o),
(223,487,o),
(309,487,cs),
(417,487,o),
(463,404,o),
(463,328,cs),
(463,255,o),
(416,168,o),
(309,168,cs)
);
},
{
closed = 1;
nodes = (
(543,322,ls),
(543,399,o),
(578,484,o),
(679,484,cs),
(755,484,o),
(816,427,o),
(806,301,c),
(803,285,o),
(802,267,o),
(802,249,cs),
(802,84,o),
(908,2,o),
(1062,2,cs),
(1095,2,l),
(1095,69,l),
(1073,69,ls),
(951,69,o),
(886,135,o),
(886,248,cs),
(886,368,o),
(967,426,o),
(1091,426,cs),
(1237,426,l),
(1237,0,l),
(1321,0,l),
(1321,670,l),
(1453,670,l),
(1453,740,l),
(-27,740,l),
(-27,670,l),
(463,670,l),
(463,457,l),
(434,515,o),
(376,559,o),
(286,559,cs),
(160,559,o),
(70,470,o),
(70,330,cs),
(70,188,o),
(158,98,o),
(283,98,cs),
(375,98,o),
(434,143,o),
(463,202,c),
(463,0,l),
(543,0,l)
);
}
);
width = 1426;
}
);
note = dvKx_TA;
},
{
glyphname = dvKx_PHA;
layers = (
{
layerId = m01;
shapes = (
{
closed = 1;
nodes = (
(543,670,l),
(815,670,l),
(815,527,l),
(786,545,o),
(750,555,o),
(710,555,cs),
(622,555,o),
(569,513,o),
(543,456,c)
);
},
{
closed = 1;
nodes = (
(942,268,o),
(898,335,o),
(898,441,cs),
(898,670,l),
(1178,670,l),
(1178,419,ls),
(1178,338,o),
(1129,268,o),
(1039,268,cs)
);
},
{
closed = 1;
nodes = (
(543,322,ls),
(543,401,o),
(580,487,o),
(686,487,cs),
(749,487,o),
(799,451,o),
(818,392,c),
(832,273,o),
(900,197,o),
(1020,197,cs),
(1094,197,o),
(1147,229,o),
(1178,281,c),
(1178,0,l),
(1261,0,l),
(1261,313,ls),
(1261,398,o),
(1305,487,o),
(1414,487,cs),
(1497,487,o),
(1562,426,o),
(1562,330,cs),
(1562,230,o),
(1500,170,o),
(1418,170,cs),
(1403,170,o),
(1386,172,o),
(1373,175,c),
(1373,110,l),
(1390,105,o),
(1415,102,o),
(1437,102,cs),
(1557,102,o),
(1646,187,o),
(1646,334,cs),
(1646,467,o),
(1559,559,o),
(1438,559,cs),
(1347,559,o),
(1289,514,o),
(1261,454,c),
(1261,670,l),
(1742,670,l),
(1742,740,l),
(-27,740,l),
(-27,670,l),
(463,670,l),
(463,457,l),
(434,515,o),
(376,559,o),
(286,559,cs),
(160,559,o),
(70,470,o),
(70,330,cs),
(70,188,o),
(158,98,o),
(283,98,cs),
(375,98,o),
(434,143,o),
(463,202,c),
(463,0,l),
(543,0,l)
);
},
{
closed = 1;
nodes = (
(301,-95,o),
(325,-71,o),
(325,-40,cs),
(325,-8,o),
(301,17,o),
(269,17,cs),
(237,17,o),
(213,-8,o),
(213,-40,cs),
(213,-71,o),
(237,-95,o),
(269,-95,cs)
);
},
{
closed = 1;
nodes = (
(220,168,o),
(154,228,o),
(154,330,cs),
(154,427,o),
(223,487,o),
(309,487,cs),
(417,487,o),
(463,404,o),
(463,328,cs),
(463,255,o),
(416,168,o),
(309,168,cs)
);
}
);
width = 1716;
}
);
note = dvKx_PHA;
},
{
glyphname = dvKx_PHxA;
layers = (
{
layerId = m01;
shapes = (
{
closed = 1;
nodes = (
(543,670,l),
(816,670,l),
(816,526,l),
(786,545,o),
(750,555,o),
(710,555,cs),
(622,555,o),
(569,513,o),
(543,456,c)
);
},
{
closed = 1;
nodes = (
(301,-95,o),
(325,-71,o),
(325,-40,cs),
(325,-8,o),
(301,17,o),
(269,17,cs),
(237,17,o),
(213,-8,o),
(213,-40,cs),
(213,-71,o),
(237,-95,o),
(269,-95,cs)
);
},
{
closed = 1;
nodes = (
(1023,9,o),
(1047,33,o),
(1047,64,cs),
(1047,96,o),
(1023,121,o),
(991,121,cs),
(959,121,o),
(935,96,o),
(935,64,cs),
(935,33,o),
(959,9,o),
(991,9,cs)
);
},
{
closed = 1;
nodes = (
(220,168,o),
(154,228,o),
(154,330,cs),
(154,427,o),
(223,487,o),
(309,487,cs),
(417,487,o),
(463,404,o),
(463,328,cs),
(463,255,o),
(416,168,o),
(309,168,cs)
);
},
{
closed = 1;
nodes = (
(943,268,o),
(899,335,o),
(899,441,cs),
(899,670,l),
(1179,670,l),
(1179,419,ls),
(1179,338,o),
(1130,268,o),
(1040,268,cs)
);
},
{
closed = 1;
nodes = (
(543,322,ls),
(543,401,o),
(580,487,o),
(686,487,cs),
(751,487,o),
(802,449,o),
(820,386,c),
(835,270,o),
(903,197,o),
(1021,197,cs),
(1095,197,o),
(1148,229,o),
(1179,281,c),
(1179,0,l),
(1262,0,l),
(1262,313,ls),
(1262,398,o),
(1306,487,o),
(1415,487,cs),
(1498,487,o),
(1563,426,o),
(1563,330,cs),
(1563,230,o),
(1501,170,o),
(1419,170,cs),
(1404,170,o),
(1387,172,o),
(1374,175,c),
(1374,110,l),
(1391,105,o),
(1416,102,o),
(1438,102,cs),
(1558,102,o),
(1647,187,o),
(1647,334,cs),
(1647,467,o),
(1560,559,o),
(1439,559,cs),
(1348,559,o),
(1290,514,o),
(1262,454,c),
(1262,670,l),
(1743,670,l),
(1743,740,l),
(-27,740,l),
(-27,670,l),
(463,670,l),
(463,457,l),
(434,515,o),
(376,559,o),
(286,559,cs),
(160,559,o),
(70,470,o),
(70,330,cs),
(70,188,o),
(158,98,o),
(283,98,cs),
(375,98,o),
(434,143,o),
(463,202,c),
(463,0,l),
(543,0,l)
);
}
);
width = 1717;
}
);
note = dvKx_PHxA;
},
{
glyphname = dvKx_BA;
layers = (
{
layerId = m01;
shapes = (
{
closed = 1;
nodes = (
(543,670,l),
(1261,670,l),
(1261,463,l),
(1228,521,o),
(1163,569,o),
(1067,569,cs),
(982,569,o),
(910,532,o),
(867,469,c),
(835,525,o),
(780,559,o),
(710,559,cs),
(622,559,o),
(569,515,o),
(543,458,c)
);
},
{
closed = 1;
nodes = (
(1261,0,l),
(1341,0,l),
(1341,670,l),
(1472,670,l),
(1472,740,l),
(-27,740,l),
(-27,670,l),
(463,670,l),
(463,457,l),
(434,515,o),
(376,559,o),
(286,559,cs),
(160,559,o),
(70,470,o),
(70,330,cs),
(70,188,o),
(158,98,o),
(283,98,cs),
(375,98,o),
(434,143,o),
(463,202,c),
(463,0,l),
(543,0,l),
(543,322,ls),
(543,401,o),
(580,487,o),
(686,487,cs),
(769,487,o),
(827,426,o),
(827,330,cs),
(827,184,o),
(935,91,o),
(1070,91,cs),
(1165,91,o),
(1230,137,o),
(1261,196,c)
);
},
{
closed = 1;
nodes = (
(301,-95,o),
(325,-71,o),
(325,-40,cs),
(325,-8,o),
(301,17,o),
(269,17,cs),
(237,17,o),
(213,-8,o),
(213,-40,cs),
(213,-71,o),
(237,-95,o),
(269,-95,cs)
);
},
{
closed = 1;
nodes = (
(220,168,o),
(154,228,o),
(154,330,cs),
(154,427,o),
(223,487,o),
(309,487,cs),
(417,487,o),
(463,404,o),
(463,328,cs),
(463,255,o),
(416,168,o),
(309,168,cs)
);
},
{
closed = 1;
nodes = (
(1205,512,o),
(1264,419,o),
(1264,332,cs),
(1264,297,o),
(1254,259,o),
(1233,228,c),
(960,468,l),
(992,496,o),
(1036,512,o),
(1083,512,cs)
);
},
{
closed = 1;
nodes = (
(985,153,o),
(901,218,o),
(901,330,cs),
(901,372,o),
(913,409,o),
(933,438,c),
(1208,198,l),
(1179,171,o),
(1138,153,o),
(1085,153,cs)
);
}
);
width = 1446;
}
);
note = dvKx_BA;
},
{
glyphname = dvKx_MA;
layers = (
{
layerId = m01;
shapes = (
{
closed = 1;
nodes = (
(622,555,o),
(569,512,o),
(543,456,c),
(543,670,l),
(1104,670,l),
(1104,454,l),
(1009,454,ls),
(964,454,o),
(923,444,o),
(891,423,c),
(865,505,o),
(801,555,o),
(710,555,cs)
);
},
{
closed = 1;
nodes = (
(301,-95,o),
(325,-71,o),
(325,-40,cs),
(325,-8,o),
(301,17,o),
(269,17,cs),
(237,17,o),
(213,-8,o),
(213,-40,cs),
(213,-71,o),
(237,-95,o),
(269,-95,cs)
);
},
{
closed = 1;
nodes = (
(220,168,o),
(154,228,o),
(154,330,cs),
(154,427,o),
(223,487,o),
(309,487,cs),
(417,487,o),
(463,404,o),
(463,328,cs),
(463,255,o),
(416,168,o),
(309,168,cs)
);
},
{
closed = 1;
nodes = (
(939,172,o),
(894,213,o),
(894,278,cs),
(894,345,o),
(943,385,o),
(1011,385,cs),
(1104,385,l),
(1104,304,ls),
(1104,221,o),
(1065,172,o),
(1000,172,cs)
);
},
{
closed = 1;
nodes = (
(1365,454,l),
(1182,454,l),
(1182,670,l),
(1365,670,l)
);
},
{
closed = 1;
nodes = (
(543,322,ls),
(543,401,o),
(580,487,o),
(686,487,cs),
(765,487,o),
(821,432,o),
(827,343,c),
(820,324,o),
(816,302,o),
(816,278,cs),
(816,172,o),
(889,101,o),
(1000,101,cs),
(1117,101,o),
(1182,175,o),
(1182,308,cs),
(1182,385,l),
(1365,385,l),
(1365,0,l),
(1449,0,l),
(1449,670,l),
(1580,670,l),
(1580,740,l),
(-27,740,l),
(-27,670,l),
(463,670,l),
(463,457,l),
(434,515,o),
(376,559,o),
(286,559,cs),
(160,559,o),
(70,470,o),
(70,330,cs),
(70,188,o),
(158,98,o),
(283,98,cs),
(375,98,o),
(434,143,o),
(463,202,c),
(463,0,l),
(543,0,l)
);
}
);
width = 1549;
}
);
note = dvKx_MA;
},
{
glyphname = dvJx_JxA;
layers = (
{
layerId = m01;
shapes = (
{
closed = 1;
nodes = (
(303,-60,o),
(327,-36,o),
(327,-5,cs),
(327,27,o),
(303,52,o),
(271,52,cs),
(239,52,o),
(215,27,o),
(215,-5,cs),
(215,-36,o),
(239,-60,o),
(271,-60,cs)
);
},
{
closed = 1;
nodes = (
(872,-60,o),
(896,-36,o),
(896,-5,cs),
(896,27,o),
(872,52,o),
(840,52,cs),
(808,52,o),
(784,27,o),
(784,-5,cs),
(784,-36,o),
(808,-60,o),
(840,-60,cs)
);
},
{
closed = 1;
nodes = (
(1304,0,l),
(1304,670,l),
(1436,670,l),
(1436,740,l),
(-27,740,l),
(-27,670,l),
(1221,670,l),
(1221,499,l),
(950,499,l),
(950,334,ls),
(950,257,o),
(907,204,o),
(837,204,cs),
(769,204,o),
(728,257,o),
(728,334,cs),
(728,499,l),
(381,499,l),
(381,334,ls),
(381,257,o),
(338,204,o),
(268,204,cs),
(200,204,o),
(159,257,o),
(159,334,cs),
(159,499,l),
(75,499,l),
(75,332,ls),
(75,214,o),
(144,131,o),
(267,131,cs),
(388,131,o),
(462,214,o),
(462,332,cs),
(462,427,l),
(644,427,l),
(644,332,ls),
(644,214,o),
(713,131,o),
(836,131,cs),
(957,131,o),
(1031,214,o),
(1031,332,cs),
(1031,427,l),
(1221,427,l),
(1221,0,l)
);
}
);
width = 1409;
}
);
note = dvJx_JxA;
},
{
glyphname = dvJx_YA;
layers = (
{
layerId = m01;
shapes = (
{
closed = 1;
nodes = (
(783,182,o),
(710,266,o),
(710,400,cs),
(710,401,o),
(710,403,o),
(710,405,c),
(832,411,o),
(907,469,o),
(907,587,cs),
(907,670,l),
(1108,670,l),
(1108,370,ls),
(1108,258,o),
(1022,182,o),
(909,182,cs)
);
},
{
closed = 1;
nodes = (
(1192,0,l),
(1192,670,l),
(1323,670,l),
(1323,740,l),
(-27,740,l),
(-27,670,l),
(824,670,l),
(824,601,ls),
(824,499,o),
(758,464,o),
(645,464,cs),
(381,464,l),
(381,334,ls),
(381,257,o),
(338,204,o),
(268,204,cs),
(200,204,o),
(159,257,o),
(159,334,cs),
(159,464,l),
(75,464,l),
(75,332,ls),
(75,214,o),
(144,131,o),
(267,131,cs),
(388,131,o),
(462,214,o),
(462,332,cs),
(462,394,l),
(593,394,ls),
(607,394,o),
(618,394,o),
(628,394,c),
(635,222,o),
(730,112,o),
(893,112,cs),
(1000,112,o),
(1071,159,o),
(1108,218,c),
(1108,0,l)
);
},
{
closed = 1;
nodes = (
(303,-60,o),
(327,-36,o),
(327,-5,cs),
(327,27,o),
(303,52,o),
(271,52,cs),
(239,52,o),
(215,27,o),
(215,-5,cs),
(215,-36,o),
(239,-60,o),
(271,-60,cs)
);
}
);
width = 1297;
}
);
note = dvJx_YA;
},
{
glyphname = dvEyelash_YA;
layers = (
{
layerId = m01;
shapes = (
{
closed = 1;
nodes = (
(416,182,o),
(343,261,o),
(343,386,cs),
(343,388,o),
(343,391,o),
(343,393,c),
(469,398,o),
(540,458,o),
(540,587,cs),
(540,670,l),
(741,670,l),
(741,370,ls),
(741,258,o),
(654,182,o),
(542,182,cs)
);
},
{
closed = 1;
nodes = (
(824,0,l),
(824,670,l),
(956,670,l),
(956,740,l),
(-27,740,l),
(-27,670,l),
(457,670,l),
(457,601,ls),
(457,482,o),
(392,442,o),
(280,441,cs),
(204,442,o),
(113,475,o),
(113,573,c),
(35,573,l),
(37,434,o),
(150,381,o),
(261,375,c),
(268,215,o),
(361,112,o),
(525,112,cs),
(633,112,o),
(705,159,o),
(741,219,c),
(741,0,l)
);
}
);
width = 929;
}
);
note = dvEyelash_YA;
},
{
glyphname = dvEyelash_HA;
layers = (
{
layerId = m01;
shapes = (
{
closed = 1;
nodes = (
(626,62,l),
(613,16,o),
(567,-34,o),
(484,-34,cs),
(388,-34,o),
(335,31,o),
(335,116,cs),
(335,199,o),
(388,267,o),
(484,267,cs),
(570,267,o),
(615,214,o),
(626,169,c),
(706,169,l),
(692,253,o),
(625,334,o),
(486,334,cs),
(466,334,o),
(447,332,o),
(430,329,c),
(389,341,o),
(359,369,o),
(359,411,cs),
(359,471,o),
(410,492,o),
(466,492,cs),
(649,492,l),
(649,670,l),
(790,670,l),
(790,740,l),
(-27,740,l),
(-27,670,l),
(570,670,l),
(570,553,l),
(439,553,ls),
(345,553,o),
(277,511,o),
(277,426,cs),
(277,399,o),
(284,376,o),
(296,357,c),
(284,355,o),
(271,353,o),
(255,353,cs),
(186,353,o),
(113,388,o),
(113,481,c),
(35,481,l),
(36,344,o),
(143,286,o),
(241,286,cs),
(294,286,o),
(327,298,o),
(350,310,c),
(353,308,o),
(357,307,o),
(361,305,c),
(293,269,o),
(253,201,o),
(253,117,cs),
(253,-7,o),
(335,-104,o),
(484,-104,cs),
(615,-104,o),
(692,-26,o),
(706,62,c)
);
}
);
width = 764;
}
);
note = dvEyelash_HA;
},
{
glyphname = dvmII.aLong;
layers = (
{
layerId = m01;
shapes = (
{
closed = 1;
nodes = (
(-531,720,l),
(-451,720,l),
(-451,749,ls),
(-451,844,o),
(-406,939,o),
(-171,939,cs),
(65,939,o),
(107,844,o),
(107,749,cs),
(107,740,l),
(-27,740,l),
(-27,670,l),
(105,670,l),
(105,0,l),
(189,0,l),
(189,670,l),
(320,670,l),
(320,740,l),
(189,740,l),
(189,754,ls),
(189,896,o),
(108,1009,o),
(-171,1009,cs),
(-445,1009,o),
(-531,896,o),
(-531,754,cs)
);
}
);
width = 294;
}
);
note = dvmII.aLong;
},
{
glyphname = dvmII_Anusvara;
layers = (
{
layerId = m01;
shapes = (
{
closed = 1;
nodes = (
(-189,720,l),
(-107,720,l),
(-107,782,ls),
(-107,852,o),
(-85,926,o),
(1,926,cs),
(86,926,o),
(107,852,o),
(107,782,cs),
(107,740,l),
(-27,740,l),
(-27,670,l),
(105,670,l),
(105,0,l),
(189,0,l),
(189,670,l),
(320,670,l),
(320,740,l),
(189,740,l),
(189,778,ls),
(189,900,o),
(143,996,o),
(1,996,cs),
(-138,996,o),
(-189,900,o),
(-189,778,cs)
);
},
{
closed = 1;
nodes = (
(340,829,o),
(365,854,o),
(365,885,cs),
(365,916,o),
(340,941,o),
(309,941,cs),
(277,941,o),
(252,916,o),
(252,885,cs),
(252,854,o),
(277,829,o),
(309,829,cs)
);
}
);
width = 294;
}
);
note = dvmII_Anusvara;
},
{
glyphname = dvmII_Reph;
layers = (
{
layerId = m01;
shapes = (
{
closed = 1;
nodes = (
(-189,720,l),
(-107,720,l),
(-107,782,ls),
(-107,852,o),
(-85,926,o),
(1,926,cs),
(86,926,o),
(107,852,o),
(107,782,cs),
(107,740,l),
(-27,740,l),
(-27,670,l),
(105,670,l),
(105,0,l),
(189,0,l),
(189,670,l),
(320,670,l),
(320,740,l),
(189,740,l),
(189,821,ls),
(189,877,o),
(212,915,o),
(262,915,cs),
(308,915,o),
(334,883,o),
(331,829,c),
(406,829,l),
(412,928,o),
(359,982,o),
(281,982,cs),
(218,982,o),
(181,949,o),
(165,905,c),
(138,961,o),
(87,996,o),
(1,996,cs),
(-138,996,o),
(-189,900,o),
(-189,778,cs)
);
}
);
width = 294;
}
);
note = dvmII_Reph;
},
{
glyphname = dvmII_Reph_Anusvara;
layers = (
{
layerId = m01;
shapes = (
{
closed = 1;
nodes = (
(-189,720,l),
(-107,720,l),
(-107,782,ls),
(-107,852,o),
(-85,926,o),
(1,926,cs),
(86,926,o),
(107,852,o),
(107,782,cs),
(107,740,l),
(-27,740,l),
(-27,670,l),
(105,670,l),
(105,0,l),
(189,0,l),
(189,670,l),
(320,670,l),
(320,740,l),
(189,740,l),
(189,817,ls),
(189,884,o),
(222,924,o),
(276,924,cs),
(328,924,o),
(359,889,o),
(358,840,c),
(426,840,l),
(433,929,o),
(379,990,o),
(292,990,cs),
(226,990,o),
(183,955,o),
(164,907,c),
(137,961,o),
(87,996,o),
(1,996,cs),
(-138,996,o),
(-189,900,o),
(-189,778,cs)
);
},
{
closed = 1;
nodes = (
(299,786,o),
(319,807,o),
(319,831,cs),
(319,856,o),
(299,876,o),
(274,876,cs),
(249,876,o),
(229,856,o),
(229,831,cs),
(229,807,o),
(249,786,o),
(274,786,cs)
);
}
);
width = 294;
}
);
note = dvmII_Reph_Anusvara;
},
{
glyphname = dvmII_Anusvara.aLong;
layers = (
{
layerId = m01;
shapes = (
{
closed = 1;
nodes = (
(-531,720,l),
(-451,720,l),
(-451,749,ls),
(-451,844,o),
(-406,939,o),
(-171,939,cs),
(65,939,o),
(107,844,o),
(107,749,cs),
(107,740,l),
(-27,740,l),
(-27,670,l),
(105,670,l),
(105,0,l),
(189,0,l),
(189,670,l),
(320,670,l),
(320,740,l),
(189,740,l),
(189,754,ls),
(189,896,o),
(108,1009,o),
(-171,1009,cs),
(-445,1009,o),
(-531,896,o),
(-531,754,cs)
);
},
{
closed = 1;
nodes = (
(340,829,o),
(365,854,o),
(365,885,cs),
(365,916,o),
(340,941,o),
(309,941,cs),
(277,941,o),
(252,916,o),
(252,885,cs),
(252,854,o),
(277,829,o),
(309,829,cs)
);
}
);
width = 294;
}
);
note = dvmII_Anusvara.aLong;
},
{
glyphname = dvmII_Reph.aLong;
layers = (
{
layerId = m01;
shapes = (
{
closed = 1;
nodes = (
(-531,720,l),
(-451,720,l),
(-451,749,ls),
(-451,844,o),
(-406,939,o),
(-171,939,cs),
(65,939,o),
(107,844,o),
(107,749,cs),
(107,740,l),
(-27,740,l),
(-27,670,l),
(105,670,l),
(105,0,l),
(189,0,l),
(189,670,l),
(320,670,l),
(320,740,l),
(189,740,l),
(189,821,ls),
(189,877,o),
(212,915,o),
(262,915,cs),
(308,915,o),
(334,883,o),
(331,829,c),
(406,829,l),
(412,928,o),
(359,982,o),
(281,982,cs),
(207,982,o),
(169,937,o),
(158,882,c),
(114,958,o),
(16,1009,o),
(-171,1009,cs),
(-445,1009,o),
(-531,896,o),
(-531,754,cs)
);
}
);
width = 294;
}
);
note = dvmII_Reph.aLong;
},
{
glyphname = dvmII_Reph_Anusvara.aLong;
layers = (
{
layerId = m01;
shapes = (
{
closed = 1;
nodes = (
(-531,720,l),
(-451,720,l),
(-451,749,ls),
(-451,844,o),
(-406,939,o),
(-171,939,cs),
(65,939,o),
(107,844,o),
(107,749,cs),
(107,740,l),
(-27,740,l),
(-27,670,l),
(105,670,l),
(105,0,l),
(189,0,l),
(189,670,l),
(320,670,l),
(320,740,l),
(189,740,l),
(189,817,ls),
(189,884,o),
(222,924,o),
(276,924,cs),
(328,924,o),
(359,889,o),
(358,840,c),
(426,840,l),
(433,929,o),
(379,990,o),
(292,990,cs),
(215,990,o),
(170,944,o),
(157,884,c),
(113,959,o),
(15,1009,o),
(-171,1009,cs),
(-445,1009,o),
(-531,896,o),
(-531,754,cs)
);
},
{
closed = 1;
nodes = (
(299,786,o),
(319,807,o),
(319,831,cs),
(319,856,o),
(299,876,o),
(274,876,cs),
(249,876,o),
(229,856,o),
(229,831,cs),
(229,807,o),
(249,786,o),
(274,786,cs)
);
}
);
width = 294;
}
);
note = dvmII_Reph_Anusvara.aLong;
},
{
glyphname = dvmE_Anusvara;
layers = (
{
layerId = m01;
shapes = (
{
closed = 1;
nodes = (
(-106,736,l),
(-238,963,o),
(-289,981,o),
(-421,981,cs),
(-462,981,l),
(-462,913,l),
(-420,913,ls),
(-322,913,o),
(-288,899,o),
(-185,736,c)
);
},
{
closed = 1;
nodes = (
(-3,830,o),
(22,855,o),
(22,886,cs),
(22,917,o),
(-3,942,o),
(-34,942,cs),
(-66,942,o),
(-91,917,o),
(-91,886,cs),
(-91,855,o),
(-66,830,o),
(-34,830,cs)
);
}
);
width = 0;
}
);
note = dvmE_Anusvara;
},
{
glyphname = dvmE_Reph;
layers = (
{
layerId = m01;
shapes = (
{
closed = 1;
nodes = (
(-106,736,l),
(-119,760,o),
(-127,789,o),
(-127,815,cs),
(-127,880,o),
(-94,915,o),
(-42,915,cs),
(4,915,o),
(35,881,o),
(32,833,c),
(104,833,l),
(110,919,o),
(58,980,o),
(-26,980,cs),
(-124,980,o),
(-162,907,o),
(-162,835,cs),
(-162,832,o),
(-162,829,o),
(-162,827,c),
(-256,968,o),
(-309,981,o),
(-421,981,cs),
(-462,981,l),
(-462,913,l),
(-420,913,ls),
(-322,913,o),
(-288,899,o),
(-185,736,c)
);
}
);
width = 0;
}
);
note = dvmE_Reph;
},
{
glyphname = dvmE_Reph_Anusvara;
layers = (
{
layerId = m01;
shapes = (
{
closed = 1;
nodes = (
(-106,736,l),
(-120,762,o),
(-129,790,o),
(-129,821,cs),
(-129,890,o),
(-87,930,o),
(-25,930,cs),
(35,930,o),
(68,889,o),
(70,837,c),
(129,837,l),
(131,927,o),
(74,985,o),
(-16,985,cs),
(-122,985,o),
(-167,910,o),
(-167,835,cs),
(-167,834,l),
(-258,969,o),
(-311,981,o),
(-421,981,cs),
(-462,981,l),
(-462,913,l),
(-420,913,ls),
(-322,913,o),
(-288,899,o),
(-185,736,c)
);
},
{
closed = 1;
nodes = (
(-6,788,o),
(14,809,o),
(14,833,cs),
(14,858,o),
(-6,878,o),
(-31,878,cs),
(-56,878,o),
(-76,858,o),
(-76,833,cs),
(-76,809,o),
(-56,788,o),
(-31,788,cs)
);
}
);
width = 0;
}
);
note = dvmE_Reph_Anusvara;
},
{
glyphname = dvmAI_Anusvara;
layers = (
{
layerId = m01;
shapes = (
{
closed = 1;
nodes = (
(-106,737,l),
(-255,1029,o),
(-294,1041,o),
(-425,1041,cs),
(-468,1041,l),
(-468,986,l),
(-424,986,ls),
(-337,986,o),
(-292,980,o),
(-198,807,c),
(-294,887,o),
(-327,889,o),
(-427,889,cs),
(-468,889,l),
(-468,835,l),
(-425,835,ls),
(-318,835,o),
(-296,830,o),
(-178,737,c)
);
},
{
closed = 1;
nodes = (
(2,829,o),
(27,854,o),
(27,885,cs),
(27,916,o),
(2,941,o),
(-29,941,cs),
(-61,941,o),
(-86,916,o),
(-86,885,cs),
(-86,854,o),
(-61,829,o),
(-29,829,cs)
);
}
);
width = 0;
}
);
note = dvmAI_Anusvara;
},
{
glyphname = dvmAI_Reph;
layers = (
{
layerId = m01;
shapes = (
{
closed = 1;
nodes = (
(-106,737,l),
(-108,742,o),
(-111,747,o),
(-113,751,cs),
(-122,772,o),
(-127,794,o),
(-127,815,cs),
(-127,880,o),
(-94,915,o),
(-42,915,cs),
(4,915,o),
(35,881,o),
(32,833,c),
(97,833,l),
(102,919,o),
(53,980,o),
(-28,980,cs),
(-121,980,o),
(-159,912,o),
(-162,842,c),
(-267,1032,o),
(-312,1041,o),
(-425,1041,cs),
(-468,1041,l),
(-468,986,l),
(-424,986,ls),
(-337,986,o),
(-292,980,o),
(-198,807,c),
(-294,887,o),
(-327,889,o),
(-427,889,cs),
(-468,889,l),
(-468,835,l),
(-425,835,ls),
(-318,835,o),
(-296,830,o),
(-178,737,c)
);
}
);
width = 0;
}
);
note = dvmAI_Reph;
},
{
glyphname = dvmAI_Reph_Anusvara;
layers = (
{
layerId = m01;
shapes = (
{
closed = 1;
nodes = (
(-106,737,l),
(-108,740,o),
(-109,744,o),
(-111,747,cs),
(-122,770,o),
(-129,793,o),
(-129,819,cs),
(-129,890,o),
(-88,930,o),
(-25,930,cs),
(35,930,o),
(68,889,o),
(70,837,c),
(129,837,l),
(131,924,o),
(76,985,o),
(-16,985,cs),
(-114,985,o),
(-161,919,o),
(-165,848,c),
(-268,1032,o),
(-313,1041,o),
(-425,1041,cs),
(-468,1041,l),
(-468,986,l),
(-424,986,ls),
(-337,986,o),
(-292,980,o),
(-198,807,c),
(-294,887,o),
(-327,889,o),
(-427,889,cs),
(-468,889,l),
(-468,835,l),
(-425,835,ls),
(-318,835,o),
(-296,830,o),
(-178,737,c)
);
},
{
closed = 1;
nodes = (
(-8,788,o),
(12,809,o),
(12,833,cs),
(12,858,o),
(-8,878,o),
(-33,878,cs),
(-58,878,o),
(-78,858,o),
(-78,833,cs),
(-78,809,o),
(-58,788,o),
(-33,788,cs)
);
}
);
width = 0;
}
);
note = dvmAI_Reph_Anusvara;
},
{
glyphname = dvmO_Anusvara;
layers = (
{
layerId = m01;
shapes = (
{
closed = 1;
nodes = (
(189,0,l),
(189,670,l),
(320,670,l),
(320,740,l),
(186,740,l),
(56,963,o),
(5,981,o),
(-127,981,cs),
(-168,981,l),
(-168,913,l),
(-126,913,ls),
(-29,913,o),
(5,899,o),
(106,740,c),
(-27,740,l),
(-27,670,l),
(105,670,l),
(105,0,l)
);
},
{
closed = 1;
nodes = (
(291,830,o),
(316,855,o),
(316,886,cs),
(316,917,o),
(291,942,o),
(260,942,cs),
(228,942,o),
(203,917,o),
(203,886,cs),
(203,855,o),
(228,830,o),
(260,830,cs)
);
}
);
width = 294;
}
);
note = dvmO_Anusvara;
},
{
glyphname = dvmO_Reph;
layers = (
{
layerId = m01;
shapes = (
{
closed = 1;
nodes = (
(189,0,l),
(189,670,l),
(320,670,l),
(320,740,l),
(186,740,l),
(175,760,o),
(167,789,o),
(167,815,cs),
(167,880,o),
(200,915,o),
(252,915,cs),
(298,915,o),
(329,881,o),
(326,833,c),
(398,833,l),
(404,919,o),
(352,980,o),
(268,980,cs),
(170,980,o),
(132,907,o),
(132,835,cs),
(132,832,o),
(132,829,o),
(132,827,c),
(38,968,o),
(-15,981,o),
(-127,981,cs),
(-168,981,l),
(-168,913,l),
(-126,913,ls),
(-29,913,o),
(5,899,o),
(106,740,c),
(-27,740,l),
(-27,670,l),
(105,670,l),
(105,0,l)
);
}
);
width = 294;
}
);
note = dvmO_Reph;
},
{
glyphname = dvmO_Reph_Anusvara;
layers = (
{
layerId = m01;
shapes = (
{
closed = 1;
nodes = (
(189,0,l),
(189,670,l),
(320,670,l),
(320,740,l),
(186,740,l),
(174,762,o),
(165,790,o),
(165,821,cs),
(165,890,o),
(207,930,o),
(269,930,cs),
(329,930,o),
(362,889,o),
(364,837,c),
(423,837,l),
(425,927,o),
(368,985,o),
(278,985,cs),
(172,985,o),
(127,910,o),
(127,835,cs),
(127,834,l),
(36,969,o),
(-17,981,o),
(-127,981,cs),
(-168,981,l),
(-168,913,l),
(-126,913,ls),
(-29,913,o),
(5,899,o),
(106,740,c),
(-27,740,l),
(-27,670,l),
(105,670,l),
(105,0,l)
);
},
{
closed = 1;
nodes = (
(288,788,o),
(308,809,o),
(308,833,cs),
(308,858,o),
(288,878,o),
(263,878,cs),
(238,878,o),
(218,858,o),
(218,833,cs),
(218,809,o),
(238,788,o),
(263,788,cs)
);
}
);
width = 294;
}
);
note = dvmO_Reph_Anusvara;
},
{
glyphname = dvmAU_Anusvara;
layers = (
{
layerId = m01;
shapes = (
{
closed = 1;
nodes = (
(189,0,l),
(189,670,l),
(320,670,l),
(320,740,l),
(183,740,l),
(36,1029,o),
(-3,1041,o),
(-134,1041,cs),
(-177,1041,l),
(-177,986,l),
(-133,986,ls),
(-46,986,o),
(-1,980,o),
(93,807,c),
(-3,887,o),
(-36,889,o),
(-136,889,cs),
(-177,889,l),
(-177,835,l),
(-134,835,ls),
(-28,835,o),
(-5,830,o),
(109,740,c),
(-27,740,l),
(-27,670,l),
(105,670,l),
(105,0,l)
);
},
{
closed = 1;
nodes = (
(293,829,o),
(318,854,o),
(318,885,cs),
(318,916,o),
(293,941,o),
(262,941,cs),
(230,941,o),
(205,916,o),
(205,885,cs),
(205,854,o),
(230,829,o),
(262,829,cs)
);
}
);
width = 294;
}
);
note = dvmAU_Anusvara;
},
{
glyphname = dvmAU_Reph;
layers = (
{
layerId = m01;
shapes = (
{
closed = 1;
nodes = (
(189,0,l),
(189,670,l),
(320,670,l),
(320,740,l),
(183,740,l),
(183,742,o),
(180,747,o),
(178,751,cs),
(169,772,o),
(164,794,o),
(164,815,cs),
(164,880,o),
(197,915,o),
(249,915,cs),
(295,915,o),
(326,881,o),
(323,833,c),
(388,833,l),
(393,919,o),
(344,980,o),
(263,980,cs),
(170,980,o),
(132,912,o),
(129,842,c),
(24,1032,o),
(-21,1041,o),
(-134,1041,cs),
(-177,1041,l),
(-177,986,l),
(-133,986,ls),
(-46,986,o),
(-1,980,o),
(93,807,c),
(-3,887,o),
(-36,889,o),
(-136,889,cs),
(-177,889,l),
(-177,835,l),
(-134,835,ls),
(-28,835,o),
(-5,830,o),
(109,740,c),
(-27,740,l),
(-27,670,l),
(105,670,l),
(105,0,l)
);
}
);
width = 294;
}
);
note = dvmAU_Reph;
},
{
glyphname = dvmAU_Reph_Anusvara;
layers = (
{
layerId = m01;
shapes = (
{
closed = 1;
nodes = (
(189,0,l),
(189,670,l),
(320,670,l),
(320,740,l),
(183,740,l),
(183,740,o),
(182,744,o),
(180,747,cs),
(169,770,o),
(162,793,o),
(162,819,cs),
(162,890,o),
(203,930,o),
(266,930,cs),
(326,930,o),
(359,889,o),
(361,837,c),
(420,837,l),
(422,924,o),
(367,985,o),
(275,985,cs),
(177,985,o),
(130,919,o),
(126,848,c),
(23,1032,o),
(-22,1041,o),
(-134,1041,cs),
(-177,1041,l),
(-177,986,l),
(-133,986,ls),
(-46,986,o),
(-1,980,o),
(93,807,c),
(-3,887,o),
(-36,889,o),
(-136,889,cs),
(-177,889,l),
(-177,835,l),
(-134,835,ls),
(-28,835,o),
(-5,830,o),
(109,740,c),
(-27,740,l),
(-27,670,l),
(105,670,l),
(105,0,l)
);
},
{
closed = 1;
nodes = (
(283,788,o),
(303,809,o),
(303,833,cs),
(303,858,o),
(283,878,o),
(258,878,cs),
(233,878,o),
(213,858,o),
(213,833,cs),
(213,809,o),
(233,788,o),
(258,788,cs)
);
}
);
width = 294;
}
);
note = dvmAU_Reph_Anusvara;
},
{
glyphname = dvmEcandra_Anusvara;
layers = (
{
layerId = m01;
shapes = (
{
closed = 1;
nodes = (
(-10,818,o),
(57,899,o),
(57,994,c),
(-11,994,l),
(-11,938,o),
(-54,879,o),
(-146,879,cs),
(-238,879,o),
(-281,938,o),
(-281,994,c),
(-350,994,l),
(-350,899,o),
(-283,818,o),
(-146,818,cs)
);
},
{
closed = 1;
nodes = (
(-122,982,o),
(-104,1000,o),
(-104,1023,cs),
(-104,1046,o),
(-122,1065,o),
(-146,1065,cs),
(-169,1065,o),
(-187,1046,o),
(-187,1023,cs),
(-187,1000,o),
(-169,982,o),
(-146,982,cs)
);
}
);
width = 0;
}
);
note = dvmEcandra_Anusvara;
},
{
glyphname = dvmOcandra_Anusvara;
layers = (
{
layerId = m01;
shapes = (
{
closed = 1;
nodes = (
(105,0,l),
(189,0,l),
(189,670,l),
(320,670,l),
(320,740,l),
(-27,740,l),
(-27,670,l),
(105,670,l)
);
},
{
closed = 1;
nodes = (
(283,818,o),
(350,899,o),
(350,994,c),
(282,994,l),
(282,938,o),
(239,879,o),
(147,879,cs),
(55,879,o),
(12,938,o),
(12,994,c),
(-57,994,l),
(-57,899,o),
(10,818,o),
(147,818,cs)
);
},
{
closed = 1;
nodes = (
(171,982,o),
(189,1000,o),
(189,1023,cs),
(189,1046,o),
(171,1065,o),
(147,1065,cs),
(124,1065,o),
(106,1046,o),
(106,1023,cs),
(106,1000,o),
(124,982,o),
(147,982,cs)
);
}
);
width = 294;
}
);
note = dvmOcandra_Anusvara;
},
{
glyphname = dvRA_mU;
layers = (
{
layerId = m01;
shapes = (
{
closed = 1;
nodes = (
(165,348,l),
(165,352,l),
(172,352,l)
);
},
{
closed = 1;
nodes = (
(-27,670,l),
(359,670,l),
(359,581,ls),
(359,470,o),
(302,414,o),
(188,414,cs),
(83,414,l),
(83,207,ls),
(83,82,o),
(148,-9,o),
(281,-9,cs),
(401,-9,o),
(473,70,o),
(473,193,cs),
(473,207,l),
(393,207,l),
(393,191,ls),
(393,115,o),
(350,63,o),
(279,63,cs),
(201,63,o),
(165,121,o),
(165,202,cs),
(165,345,l),
(585,345,ls),
(659,345,o),
(706,307,o),
(706,240,cs),
(706,174,o),
(663,138,o),
(596,138,cs),
(580,138,o),
(561,140,o),
(545,145,c),
(545,76,l),
(562,73,o),
(583,70,o),
(603,70,cs),
(712,70,o),
(782,134,o),
(782,236,cs),
(782,349,o),
(711,414,o),
(579,414,cs),
(383,414,l),
(422,454,o),
(442,511,o),
(442,581,cs),
(442,670,l),
(876,670,l),
(876,740,l),
(-27,740,l)
);
}
);
width = 829;
}
);
note = dvRA_mU;
},
{
glyphname = dvRA_mUU;
layers = (
{
layerId = m01;
shapes = (
{
closed = 1;
nodes = (
(165,348,l),
(165,352,l),
(172,352,l)
);
},
{
closed = 1;
nodes = (
(-27,670,l),
(359,670,l),
(359,581,ls),
(359,470,o),
(302,414,o),
(188,414,cs),
(83,414,l),
(83,207,ls),
(83,82,o),
(148,-9,o),
(281,-9,cs),
(401,-9,o),
(473,70,o),
(473,193,cs),
(473,207,l),
(393,207,l),
(393,191,ls),
(393,115,o),
(350,63,o),
(279,63,cs),
(201,63,o),
(165,121,o),
(165,202,cs),
(165,345,l),
(472,345,ls),
(564,345,o),
(615,299,o),
(615,215,cs),
(615,118,l),
(693,118,l),
(693,216,ls),
(693,341,o),
(620,414,o),
(480,414,cs),
(383,414,l),
(422,454,o),
(442,511,o),
(442,581,cs),
(442,670,l),
(780,670,l),
(780,740,l),
(-27,740,l)
);
}
);
width = 753;
}
);
note = dvRA_mUU;
},
{
glyphname = dvmI.a01;
layers = (
{
layerId = m01;
shapes = (
{
closed = 1;
nodes = (
(189,670,l),
(320,670,l),
(320,740,l),
(188,740,l),
(188,892,o),
(317,927,o),
(422,927,cs),
(525,927,o),
(655,881,o),
(655,736,cs),
(655,720,l),
(737,720,l),
(737,737,ls),
(737,914,o),
(588,996,o),
(422,996,cs),
(256,996,o),
(108,925,o),
(105,740,c),
(-27,740,l),
(-27,670,l),
(105,670,l),
(105,0,l),
(189,0,l)
);
}
);
width = 294;
}
);
note = dvmI.a01;
},
{
glyphname = dvmI.a02;
layers = (
{
layerId = m01;
shapes = (
{
closed = 1;
nodes = (
(189,670,l),
(320,670,l),
(320,740,l),
(188,740,l),
(188,889,o),
(315,928,o),
(447,928,cs),
(578,928,o),
(709,879,o),
(709,735,cs),
(709,719,l),
(790,719,l),
(790,737,ls),
(790,913,o),
(640,997,o),
(447,997,cs),
(255,997,o),
(108,925,o),
(105,740,c),
(-27,740,l),
(-27,670,l),
(105,670,l),
(105,0,l),
(189,0,l)
);
}
);
width = 294;
}
);
note = dvmI.a02;
},
{
glyphname = dvmI.a03;
layers = (
{
layerId = m01;
shapes = (
{
closed = 1;
nodes = (
(189,670,l),
(320,670,l),
(320,740,l),
(188,740,l),
(188,889,o),
(314,929,o),
(473,929,cs),
(632,929,o),
(763,879,o),
(763,733,cs),
(763,719,l),
(845,719,l),
(845,735,ls),
(845,912,o),
(694,998,o),
(473,998,cs),
(254,998,o),
(108,925,o),
(105,740,c),
(-27,740,l),
(-27,670,l),
(105,670,l),
(105,0,l),
(189,0,l)
);
}
);
width = 294;
}
);
note = dvmI.a03;
},
{
glyphname = dvmI.a04;
layers = (
{
layerId = m01;
shapes = (
{
closed = 1;
nodes = (
(189,670,l),
(320,670,l),
(320,740,l),
(188,740,l),
(188,887,o),
(312,930,o),
(498,930,cs),
(685,930,o),
(816,876,o),
(816,732,cs),
(816,718,l),
(898,718,l),
(898,735,ls),
(898,910,o),
(748,999,o),
(499,999,cs),
(253,999,o),
(109,924,o),
(105,740,c),
(-27,740,l),
(-27,670,l),
(105,670,l),
(105,0,l),
(189,0,l)
);
}
);
width = 294;
}
);
note = dvmI.a04;
},
{
glyphname = dvmI.a05;
layers = (
{
layerId = m01;
shapes = (
{
closed = 1;
nodes = (
(189,670,l),
(320,670,l),
(320,740,l),
(188,740,l),
(188,886,o),
(310,931,o),
(523,931,cs),
(738,931,o),
(870,875,o),
(870,732,cs),
(870,717,l),
(952,717,l),
(952,734,ls),
(952,910,o),
(801,1000,o),
(524,1000,cs),
(252,1000,o),
(109,923,o),
(105,740,c),
(-27,740,l),
(-27,670,l),
(105,670,l),
(105,0,l),
(189,0,l)
);
}
);
width = 294;
}
);
note = dvmI.a05;
},
{
glyphname = dvmI.a06;
layers = (
{
layerId = m01;
shapes = (
{
closed = 1;
nodes = (
(189,670,l),
(320,670,l),
(320,740,l),
(188,740,l),
(191,886,o),
(312,932,o),
(549,932,cs),
(791,932,o),
(923,874,o),
(923,731,cs),
(923,716,l),
(1005,716,l),
(1005,732,ls),
(1005,909,o),
(855,1001,o),
(551,1001,cs),
(252,1001,o),
(109,923,o),
(105,740,c),
(-27,740,l),
(-27,670,l),
(105,670,l),
(105,0,l),
(189,0,l)
);
}
);
width = 294;
}
);
note = dvmI.a06;
},
{
glyphname = dvmI.a07;
layers = (
{
layerId = m01;
shapes = (
{
closed = 1;
nodes = (
(189,670,l),
(320,670,l),
(320,740,l),
(188,740,l),
(191,884,o),
(311,932,o),
(575,932,cs),
(845,932,o),
(978,873,o),
(978,730,cs),
(978,717,l),
(1060,716,l),
(1060,731,ls),
(1060,907,o),
(908,1001,o),
(577,1001,cs),
(252,1001,o),
(109,922,o),
(105,740,c),
(-27,740,l),
(-27,670,l),
(105,670,l),
(105,0,l),
(189,0,l)
);
}
);
width = 294;
}
);
note = dvmI.a07;
},
{
glyphname = dvmI.a08;
layers = (
{
layerId = m01;
shapes = (
{
closed = 1;
nodes = (
(189,670,l),
(320,670,l),
(320,740,l),
(188,740,l),
(191,883,o),
(310,933,o),
(600,933,cs),
(898,933,o),
(1032,871,o),
(1032,729,cs),
(1032,717,l),
(1113,716,l),
(1113,731,ls),
(1113,906,o),
(962,1002,o),
(603,1002,cs),
(250,1002,o),
(109,922,o),
(105,740,c),
(-27,740,l),
(-27,670,l),
(105,670,l),
(105,0,l),
(189,0,l)
);
}
);
width = 294;
}
);
note = dvmI.a08;
},
{
glyphname = dvmI.a09;
layers = (
{
layerId = m01;
shapes = (
{
closed = 1;
nodes = (
(189,670,l),
(320,670,l),
(320,740,l),
(188,740,l),
(192,882,o),
(309,934,o),
(625,934,cs),
(951,934,o),
(1085,869,o),
(1085,727,cs),
(1085,716,l),
(1167,715,l),
(1167,730,ls),
(1167,905,o),
(1015,1003,o),
(627,1003,cs),
(250,1003,o),
(110,922,o),
(105,740,c),
(-27,740,l),
(-27,670,l),
(105,670,l),
(105,0,l),
(189,0,l)
);
}
);
width = 294;
}
);
note = dvmI.a09;
},
{
glyphname = dvmI.a10;
layers = (
{
layerId = m01;
shapes = (
{
closed = 1;
nodes = (
(189,670,l),
(320,670,l),
(320,740,l),
(188,740,l),
(192,882,o),
(309,935,o),
(651,935,cs),
(1004,935,o),
(1139,868,o),
(1139,727,cs),
(1139,715,l),
(1221,714,l),
(1221,729,ls),
(1221,904,o),
(1069,1004,o),
(653,1004,cs),
(249,1004,o),
(110,921,o),
(105,740,c),
(-27,740,l),
(-27,670,l),
(105,670,l),
(105,0,l),
(189,0,l)
);
}
);
width = 294;
}
);
note = dvmI.a10;
},
{
glyphname = dvmI.a11;
layers = (
{
layerId = m01;
shapes = (
{
closed = 1;
nodes = (
(189,670,l),
(320,670,l),
(320,740,l),
(188,740,l),
(192,880,o),
(307,936,o),
(676,936,cs),
(1057,936,o),
(1194,866,o),
(1194,726,cs),
(1194,714,l),
(1275,713,l),
(1275,728,ls),
(1275,903,o),
(1123,1005,o),
(679,1005,cs),
(248,1005,o),
(110,920,o),
(105,740,c),
(-27,740,l),
(-27,670,l),
(105,670,l),
(105,0,l),
(189,0,l)
);
}
);
width = 294;
}
);
note = dvmI.a11;
},
{
glyphname = dvmI.a12;
layers = (
{
layerId = m01;
shapes = (
{
closed = 1;
nodes = (
(189,670,l),
(320,670,l),
(320,740,l),
(188,740,l),
(192,878,o),
(308,937,o),
(702,937,cs),
(1110,937,o),
(1248,865,o),
(1248,725,cs),
(1248,714,l),
(1329,713,l),
(1329,726,ls),
(1329,901,o),
(1176,1006,o),
(705,1006,cs),
(248,1006,o),
(110,920,o),
(105,740,c),
(-27,740,l),
(-27,670,l),
(105,670,l),
(105,0,l),
(189,0,l)
);
}
);
width = 294;
}
);
note = dvmI.a12;
},
{
glyphname = dvmI.a13;
layers = (
{
layerId = m01;
shapes = (
{
closed = 1;
nodes = (
(189,670,l),
(320,670,l),
(320,740,l),
(188,740,l),
(192,877,o),
(305,938,o),
(727,938,cs),
(1163,938,o),
(1300,864,o),
(1300,724,cs),
(1300,713,l),
(1383,713,l),
(1383,726,ls),
(1383,901,o),
(1229,1007,o),
(730,1007,cs),
(248,1007,o),
(110,919,o),
(105,740,c),
(-27,740,l),
(-27,670,l),
(105,670,l),
(105,0,l),
(189,0,l)
);
}
);
width = 294;
}
);
note = dvmI.a13;
},
{
glyphname = dvmI.a14;
layers = (
{
layerId = m01;
shapes = (
{
closed = 1;
nodes = (
(189,670,l),
(320,670,l),
(320,740,l),
(188,740,l),
(193,876,o),
(307,939,o),
(752,939,cs),
(1216,939,o),
(1354,862,o),
(1354,722,cs),
(1354,713,l),
(1437,712,l),
(1437,724,ls),
(1437,900,o),
(1282,1008,o),
(757,1008,cs),
(247,1008,o),
(110,920,o),
(105,740,c),
(-27,740,l),
(-27,670,l),
(105,670,l),
(105,0,l),
(189,0,l)
);
}
);
width = 294;
}
);
note = dvmI.a14;
},
{
glyphname = dvmI.a15;
layers = (
{
layerId = m01;
shapes = (
{
closed = 1;
nodes = (
(189,670,l),
(320,670,l),
(320,740,l),
(188,740,l),
(193,876,o),
(304,940,o),
(779,940,cs),
(1270,940,o),
(1409,861,o),
(1409,722,cs),
(1409,712,l),
(1491,711,l),
(1491,724,ls),
(1491,898,o),
(1337,1009,o),
(783,1009,cs),
(247,1009,o),
(110,919,o),
(105,740,c),
(-27,740,l),
(-27,670,l),
(105,670,l),
(105,0,l),
(189,0,l)
);
}
);
width = 294;
}
);
note = dvmI.a15;
},
{
glyphname = dvmI.a16;
layers = (
{
layerId = m01;
shapes = (
{
closed = 1;
nodes = (
(189,670,l),
(320,670,l),
(320,740,l),
(188,740,l),
(193,874,o),
(306,941,o),
(804,941,cs),
(1323,941,o),
(1462,860,o),
(1462,722,cs),
(1462,711,l),
(1545,711,l),
(1545,723,ls),
(1545,897,o),
(1390,1010,o),
(808,1010,cs),
(247,1010,o),
(110,918,o),
(105,740,c),
(-27,740,l),
(-27,670,l),
(105,670,l),
(105,0,l),
(189,0,l)
);
}
);
width = 294;
}
);
note = dvmI.a16;
},
{
glyphname = dvmI.a17;
layers = (
{
layerId = m01;
shapes = (
{
closed = 1;
nodes = (
(189,670,l),
(320,670,l),
(320,740,l),
(188,740,l),
(193,873,o),
(304,942,o),
(829,942,cs),
(1376,942,o),
(1516,858,o),
(1516,720,cs),
(1516,711,l),
(1598,710,l),
(1598,721,ls),
(1598,897,o),
(1443,1011,o),
(834,1011,cs),
(246,1011,o),
(111,918,o),
(105,740,c),
(-27,740,l),
(-27,670,l),
(105,670,l),
(105,0,l),
(189,0,l)
);
}
);
width = 294;
}
);
note = dvmI.a17;
},
{
glyphname = dvmI.a18;
layers = (
{
layerId = m01;
shapes = (
{
closed = 1;
nodes = (
(189,670,l),
(320,670,l),
(320,740,l),
(188,740,l),
(194,873,o),
(305,943,o),
(855,943,cs),
(1429,943,o),
(1570,856,o),
(1570,719,cs),
(1570,711,l),
(1652,710,l),
(1652,721,ls),
(1652,895,o),
(1497,1012,o),
(859,1012,cs),
(246,1012,o),
(111,917,o),
(105,740,c),
(-27,740,l),
(-27,670,l),
(105,670,l),
(105,0,l),
(189,0,l)
);
}
);
width = 294;
}
);
note = dvmI.a18;
},
{
glyphname = dvmI.a19;
layers = (
{
layerId = m01;
shapes = (
{
closed = 1;
nodes = (
(189,670,l),
(320,670,l),
(320,740,l),
(188,740,l),
(194,871,o),
(304,944,o),
(880,944,cs),
(1482,944,o),
(1624,855,o),
(1624,718,cs),
(1624,710,l),
(1707,709,l),
(1707,721,ls),
(1707,894,o),
(1551,1013,o),
(885,1013,cs),
(245,1013,o),
(111,916,o),
(105,740,c),
(-27,740,l),
(-27,670,l),
(105,670,l),
(105,0,l),
(189,0,l)
);
}
);
width = 294;
}
);
note = dvmI.a19;
},
{
glyphname = dvmI.a20;
layers = (
{
layerId = m01;
shapes = (
{
closed = 1;
nodes = (
(189,670,l),
(320,670,l),
(320,740,l),
(188,740,l),
(194,870,o),
(305,945,o),
(905,945,cs),
(1536,945,o),
(1677,854,o),
(1677,717,cs),
(1677,710,l),
(1760,709,l),
(1760,719,ls),
(1760,893,o),
(1605,1014,o),
(911,1014,cs),
(245,1014,o),
(111,916,o),
(105,740,c),
(-27,740,l),
(-27,670,l),
(105,670,l),
(105,0,l),
(189,0,l)
);
}
);
width = 294;
}
);
note = dvmI.a20;
},
{
glyphname = dvmI.a21;
layers = (
{
layerId = m01;
shapes = (
{
closed = 1;
nodes = (
(189,670,l),
(320,670,l),
(320,740,l),
(188,740,l),
(194,869,o),
(304,945,o),
(931,945,cs),
(1588,945,o),
(1731,853,o),
(1731,716,cs),
(1731,709,l),
(1814,708,l),
(1814,718,ls),
(1814,892,o),
(1657,1014,o),
(937,1014,cs),
(245,1014,o),
(111,915,o),
(105,740,c),
(-27,740,l),
(-27,670,l),
(105,670,l),
(105,0,l),
(189,0,l)
);
}
);
width = 294;
}
);
note = dvmI.a21;
},
{
glyphname = dvmI.a22;
layers = (
{
layerId = m01;
shapes = (
{
closed = 1;
nodes = (
(189,670,l),
(320,670,l),
(320,740,l),
(188,740,l),
(194,868,o),
(303,946,o),
(956,946,cs),
(1641,946,o),
(1785,851,o),
(1785,715,cs),
(1785,709,l),
(1867,707,l),
(1867,717,ls),
(1867,890,o),
(1711,1015,o),
(963,1015,cs),
(244,1015,o),
(111,915,o),
(105,740,c),
(-27,740,l),
(-27,670,l),
(105,670,l),
(105,0,l),
(189,0,l)
);
}
);
width = 294;
}
);
note = dvmI.a22;
},
{
glyphname = dvmI.a23;
layers = (
{
layerId = m01;
shapes = (
{
closed = 1;
nodes = (
(189,670,l),
(320,670,l),
(320,740,l),
(188,740,l),
(195,867,o),
(304,947,o),
(982,947,cs),
(1695,947,o),
(1839,850,o),
(1839,714,cs),
(1839,708,l),
(1922,707,l),
(1922,716,ls),
(1922,890,o),
(1765,1016,o),
(988,1016,cs),
(246,1016,o),
(112,914,o),
(105,740,c),
(-27,740,l),
(-27,670,l),
(105,670,l),
(105,0,l),
(189,0,l)
);
}
);
width = 294;
}
);
note = dvmI.a23;
},
{
glyphname = dvmI.a24;
layers = (
{
layerId = m01;
shapes = (
{
closed = 1;
nodes = (
(189,670,l),
(320,670,l),
(320,740,l),
(188,740,l),
(195,867,o),
(304,948,o),
(1008,948,cs),
(1748,948,o),
(1893,849,o),
(1893,713,cs),
(1893,707,l),
(1976,706,l),
(1976,715,ls),
(1976,889,o),
(1818,1017,o),
(1015,1017,cs),
(245,1017,o),
(112,914,o),
(105,740,c),
(-27,740,l),
(-27,670,l),
(105,670,l),
(105,0,l),
(189,0,l)
);
}
);
width = 294;
}
);
note = dvmI.a24;
},
{
glyphname = exclam;
lastChange = "2022-10-19 10:24:33 +0000";
layers = (
{
layerId = m01;
shapes = (
{
closed = 1;
nodes = (
(93,197,ls),
(93,192,o),
(98,187,o),
(103,187,cs),
(189,187,ls),
(194,187,o),
(199,192,o),
(199,197,cs),
(210,697,ls),
(210,703,o),
(206,707,o),
(200,707,cs),
(92,707,ls),
(86,707,o),
(82,703,o),
(82,697,cs)
);
},
{
closed = 1;
nodes = (
(225,96,o),
(193,128,o),
(150,128,cs),
(106,128,o),
(73,95,o),
(73,56,cs),
(73,17,o),
(106,-16,o),
(150,-16,cs),
(193,-16,o),
(225,16,o),
(225,56,cs)
);
}
);
width = 298;
}
);
note = exclam;
unicode = 33;
},
{
glyphname = quotedbl;
lastChange = "2022-10-19 10:24:38 +0000";
layers = (
{
layerId = m01;
shapes = (
{
closed = 1;
nodes = (
(22,596,ls),
(22,591,o),
(27,587,o),
(32,587,cs),
(105,587,ls),
(110,587,o),
(115,591,o),
(115,596,cs),
(126,795,ls),
(126,802,o),
(122,806,o),
(116,806,cs),
(20,806,ls),
(14,806,o),
(10,802,o),
(10,795,cs)
);
},
{
closed = 1;
nodes = (
(175,596,ls),
(175,591,o),
(180,587,o),
(185,587,cs),
(258,587,ls),
(263,587,o),
(268,591,o),
(268,596,cs),
(279,795,ls),
(279,802,o),
(275,806,o),
(269,806,cs),
(173,806,ls),
(167,806,o),
(163,802,o),
(163,795,cs)
);
}
);
width = 292;
}
);
note = quotedbl;
unicode = 34;
},
{
glyphname = numbersign;
lastChange = "2022-10-19 10:25:07 +0000";
layers = (
{
layerId = m01;
shapes = (
{
closed = 1;
nodes = (
(493,301,ls),
(492,294,o),
(486,290,o),
(479,290,cs),
(331,290,ls),
(320,290,o),
(313,299,o),
(315,310,cs),
(343,439,ls),
(344,446,o),
(350,450,o),
(357,450,cs),
(505,450,ls),
(516,450,o),
(523,441,o),
(521,430,cs)
);
},
{
closed = 1;
nodes = (
(430,3,ls),
(429,-4,o),
(434,-10,o),
(441,-10,cs),
(536,-10,ls),
(540,-10,o),
(545,-6,o),
(546,-2,cs),
(585,179,ls),
(586,186,o),
(592,190,o),
(599,190,cs),
(734,190,ls),
(740,190,o),
(744,194,o),
(744,200,cs),
(744,280,ls),
(744,286,o),
(740,290,o),
(734,290,cs),
(628,290,ls),
(617,290,o),
(610,299,o),
(612,310,cs),
(640,439,ls),
(641,446,o),
(647,450,o),
(654,450,cs),
(790,450,ls),
(796,450,o),
(800,454,o),
(800,460,cs),
(800,540,ls),
(800,546,o),
(796,550,o),
(790,550,cs),
(683,550,ls),
(672,550,o),
(665,559,o),
(667,570,cs),
(703,737,ls),
(704,744,o),
(699,750,o),
(692,750,cs),
(597,750,ls),
(593,750,o),
(588,746,o),
(587,742,cs),
(548,561,ls),
(547,554,o),
(541,550,o),
(534,550,cs),
(386,550,ls),
(375,550,o),
(368,559,o),
(370,570,cs),
(406,737,ls),
(407,744,o),
(402,750,o),
(395,750,cs),
(300,750,ls),
(296,750,o),
(291,746,o),
(290,742,cs),
(251,561,ls),
(250,554,o),
(244,550,o),
(237,550,cs),
(85,550,ls),
(79,550,o),
(75,546,o),
(75,540,cs),
(75,460,ls),
(75,454,o),
(79,450,o),
(85,450,cs),
(208,450,ls),
(219,450,o),
(226,441,o),
(224,430,cs),
(196,301,ls),
(195,294,o),
(189,290,o),
(182,290,cs),
(28,290,ls),
(22,290,o),
(18,286,o),
(18,280,cs),
(18,200,ls),
(18,194,o),
(22,190,o),
(28,190,cs),
(153,190,ls),
(164,190,o),
(171,181,o),
(169,170,cs),
(133,3,ls),
(132,-4,o),
(137,-10,o),
(144,-10,cs),
(239,-10,ls),
(243,-10,o),
(248,-6,o),
(249,-2,cs),
(288,179,ls),
(289,186,o),
(295,190,o),
(302,190,cs),
(450,190,ls),
(461,190,o),
(468,181,o),
(466,170,cs)
);
}
);
width = 840;
}
);
note = numbersign;
unicode = 35;
},
{
glyphname = dollar;
lastChange = "2022-10-19 10:21:33 +0000";
layers = (
{
layerId = m01;
shapes = (
{
closed = 1;
nodes = (
(252,-97,l),
(336,-97,l),
(336,-15,l),
(472,0,o),
(542,97,o),
(542,191,cs),
(542,331,o),
(434,366,o),
(336,391,c),
(336,613,l),
(381,596,o),
(404,557,o),
(407,517,c),
(534,517,l),
(528,623,o),
(454,698,o),
(336,713,c),
(336,798,l),
(252,798,l),
(252,714,l),
(126,701,o),
(45,621,o),
(45,512,cs),
(45,373,o),
(154,338,o),
(252,312,c),
(252,83,l),
(198,98,o),
(174,141,o),
(172,191,c),
(46,191,l),
(43,78,o),
(129,2,o),
(252,-14,c)
);
},
{
closed = 1;
nodes = (
(421,133,o),
(392,93,o),
(336,81,c),
(336,288,l),
(387,271,o),
(421,245,o),
(421,186,cs)
);
},
{
closed = 1;
nodes = (
(168,578,o),
(200,609,o),
(252,618,c),
(252,415,l),
(202,433,o),
(168,458,o),
(168,517,cs)
);
}
);
width = 622;
}
);
note = dollar;
unicode = 36;
},
{
glyphname = percent;
lastChange = "2022-10-19 10:25:18 +0000";
layers = (
{
layerId = m01;
shapes = (
{
closed = 1;
nodes = (
(27,461,o),
(96,400,o),
(188,400,cs),
(281,400,o),
(349,461,o),
(349,560,cs),
(349,658,o),
(281,719,o),
(188,719,cs),
(96,719,o),
(27,658,o),
(27,560,cs)
);
},
{
closed = 1;
nodes = (
(224,643,o),
(247,620,o),
(247,560,cs),
(247,501,o),
(224,476,o),
(188,476,cs),
(152,476,o),
(130,500,o),
(130,560,cs),
(130,620,o),
(152,643,o),
(188,643,cs)
);
},
{
closed = 1;
nodes = (
(120,9,ls),
(115,0,o),
(121,-10,o),
(131,-10,cs),
(226,-10,ls),
(229,-10,o),
(233,-8,o),
(234,-6,cs),
(637,689,ls),
(642,698,o),
(636,708,o),
(626,708,cs),
(531,708,ls),
(528,708,o),
(524,706,o),
(523,704,cs)
);
},
{
closed = 1;
nodes = (
(410,40,o),
(478,-22,o),
(571,-22,cs),
(663,-22,o),
(731,40,o),
(731,138,cs),
(731,237,o),
(663,298,o),
(571,298,cs),
(478,298,o),
(410,237,o),
(410,138,cs)
);
},
{
closed = 1;
nodes = (
(606,221,o),
(629,198,o),
(629,138,cs),
(629,79,o),
(606,56,o),
(570,56,cs),
(534,56,o),
(511,79,o),
(511,138,cs),
(511,198,o),
(534,221,o),
(570,221,cs)
);
}
);
width = 759;
}
);
note = percent;
unicode = 37;
},
{
glyphname = ampersand;
lastChange = "2022-10-19 10:25:43 +0000";
layers = (
{
layerId = m01;
shapes = (
{
closed = 1;
nodes = (
(491,538,ls),
(496,538,o),
(500,542,o),
(501,547,cs),
(507,645,o),
(434,721,o),
(314,721,cs),
(192,721,o),
(115,650,o),
(115,556,cs),
(115,507,o),
(130,468,o),
(170,419,c),
(64,373,o),
(11,295,o),
(11,200,cs),
(11,66,o),
(116,-22,o),
(270,-22,cs),
(367,-22,o),
(445,11,o),
(510,74,c),
(591,-8,ls),
(592,-9,o),
(594,-10,o),
(596,-10,cs),
(713,-10,ls),
(727,-10,o),
(733,5,o),
(723,15,cs),
(580,158,l),
(593,177,o),
(605,196,o),
(616,215,cs),
(696,353,ls),
(701,362,o),
(695,372,o),
(685,372,cs),
(582,372,ls),
(579,372,o),
(575,370,o),
(574,368,cs),
(506,253,ls),
(503,248,o),
(501,244,o),
(498,240,c),
(304,436,ls),
(257,485,o),
(236,517,o),
(236,556,cs),
(236,599,o),
(264,626,o),
(310,626,cs),
(352,626,o),
(382,602,o),
(380,550,cs),
(380,543,o),
(384,538,o),
(390,538,cs)
);
},
{
closed = 1;
nodes = (
(186,76,o),
(132,128,o),
(132,203,cs),
(132,268,o),
(166,314,o),
(241,345,c),
(433,152,l),
(383,99,o),
(335,76,o),
(270,76,cs)
);
}
);
width = 739;
}
);
note = ampersand;
unicode = 38;
},
{
glyphname = quotesingle;
lastChange = "2022-10-19 10:25:54 +0000";
layers = (
{
layerId = m01;
shapes = (
{
closed = 1;
nodes = (
(33,596,ls),
(33,590,o),
(38,587,o),
(43,587,cs),
(116,587,ls),
(121,587,o),
(126,591,o),
(126,596,cs),
(138,795,ls),
(138,802,o),
(134,806,o),
(128,806,cs),
(30,806,ls),
(24,806,o),
(20,802,o),
(20,795,cs)
);
}
);
width = 159;
}
);
note = quotesingle;
unicode = 39;
},
{
glyphname = parenleft;
lastChange = "2022-10-19 10:26:05 +0000";
layers = (
{
layerId = m01;
shapes = (
{
closed = 1;
nodes = (
(443,-196,ls),
(449,-196,o),
(453,-191,o),
(453,-186,cs),
(453,-184,o),
(452,-182,o),
(451,-181,cs),
(313,-41,o),
(211,163,o),
(211,366,cs),
(211,570,o),
(299,792,o),
(451,934,cs),
(453,935,o),
(454,938,o),
(454,940,cs),
(454,940,ls),
(454,942,o),
(450,944,o),
(444,944,cs),
(322,944,ls),
(320,944,o),
(318,943,o),
(317,942,cs),
(166,804,o),
(93,591,o),
(93,366,cs),
(93,143,o),
(166,-62,o),
(301,-194,cs),
(302,-195,o),
(304,-196,o),
(306,-196,cs)
);
}
);
width = 454;
}
);
note = parenleft;
unicode = 40;
},
{
glyphname = parenright;
lastChange = "2022-10-19 10:26:11 +0000";
layers = (
{
layerId = m01;
shapes = (
{
closed = 1;
nodes = (
(292,-62,o),
(365,143,o),
(365,366,cs),
(365,591,o),
(292,804,o),
(141,942,cs),
(140,943,o),
(138,944,o),
(136,944,cs),
(14,944,ls),
(8,944,o),
(4,942,o),
(4,940,cs),
(4,938,o),
(5,935,o),
(7,934,cs),
(159,792,o),
(247,570,o),
(247,366,cs),
(247,163,o),
(145,-41,o),
(7,-181,cs),
(6,-182,o),
(5,-184,o),
(5,-186,cs),
(5,-190,ls),
(5,-193,o),
(9,-196,o),
(15,-196,cs),
(152,-196,ls),
(154,-196,o),
(156,-195,o),
(157,-194,cs)
);
}
);
width = 454;
}
);
note = parenright;
unicode = 41;
},
{
glyphname = asterisk;
lastChange = "2022-10-19 10:26:44 +0000";
layers = (
{
layerId = m01;
shapes = (
{
closed = 1;
nodes = (
(297,738,ls),
(297,742,o),
(295,744,o),
(292,744,cs),
(196,744,ls),
(193,744,o),
(191,742,o),
(191,738,cs),
(202,624,ls),
(203,618,o),
(196,614,o),
(191,618,cs),
(97,686,ls),
(95,688,o),
(90,687,o),
(89,684,cs),
(46,605,ls),
(45,602,o),
(46,599,o),
(49,598,cs),
(156,555,ls),
(162,552,o),
(162,544,o),
(156,541,cs),
(49,496,ls),
(46,495,o),
(45,492,o),
(46,489,cs),
(92,409,ls),
(93,406,o),
(98,406,o),
(100,408,cs),
(190,474,ls),
(195,478,o),
(202,474,o),
(201,468,cs),
(191,356,ls),
(191,352,o),
(193,350,o),
(196,350,cs),
(291,350,ls),
(294,350,o),
(296,352,o),
(296,356,cs),
(285,467,ls),
(284,473,o),
(291,478,o),
(296,474,cs),
(386,408,ls),
(388,406,o),
(393,407,o),
(394,410,cs),
(439,489,ls),
(441,492,o),
(439,495,o),
(436,496,cs),
(328,540,ls),
(322,543,o),
(322,551,o),
(328,554,cs),
(436,599,ls),
(439,600,o),
(439,603,o),
(438,606,cs),
(396,683,ls),
(395,686,o),
(390,687,o),
(388,685,cs),
(296,619,ls),
(291,615,o),
(284,619,o),
(285,625,cs)
);
}
);
width = 486;
}
);
note = asterisk;
unicode = 42;
},
{
glyphname = plus;
lastChange = "2022-10-19 10:27:01 +0000";
layers = (
{
layerId = m01;
shapes = (
{
closed = 1;
nodes = (
(289,631,ls),
(286,631,o),
(284,629,o),
(284,626,cs),
(284,424,ls),
(284,418,o),
(280,414,o),
(274,414,cs),
(77,414,ls),
(74,414,o),
(72,412,o),
(72,409,cs),
(72,322,ls),
(72,319,o),
(74,317,o),
(77,317,cs),
(274,317,ls),
(280,317,o),
(284,313,o),
(284,307,cs),
(284,106,ls),
(284,103,o),
(286,101,o),
(289,101,cs),
(394,101,ls),
(397,101,o),
(399,103,o),
(399,106,cs),
(399,307,ls),
(399,313,o),
(403,317,o),
(409,317,cs),
(607,317,ls),
(610,317,o),
(612,319,o),
(612,322,cs),
(612,409,ls),
(612,412,o),
(610,414,o),
(607,414,cs),
(409,414,ls),
(403,414,o),
(399,418,o),
(399,424,cs),
(399,626,ls),
(399,629,o),
(397,631,o),
(394,631,cs)
);
}
);
width = 683;
}
);
note = plus;
unicode = 43;
},
{
glyphname = comma;
lastChange = "2022-10-19 10:27:09 +0000";
layers = (
{
layerId = m01;
shapes = (
{
closed = 1;
nodes = (
(-16,-139,ls),
(-18,-146,o),
(-13,-153,o),
(-5,-153,cs),
(64,-153,ls),
(67,-153,o),
(71,-151,o),
(72,-147,cs),
(184,120,ls),
(187,128,o),
(182,136,o),
(173,136,cs),
(66,136,ls),
(62,136,o),
(58,134,o),
(57,129,cs)
);
}
);
width = 198;
}
);
note = comma;
unicode = 44;
},
{
glyphname = hyphen;
lastChange = "2022-10-19 10:27:17 +0000";
layers = (
{
layerId = m01;
shapes = (
{
closed = 1;
nodes = (
(43,281,ls),
(43,275,o),
(47,271,o),
(53,271,cs),
(462,271,ls),
(468,271,o),
(472,275,o),
(472,281,cs),
(472,358,ls),
(472,364,o),
(468,368,o),
(462,368,cs),
(53,368,ls),
(47,368,o),
(43,364,o),
(43,358,cs)
);
}
);
width = 551;
}
);
note = hyphen;
unicode = 45;
},
{
glyphname = period;
lastChange = "2022-10-19 10:23:24 +0000";
layers = (
{
layerId = m01;
shapes = (
{
closed = 1;
nodes = (
(181,96,o),
(149,128,o),
(106,128,cs),
(62,128,o),
(29,95,o),
(29,56,cs),
(29,17,o),
(62,-16,o),
(106,-16,cs),
(149,-16,o),
(181,16,o),
(181,56,cs)
);
}
);
width = 210;
}
);
note = period;
unicode = 46;
},
{
glyphname = slash;
lastChange = "2022-10-19 10:27:27 +0000";
layers = (
{
layerId = m01;
shapes = (
{
closed = 1;
nodes = (
(38,-166,ls),
(36,-174,o),
(42,-180,o),
(49,-180,cs),
(149,-180,ls),
(153,-180,o),
(157,-178,o),
(158,-173,cs),
(432,938,ls),
(434,946,o),
(428,952,o),
(421,952,cs),
(320,952,ls),
(316,952,o),
(312,950,o),
(311,945,cs)
);
}
);
width = 476;
}
);
note = slash;
unicode = 47;
},
{
glyphname = zero;
lastChange = "2022-10-14 09:51:59 +0000";
layers = (
{
layerId = m01;
shapes = (
{
closed = 1;
nodes = (
(47,157,o),
(101,-10,o),
(314,-10,cs),
(526,-10,o),
(580,157,o),
(580,369,cs),
(580,578,o),
(526,744,o),
(314,744,cs),
(101,744,o),
(47,578,o),
(47,369,cs)
);
},
{
closed = 1;
nodes = (
(460,213,o),
(442,93,o),
(314,93,cs),
(185,93,o),
(167,213,o),
(167,369,cs),
(167,519,o),
(185,641,o),
(314,641,cs),
(442,641,o),
(460,519,o),
(460,369,cs)
);
}
);
width = 628;
}
);
note = zero;
unicode = 48;
},
{
glyphname = one;
lastChange = "2022-10-14 09:51:59 +0000";
layers = (
{
layerId = m01;
shapes = (
{
closed = 1;
nodes = (
(119,-10,l),
(241,-10,l),
(241,688,ls),
(241,714,o),
(222,733,o),
(191,733,cs),
(61,733,l),
(18,630,l),
(99,630,ls),
(113,630,o),
(119,624,o),
(119,605,cs)
);
}
);
width = 320;
}
);
note = one;
unicode = 49;
},
{
glyphname = two;
lastChange = "2022-10-14 09:51:59 +0000";
layers = (
{
layerId = m01;
shapes = (
{
closed = 1;
nodes = (
(36,18,ls),
(36,5,o),
(48,-2,o),
(61,-2,cs),
(522,-2,ls),
(535,-2,o),
(547,5,o),
(547,18,cs),
(547,49,ls),
(547,75,o),
(528,94,o),
(497,94,cs),
(207,94,ls),
(210,94,o),
(212,88,o),
(213,88,c),
(344,195,o),
(526,346,o),
(526,522,cs),
(526,661,o),
(432,746,o),
(287,746,cs),
(151,746,o),
(49,665,o),
(40,512,cs),
(39,499,o),
(51,492,o),
(64,492,cs),
(109,492,ls),
(139,492,o),
(156,508,o),
(161,533,cs),
(174,605,o),
(214,648,o),
(288,648,cs),
(376,648,o),
(406,596,o),
(406,518,cs),
(406,375,o),
(232,234,o),
(45,84,c),
(40,78,o),
(36,73,o),
(36,65,cs)
);
}
);
width = 575;
}
);
note = two;
unicode = 50;
},
{
glyphname = three;
lastChange = "2022-10-14 09:51:59 +0000";
layers = (
{
layerId = m01;
shapes = (
{
closed = 1;
nodes = (
(118,531,ls),
(148,531,o),
(163,546,o),
(170,569,cs),
(188,620,o),
(228,649,o),
(294,649,cs),
(373,649,o),
(412,608,o),
(412,542,cs),
(412,462,o),
(357,431,o),
(241,430,cs),
(219,430,o),
(202,417,o),
(202,385,cs),
(202,379,ls),
(202,348,o),
(218,334,o),
(240,334,cs),
(365,334,o),
(426,301,o),
(426,203,cs),
(426,131,o),
(386,82,o),
(298,82,cs),
(222,82,o),
(176,120,o),
(157,180,cs),
(151,202,o),
(135,218,o),
(105,218,cs),
(60,218,ls),
(46,218,o),
(33,210,o),
(35,196,cs),
(51,58,o),
(159,-15,o),
(299,-15,cs),
(459,-15,o),
(543,78,o),
(543,195,cs),
(543,303,o),
(482,369,o),
(402,388,c),
(402,384,ls),
(402,385,o),
(403,378,o),
(422,386,cs),
(490,415,o),
(530,477,o),
(530,551,cs),
(530,660,o),
(447,747,o),
(297,747,cs),
(160,747,o),
(60,675,o),
(46,553,cs),
(44,539,o),
(57,531,o),
(71,531,cs)
);
}
);
width = 589;
}
);
note = three;
unicode = 51;
},
{
glyphname = four;
lastChange = "2022-10-14 09:51:59 +0000";
layers = (
{
layerId = m01;
shapes = (
{
closed = 1;
nodes = (
(395,10,ls),
(395,-3,o),
(407,-10,o),
(420,-10,cs),
(490,-10,ls),
(503,-10,o),
(515,-3,o),
(515,10,cs),
(515,151,ls),
(515,154,o),
(512,151,o),
(510,151,cs),
(590,151,ls),
(603,151,o),
(615,158,o),
(615,171,cs),
(615,230,ls),
(615,243,o),
(603,250,o),
(590,250,cs),
(535,250,ls),
(521,250,o),
(515,256,o),
(515,275,cs),
(515,706,ls),
(515,719,o),
(503,726,o),
(490,726,cs),
(399,726,ls),
(390,726,o),
(378,723,o),
(374,714,c),
(32,242,ls),
(27,235,o),
(25,231,o),
(25,223,cs),
(25,171,ls),
(25,158,o),
(37,151,o),
(50,151,cs),
(400,151,ls),
(398,151,o),
(395,154,o),
(395,151,cs)
);
},
{
closed = 1;
nodes = (
(160,250,ls),
(163,250,o),
(165,245,o),
(166,246,cs),
(414,598,l),
(414,597,o),
(399,604,o),
(399,600,cs),
(399,250,ls),
(399,247,o),
(402,250,o),
(404,250,cs)
);
}
);
width = 629;
}
);
note = four;
unicode = 52;
},
{
glyphname = five;
lastChange = "2022-10-14 09:51:59 +0000";
layers = (
{
layerId = m01;
shapes = (
{
closed = 1;
nodes = (
(98,734,ls),
(85,734,o),
(73,727,o),
(73,714,cs),
(73,326,ls),
(73,313,o),
(85,306,o),
(98,306,cs),
(166,306,ls),
(174,306,o),
(188,310,o),
(191,322,c),
(217,372,o),
(261,401,o),
(324,401,cs),
(421,401,o),
(467,349,o),
(467,248,cs),
(467,151,o),
(423,85,o),
(323,85,cs),
(248,85,o),
(199,121,o),
(179,188,c),
(177,201,o),
(163,206,o),
(153,206,cs),
(84,206,ls),
(69,206,o),
(58,199,o),
(60,183,cs),
(82,69,o),
(174,-12,o),
(322,-12,cs),
(501,-12,o),
(584,106,o),
(584,250,cs),
(584,364,o),
(525,499,o),
(337,499,cs),
(269,499,o),
(207,472,o),
(173,437,c),
(173,436,o),
(187,431,o),
(187,434,cs),
(187,634,ls),
(187,637,o),
(184,634,o),
(182,634,cs),
(488,634,ls),
(519,634,o),
(538,653,o),
(538,679,cs),
(538,734,l)
);
}
);
width = 628;
}
);
note = five;
unicode = 53;
},
{
glyphname = six;
lastChange = "2022-10-14 09:51:59 +0000";
layers = (
{
layerId = m01;
shapes = (
{
closed = 1;
nodes = (
(538,541,ls),
(552,541,o),
(565,549,o),
(563,564,cs),
(546,662,o),
(471,748,o),
(329,748,cs),
(135,748,o),
(58,602,o),
(58,371,cs),
(58,150,o),
(111,-12,o),
(338,-12,cs),
(506,-12,o),
(589,102,o),
(589,238,cs),
(589,395,o),
(492,489,o),
(348,489,cs),
(277,489,o),
(210,463,o),
(168,417,c),
(175,592,o),
(230,652,o),
(328,652,cs),
(392,652,o),
(424,628,o),
(443,578,cs),
(451,556,o),
(468,541,o),
(496,541,cs)
);
},
{
closed = 1;
nodes = (
(424,392,o),
(471,335,o),
(471,235,cs),
(471,140,o),
(419,84,o),
(333,84,cs),
(228,84,o),
(178,151,o),
(178,245,cs),
(178,349,o),
(251,392,o),
(329,392,cs)
);
}
);
width = 635;
}
);
note = six;
unicode = 54;
},
{
glyphname = seven;
lastChange = "2022-10-14 09:51:59 +0000";
layers = (
{
layerId = m01;
shapes = (
{
closed = 1;
nodes = (
(43,731,ls),
(30,731,o),
(18,724,o),
(18,711,cs),
(18,678,ls),
(18,652,o),
(37,633,o),
(68,633,cs),
(374,633,ls),
(391,633,o),
(396,626,o),
(387,606,cs),
(128,16,ls),
(120,-3,o),
(137,-10,o),
(150,-10,cs),
(221,-10,ls),
(229,-10,o),
(242,-6,o),
(246,4,cs),
(512,627,ls),
(519,644,o),
(522,657,o),
(522,674,cs),
(522,687,ls),
(522,714,o),
(503,731,o),
(472,731,cs)
);
}
);
width = 546;
}
);
note = seven;
unicode = 55;
},
{
glyphname = eight;
lastChange = "2022-10-14 09:51:59 +0000";
layers = (
{
layerId = m01;
shapes = (
{
closed = 1;
nodes = (
(91,346,o),
(45,281,o),
(45,195,cs),
(45,59,o),
(154,-30,o),
(315,-30,cs),
(476,-30,o),
(587,59,o),
(587,195,cs),
(587,280,o),
(541,345,o),
(465,377,c),
(530,410,o),
(568,469,o),
(568,542,cs),
(568,652,o),
(480,744,o),
(315,744,cs),
(150,744,o),
(63,653,o),
(63,542,cs),
(63,466,o),
(99,410,o),
(165,377,c)
);
},
{
closed = 1;
nodes = (
(234,416,o),
(181,458,o),
(181,530,cs),
(181,611,o),
(232,648,o),
(315,648,cs),
(400,648,o),
(450,610,o),
(450,531,cs),
(450,459,o),
(397,416,o),
(315,416,cs)
);
},
{
closed = 1;
nodes = (
(404,326,o),
(467,287,o),
(467,198,cs),
(467,117,o),
(411,66,o),
(315,66,cs),
(219,66,o),
(162,116,o),
(162,198,cs),
(162,290,o),
(227,326,o),
(315,326,cs)
);
}
);
width = 631;
}
);
note = eight;
unicode = 56;
},
{
glyphname = nine;
lastChange = "2022-10-14 09:51:59 +0000";
layers = (
{
layerId = m01;
shapes = (
{
closed = 1;
nodes = (
(106,204,ls),
(92,204,o),
(79,196,o),
(81,182,cs),
(95,78,o),
(170,-11,o),
(319,-11,cs),
(521,-11,o),
(579,131,o),
(579,375,cs),
(579,602,o),
(519,747,o),
(311,747,cs),
(146,747,o),
(58,642,o),
(58,499,cs),
(58,341,o),
(163,253,o),
(305,253,cs),
(369,253,o),
(430,275,o),
(469,314,c),
(464,140,o),
(414,85,o),
(324,85,cs),
(258,85,o),
(220,112,o),
(201,167,cs),
(194,189,o),
(177,204,o),
(148,204,cs)
);
},
{
closed = 1;
nodes = (
(221,350,o),
(175,410,o),
(175,501,cs),
(175,595,o),
(227,651,o),
(313,651,cs),
(408,651,o),
(458,590,o),
(458,494,cs),
(458,400,o),
(400,350,o),
(320,350,cs)
);
}
);
width = 630;
}
);
note = nine;
unicode = 57;
},
{
glyphname = colon;
layers = (
{
layerId = m01;
shapes = (
{
closed = 1;
nodes = (
(166,91,o),
(139,118,o),
(106,118,cs),
(71,118,o),
(44,91,o),
(44,56,cs),
(44,21,o),
(71,-6,o),
(106,-6,cs),
(139,-6,o),
(166,21,o),
(166,56,cs)
);
},
{
closed = 1;
nodes = (
(166,519,o),
(139,546,o),
(106,546,cs),
(71,546,o),
(44,519,o),
(44,484,cs),
(44,449,o),
(71,422,o),
(106,422,cs),
(139,422,o),
(166,449,o),
(166,484,cs)
);
}
);
width = 213;
}
);
note = colon;
unicode = 58;
},
{
glyphname = semicolon;
layers = (
{
layerId = m01;
shapes = (
{
closed = 1;
nodes = (
(190,520,o),
(163,547,o),
(130,547,cs),
(95,547,o),
(68,520,o),
(68,485,cs),
(68,450,o),
(95,423,o),
(130,423,cs),
(163,423,o),
(190,450,o),
(190,485,cs)
);
},
{
closed = 1;
nodes = (
(23,-143,l),
(84,-143,l),
(196,126,l),
(96,126,l)
);
}
);
width = 264;
}
);
note = semicolon;
unicode = 59;
},
{
glyphname = less;
lastChange = "2022-10-19 10:24:07 +0000";
layers = (
{
layerId = m01;
shapes = (
{
closed = 1;
nodes = (
(224,358,ls),
(219,363,o),
(219,369,o),
(224,374,cs),
(442,580,ls),
(452,590,o),
(446,605,o),
(432,605,cs),
(321,605,ls),
(319,605,o),
(318,605,o),
(316,603,cs),
(74,374,ls),
(69,369,o),
(69,363,o),
(74,358,cs),
(316,128,ls),
(317,127,o),
(319,126,o),
(321,126,cs),
(431,126,ls),
(445,126,o),
(451,141,o),
(441,151,cs)
);
}
);
width = 555;
}
);
note = less;
unicode = 60;
},
{
glyphname = equal;
lastChange = "2022-10-19 10:24:14 +0000";
layers = (
{
layerId = m01;
shapes = (
{
closed = 1;
nodes = (
(86,220,ls),
(86,214,o),
(90,210,o),
(96,210,cs),
(626,210,ls),
(632,210,o),
(636,214,o),
(636,220,cs),
(636,297,ls),
(636,303,o),
(632,307,o),
(626,307,cs),
(96,307,ls),
(90,307,o),
(86,303,o),
(86,297,cs)
);
},
{
closed = 1;
nodes = (
(86,435,ls),
(86,429,o),
(90,425,o),
(96,425,cs),
(626,425,ls),
(632,425,o),
(636,429,o),
(636,435,cs),
(636,512,ls),
(636,518,o),
(632,522,o),
(626,522,cs),
(96,522,ls),
(90,522,o),
(86,518,o),
(86,512,cs)
);
}
);
width = 723;
}
);
note = equal;
unicode = 61;
},
{
glyphname = greater;
lastChange = "2022-10-19 10:24:20 +0000";
layers = (
{
layerId = m01;
shapes = (
{
closed = 1;
nodes = (
(66,141,o),
(72,126,o),
(86,126,cs),
(196,126,ls),
(198,126,o),
(200,127,o),
(201,128,cs),
(443,358,ls),
(448,363,o),
(448,369,o),
(443,374,cs),
(201,603,ls),
(199,605,o),
(198,605,o),
(196,605,cs),
(85,605,ls),
(71,605,o),
(65,590,o),
(75,580,cs),
(293,374,ls),
(298,369,o),
(298,363,o),
(293,358,cs),
(76,151,ls)
);
}
);
width = 539;
}
);
note = greater;
unicode = 62;
},
{
glyphname = question;
lastChange = "2022-10-19 10:17:32 +0000";
layers = (
{
layerId = m01;
shapes = (
{
closed = 1;
nodes = (
(113,495,ls),
(125,495,o),
(138,502,o),
(138,515,cs),
(142,584,o),
(185,620,o),
(256,620,cs),
(330,620,o),
(374,577,o),
(374,500,cs),
(374,386,o),
(290,367,o),
(178,367,cs),
(134,367,l),
(138,209,ls),
(138,197,o),
(151,189,o),
(163,189,cs),
(222,189,ls),
(234,189,o),
(247,197,o),
(247,209,cs),
(250,284,l),
(389,288,o),
(491,353,o),
(491,500,cs),
(491,632,o),
(395,716,o),
(255,716,cs),
(119,716,o),
(26,636,o),
(22,515,cs),
(22,502,o),
(34,495,o),
(47,495,cs)
);
},
{
closed = 1;
nodes = (
(267,96,o),
(235,128,o),
(192,128,cs),
(148,128,o),
(115,95,o),
(115,56,cs),
(115,17,o),
(148,-16,o),
(192,-16,cs),
(235,-16,o),
(267,16,o),
(267,56,cs)
);
}
);
width = 524;
}
);
note = question;
unicode = 63;
},
{
glyphname = at;
lastChange = "2022-10-19 10:20:39 +0000";
layers = (
{
layerId = m01;
shapes = (
{
closed = 1;
nodes = (
(875,-17,o),
(955,150,o),
(955,307,cs),
(955,509,o),
(812,651,o),
(577,651,cs),
(273,651,o),
(57,422,o),
(57,133,cs),
(57,-75,o),
(206,-209,o),
(431,-209,cs),
(503,-209,o),
(575,-196,o),
(636,-170,cs),
(640,-168,o),
(643,-164,o),
(642,-160,cs),
(636,-130,ls),
(631,-103,o),
(607,-93,o),
(582,-102,cs),
(539,-117,o),
(493,-124,o),
(449,-124,cs),
(268,-124,o),
(162,-34,o),
(163,141,cs),
(163,384,o),
(332,567,o),
(566,567,cs),
(750,567,o),
(851,473,o),
(851,302,cs),
(851,198,o),
(811,65,o),
(737,65,cs),
(699,65,o),
(693,93,o),
(702,148,cs),
(746,405,ls),
(750,429,o),
(734,449,o),
(709,449,cs),
(653,449,ls),
(648,449,o),
(645,445,o),
(644,441,cs),
(639,414,l),
(612,443,o),
(571,459,o),
(519,459,cs),
(362,459,o),
(258,318,o),
(258,165,cs),
(258,57,o),
(323,-17,o),
(436,-17,cs),
(500,-17,o),
(563,10,o),
(606,55,c),
(621,11,o),
(660,-17,o),
(723,-17,cs)
);
},
{
closed = 1;
nodes = (
(606,147,o),
(543,74,o),
(463,74,cs),
(402,74,o),
(373,113,o),
(373,179,cs),
(373,276,o),
(429,369,o),
(519,369,cs),
(587,369,o),
(618,319,o),
(612,248,cs)
);
}
);
width = 1013;
}
);
note = at;
unicode = 64;
},
{
glyphname = A;
lastChange = "2022-10-19 09:51:54 +0000";
layers = (
{
layerId = m01;
shapes = (
{
closed = 1;
nodes = (
(521,25,ls),
(529,3,o),
(548,-10,o),
(575,-10,cs),
(629,-10,ls),
(642,-10,o),
(656,-3,o),
(651,14,c),
(414,668,ls),
(406,690,o),
(387,703,o),
(360,703,cs),
(315,703,ls),
(288,703,o),
(269,690,o),
(261,668,cs),
(23,14,l),
(18,-3,o),
(32,-10,o),
(45,-10,cs),
(99,-10,ls),
(126,-10,o),
(145,3,o),
(153,25,cs),
(194,139,ls),
(195,142,o),
(199,145,o),
(203,145,cs),
(471,145,ls),
(475,145,o),
(479,142,o),
(480,139,cs)
);
},
{
closed = 1;
nodes = (
(441,247,ls),
(442,243,o),
(440,239,o),
(436,239,cs),
(238,239,ls),
(234,239,o),
(232,243,o),
(233,247,cs),
(330,520,ls),
(333,528,o),
(341,528,o),
(344,520,cs)
);
}
);
width = 674;
}
);
note = A;
unicode = 65;
},
{
glyphname = B;
lastChange = "2022-10-14 09:51:59 +0000";
layers = (
{
layerId = m01;
shapes = (
{
closed = 1;
nodes = (
(458,123,o),
(412,85,o),
(329,85,cs),
(183,85,l),
(183,286,ls),
(183,305,o),
(189,311,o),
(203,311,cs),
(326,311,ls),
(408,311,o),
(458,270,o),
(458,196,cs)
);
},
{
closed = 1;
nodes = (
(440,441,o),
(399,406,o),
(321,406,cs),
(183,406,l),
(183,587,ls),
(183,606,o),
(189,612,o),
(203,612,cs),
(319,612,ls),
(401,612,o),
(440,575,o),
(440,509,cs)
);
},
{
closed = 1;
nodes = (
(579,266,o),
(529,335,o),
(459,361,c),
(519,389,o),
(563,440,o),
(563,520,cs),
(563,622,o),
(482,707,o),
(327,707,cs),
(87,707,ls),
(74,707,o),
(62,700,o),
(62,687,cs),
(62,10,ls),
(62,-3,o),
(74,-10,o),
(87,-10,cs),
(337,-10,ls),
(489,-10,o),
(579,77,o),
(579,187,cs)
);
}
);
width = 613;
}
);
note = B;
unicode = 66;
},
{
glyphname = C;
lastChange = "2022-10-14 09:51:59 +0000";
layers = (
{
layerId = m01;
shapes = (
{
closed = 1;
nodes = (
(28,135,o),
(187,-16,o),
(391,-16,cs),
(544,-16,o),
(668,59,o),
(723,187,cs),
(731,206,o),
(714,213,o),
(701,213,cs),
(633,213,ls),
(607,213,o),
(590,201,o),
(579,183,cs),
(539,117,o),
(477,83,o),
(391,83,cs),
(253,83,o),
(151,182,o),
(151,349,cs),
(151,517,o),
(253,616,o),
(391,616,cs),
(477,616,o),
(539,582,o),
(579,515,cs),
(590,497,o),
(607,485,o),
(633,485,cs),
(701,485,ls),
(714,485,o),
(731,492,o),
(723,511,cs),
(668,640,o),
(544,716,o),
(391,716,cs),
(187,716,o),
(28,563,o),
(28,349,cs)
);
}
);
width = 772;
}
);
note = C;
unicode = 67;
},
{
glyphname = D;
lastChange = "2022-10-14 09:51:59 +0000";
layers = (
{
layerId = m01;
shapes = (
{
closed = 1;
nodes = (
(112,707,ls),
(81,707,o),
(62,688,o),
(62,662,cs),
(62,10,ls),
(62,-3,o),
(74,-10,o),
(87,-10,cs),
(294,-10,ls),
(532,-10,o),
(679,126,o),
(679,347,cs),
(679,568,o),
(532,707,o),
(294,707,cs)
);
},
{
closed = 1;
nodes = (
(178,85,ls),
(180,85,o),
(183,82,o),
(183,85,cs),
(183,588,ls),
(183,607,o),
(189,613,o),
(203,613,cs),
(294,613,ls),
(468,613,o),
(556,515,o),
(556,347,cs),
(556,179,o),
(468,85,o),
(294,85,cs)
);
}
);
width = 707;
}
);
note = D;
unicode = 68;
},
{
glyphname = E;
lastChange = "2022-10-19 09:53:41 +0000";
layers = (
{
layerId = m01;
shapes = (
{
closed = 1;
nodes = (
(467,698,ls),
(467,704,o),
(463,708,o),
(457,708,cs),
(87,708,ls),
(74,708,o),
(62,701,o),
(62,688,cs),
(62,10,ls),
(62,-3,o),
(74,-10,o),
(87,-10,cs),
(457,-10,ls),
(463,-10,o),
(467,-6,o),
(467,0,cs),
(467,40,ls),
(467,66,o),
(448,85,o),
(417,85,cs),
(193,85,ls),
(187,85,o),
(183,89,o),
(183,95,cs),
(183,295,ls),
(183,301,o),
(187,305,o),
(193,305,cs),
(427,305,ls),
(433,305,o),
(437,309,o),
(437,315,cs),
(437,390,ls),
(437,396,o),
(433,400,o),
(427,400,cs),
(193,400,ls),
(187,400,o),
(183,404,o),
(183,410,cs),
(183,603,ls),
(183,609,o),
(187,613,o),
(193,613,cs),
(417,613,ls),
(448,613,o),
(467,632,o),
(467,658,cs)
);
}
);
width = 513;
}
);
note = E;
unicode = 69;
},
{
glyphname = F;
lastChange = "2022-10-14 09:51:59 +0000";
layers = (
{
layerId = m01;
shapes = (
{
closed = 1;
nodes = (
(62,10,ls),
(62,-3,o),
(74,-10,o),
(87,-10,cs),
(158,-10,ls),
(171,-10,o),
(183,-3,o),
(183,10,cs),
(183,304,ls),
(183,307,o),
(180,304,o),
(178,304,cs),
(404,304,ls),
(417,304,o),
(429,311,o),
(429,324,cs),
(429,378,ls),
(429,391,o),
(417,398,o),
(404,398,cs),
(178,398,ls),
(180,398,o),
(183,395,o),
(183,398,cs),
(183,588,ls),
(183,607,o),
(189,613,o),
(203,613,cs),
(436,613,ls),
(467,613,o),
(486,632,o),
(486,658,cs),
(486,687,ls),
(486,700,o),
(474,707,o),
(461,707,cs),
(112,707,ls),
(81,707,o),
(62,688,o),
(62,662,cs)
);
}
);
width = 504;
}
);
note = F;
unicode = 70;
},
{
glyphname = G;
lastChange = "2022-10-14 09:51:59 +0000";
layers = (
{
layerId = m01;
shapes = (
{
closed = 1;
nodes = (
(188,715,o),
(28,563,o),
(28,349,cs),
(28,135,o),
(188,-16,o),
(393,-16,cs),
(590,-16,o),
(734,128,o),
(750,306,c),
(750,366,ls),
(750,379,o),
(738,386,o),
(725,386,cs),
(395,386,ls),
(364,386,o),
(345,367,o),
(345,341,cs),
(345,312,ls),
(345,299,o),
(357,292,o),
(370,292,cs),
(627,292,ls),
(626,292,o),
(623,295,o),
(622,292,c),
(604,162,o),
(519,86,o),
(393,86,cs),
(254,86,o),
(151,185,o),
(151,349,cs),
(151,514,o),
(254,613,o),
(393,613,cs),
(483,613,o),
(549,574,o),
(588,497,cs),
(593,488,o),
(605,485,o),
(613,485,cs),
(701,485,ls),
(714,485,o),
(731,492,o),
(723,511,cs),
(668,639,o),
(542,715,o),
(393,715,cs)
);
}
);
width = 778;
}
);
note = G;
unicode = 71;
},
{
glyphname = H;
lastChange = "2022-10-19 09:57:19 +0000";
layers = (
{
layerId = m01;
shapes = (
{
closed = 1;
nodes = (
(508,25,ls),
(508,1,o),
(527,-10,o),
(548,-10,cs),
(619,-10,ls),
(625,-10,o),
(629,-6,o),
(629,0,cs),
(629,697,ls),
(629,703,o),
(625,707,o),
(619,707,cs),
(518,707,ls),
(512,707,o),
(508,703,o),
(508,697,cs),
(508,416,ls),
(508,408,o),
(501,401,o),
(493,401,cs),
(193,401,ls),
(187,401,o),
(183,405,o),
(183,411,cs),
(183,672,ls),
(183,696,o),
(164,707,o),
(143,707,cs),
(72,707,ls),
(66,707,o),
(62,703,o),
(62,697,cs),
(62,0,ls),
(62,-6,o),
(66,-10,o),
(72,-10,cs),
(173,-10,ls),
(179,-10,o),
(183,-6,o),
(183,0,cs),
(183,291,ls),
(183,299,o),
(190,306,o),
(198,306,cs),
(498,306,ls),
(504,306,o),
(508,302,o),
(508,296,cs)
);
}
);
width = 691;
}
);
note = H;
unicode = 72;
},
{
glyphname = I;
lastChange = "2022-10-14 09:51:59 +0000";
layers = (
{
layerId = m01;
shapes = (
{
closed = 1;
nodes = (
(62,-10,l),
(183,-10,l),
(183,707,l),
(62,707,l)
);
}
);
width = 246;
}
);
note = I;
unicode = 73;
},
{
glyphname = J;
lastChange = "2022-10-19 09:58:18 +0000";
layers = (
{
layerId = m01;
shapes = (
{
closed = 1;
nodes = (
(321,182,ls),
(321,126,o),
(297,84,o),
(235,84,cs),
(184,84,o),
(159,111,o),
(150,158,cs),
(145,182,o),
(131,199,o),
(99,199,cs),
(51,199,ls),
(38,199,o),
(26,192,o),
(26,179,cs),
(30,58,o),
(113,-17,o),
(235,-17,cs),
(359,-17,o),
(443,61,o),
(443,182,cs),
(443,697,ls),
(443,703,o),
(439,707,o),
(433,707,cs),
(371,707,ls),
(340,707,o),
(321,688,o),
(321,662,cs)
);
}
);
width = 530;
}
);
note = J;
unicode = 74;
},
{
glyphname = K;
lastChange = "2022-10-19 09:58:46 +0000";
layers = (
{
layerId = m01;
shapes = (
{
closed = 1;
nodes = (
(437,0,l),
(441,-7,o),
(453,-10,o),
(462,-10,cs),
(557,-10,ls),
(569,-10,o),
(592,-2,o),
(574,19,cs),
(272,348,l),
(571,678,ls),
(590,697,o),
(567,707,o),
(554,707,cs),
(482,707,ls),
(459,707,o),
(441,698,o),
(428,685,cs),
(169,395,ls),
(168,394,o),
(183,389,o),
(183,392,cs),
(183,662,ls),
(183,688,o),
(164,707,o),
(133,707,cs),
(72,707,ls),
(66,707,o),
(62,703,o),
(62,697,cs),
(62,35,ls),
(62,9,o),
(81,-10,o),
(112,-10,cs),
(173,-10,ls),
(179,-10,o),
(183,-6,o),
(183,0,cs),
(183,300,ls),
(183,303,o),
(168,298,o),
(169,297,cs)
);
}
);
width = 599;
}
);
note = K;
unicode = 75;
},
{
glyphname = L;
lastChange = "2022-10-19 09:59:48 +0000";
layers = (
{
layerId = m01;
shapes = (
{
closed = 1;
nodes = (
(72,707,ls),
(66,707,o),
(62,703,o),
(62,697,cs),
(62,10,ls),
(62,-3,o),
(74,-10,o),
(87,-10,cs),
(417,-10,ls),
(423,-10,o),
(427,-6,o),
(427,0,cs),
(427,39,ls),
(427,65,o),
(408,84,o),
(377,84,cs),
(203,84,ls),
(189,84,o),
(183,90,o),
(183,109,cs),
(183,662,ls),
(183,688,o),
(164,707,o),
(133,707,cs)
);
}
);
width = 432;
}
);
note = L;
unicode = 76;
},
{
glyphname = M;
lastChange = "2022-10-19 10:00:46 +0000";
layers = (
{
layerId = m01;
shapes = (
{
closed = 1;
nodes = (
(62,0,ls),
(62,-6,o),
(66,-10,o),
(72,-10,cs),
(133,-10,ls),
(164,-10,o),
(183,9,o),
(183,35,cs),
(183,449,l),
(373,22,ls),
(382,0,o),
(403,-10,o),
(428,-10,cs),
(434,-10,ls),
(459,-10,o),
(480,0,o),
(489,22,cs),
(678,447,l),
(678,35,ls),
(678,9,o),
(697,-10,o),
(728,-10,cs),
(789,-10,ls),
(795,-10,o),
(799,-6,o),
(799,0,cs),
(799,692,ls),
(799,698,o),
(795,702,o),
(789,702,cs),
(716,702,ls),
(691,702,o),
(670,692,o),
(661,670,cs),
(441,177,ls),
(432,155,o),
(430,155,o),
(421,177,cs),
(201,670,ls),
(192,692,o),
(171,702,o),
(146,702,cs),
(72,702,ls),
(66,702,o),
(62,698,o),
(62,692,cs)
);
}
);
width = 861;
}
);
note = M;
unicode = 77;
},
{
glyphname = N;
lastChange = "2022-10-20 03:48:38 +0000";
layers = (
{
layerId = m01;
shapes = (
{
closed = 1;
nodes = (
(554,708,ls),
(532,708,o),
(519,695,o),
(519,673,cs),
(519,219,ls),
(519,211,o),
(509,206,o),
(504,214,cs),
(196,680,ls),
(185,698,o),
(166,708,o),
(141,708,cs),
(72,708,ls),
(66,708,o),
(62,704,o),
(62,698,cs),
(62,0,ls),
(62,-6,o),
(66,-10,o),
(72,-10,cs),
(148,-10,ls),
(170,-10,o),
(183,3,o),
(183,25,cs),
(183,480,ls),
(183,488,o),
(193,493,o),
(198,485,cs),
(506,18,ls),
(517,0,o),
(536,-10,o),
(561,-10,cs),
(630,-10,ls),
(636,-10,o),
(640,-6,o),
(640,0,cs),
(640,698,ls),
(640,704,o),
(636,708,o),
(630,708,cs)
);
}
);
width = 703;
}
);
note = N;
unicode = 78;
},
{
glyphname = O;
lastChange = "2022-10-14 09:51:59 +0000";
layers = (
{
layerId = m01;
shapes = (
{
closed = 1;
nodes = (
(758,563,o),
(599,715,o),
(393,715,cs),
(188,715,o),
(28,563,o),
(28,349,cs),
(28,135,o),
(188,-17,o),
(393,-17,cs),
(599,-17,o),
(758,135,o),
(758,349,cs)
);
},
{
closed = 1;
nodes = (
(151,517,o),
(254,616,o),
(393,616,cs),
(532,616,o),
(635,517,o),
(635,349,cs),
(635,182,o),
(532,82,o),
(393,82,cs),
(254,82,o),
(151,182,o),
(151,349,cs)
);
}
);
width = 786;
}
);
note = O;
unicode = 79;
},
{
glyphname = P;
lastChange = "2022-10-19 10:04:23 +0000";
layers = (
{
layerId = m01;
shapes = (
{
closed = 1;
nodes = (
(183,376,l),
(183,587,ls),
(183,606,o),
(189,612,o),
(203,612,cs),
(302,612,ls),
(398,612,o),
(435,572,o),
(435,493,cs),
(435,417,o),
(398,376,o),
(302,376,cs)
);
},
{
closed = 1;
nodes = (
(558,611,o),
(475,707,o),
(302,707,cs),
(112,707,ls),
(81,707,o),
(62,688,o),
(62,662,cs),
(62,0,ls),
(62,-6,o),
(66,-10,o),
(72,-10,cs),
(133,-10,ls),
(164,-10,o),
(183,9,o),
(183,35,cs),
(183,281,l),
(302,281,ls),
(485,281,o),
(558,383,o),
(558,493,cs)
);
}
);
width = 579;
}
);
note = P;
unicode = 80;
},
{
glyphname = Q;
lastChange = "2022-10-19 10:05:05 +0000";
layers = (
{
layerId = m01;
shapes = (
{
closed = 1;
nodes = (
(151,517,o),
(254,616,o),
(393,616,cs),
(532,616,o),
(635,517,o),
(635,349,cs),
(635,182,o),
(532,82,o),
(393,82,cs),
(254,82,o),
(151,182,o),
(151,349,cs)
);
},
{
closed = 1;
nodes = (
(758,563,o),
(599,715,o),
(393,715,cs),
(188,715,o),
(28,563,o),
(28,349,cs),
(28,135,o),
(188,-17,o),
(393,-17,cs),
(427,-17,o),
(462,-13,o),
(491,-5,c),
(492,-5,o),
(492,-6,o),
(492,-6,c),
(607,-121,ls),
(620,-134,o),
(638,-142,o),
(661,-142,cs),
(747,-142,ls),
(761,-142,o),
(767,-127,o),
(757,-117,cs),
(597,42,l),
(596,41,ls),
(699,108,o),
(758,219,o),
(758,349,cs)
);
}
);
width = 788;
}
);
note = Q;
unicode = 81;
},
{
glyphname = R;
lastChange = "2022-10-19 10:05:54 +0000";
layers = (
{
layerId = m01;
shapes = (
{
closed = 1;
nodes = (
(435,416,o),
(396,368,o),
(302,368,cs),
(178,368,ls),
(180,368,o),
(183,365,o),
(183,368,cs),
(183,587,ls),
(183,606,o),
(189,612,o),
(203,612,cs),
(302,612,ls),
(398,612,o),
(435,569,o),
(435,492,cs)
);
},
{
closed = 1;
nodes = (
(112,707,ls),
(81,707,o),
(62,688,o),
(62,662,cs),
(62,0,ls),
(62,-6,o),
(66,-10,o),
(72,-10,cs),
(173,-10,ls),
(179,-10,o),
(183,-6,o),
(183,0,cs),
(183,275,ls),
(183,278,o),
(180,275,o),
(178,275,cs),
(270,275,ls),
(269,275,o),
(267,277,o),
(268,274,c),
(417,19,ls),
(428,2,o),
(447,-10,o),
(472,-10,cs),
(553,-10,ls),
(563,-10,o),
(569,0,o),
(564,9,cs),
(397,287,ls),
(396,289,o),
(394,285,o),
(394,285,c),
(511,317,o),
(559,403,o),
(559,492,cs),
(559,610,o),
(475,707,o),
(302,707,cs)
);
}
);
width = 608;
}
);
note = R;
unicode = 82;
},
{
glyphname = S;
lastChange = "2022-10-19 10:07:12 +0000";
layers = (
{
layerId = m01;
shapes = (
{
closed = 1;
nodes = (
(545,463,o),
(169,351,o),
(169,516,cs),
(169,587,o),
(219,620,o),
(288,618,cs),
(349,617,o),
(384,588,o),
(401,552,cs),
(410,532,o),
(426,517,o),
(454,517,cs),
(528,517,ls),
(534,517,o),
(539,522,o),
(538,528,cs),
(526,638,o),
(433,716,o),
(292,716,cs),
(145,716,o),
(46,633,o),
(46,513,cs),
(46,238,o),
(423,358,o),
(423,186,cs),
(423,123,o),
(379,80,o),
(298,80,cs),
(225,80,o),
(190,113,o),
(175,158,cs),
(168,181,o),
(151,196,o),
(122,196,cs),
(52,196,ls),
(47,196,o),
(42,192,o),
(42,186,cs),
(44,64,o),
(151,-17,o),
(298,-17,cs),
(458,-17,o),
(545,87,o),
(545,190,cs)
);
}
);
width = 587;
}
);
note = S;
unicode = 83;
},
{
glyphname = T;
lastChange = "2022-10-19 10:08:08 +0000";
layers = (
{
layerId = m01;
shapes = (
{
closed = 1;
nodes = (
(19,623,ls),
(19,617,o),
(23,613,o),
(29,613,cs),
(190,613,ls),
(204,613,o),
(210,607,o),
(210,588,cs),
(210,0,ls),
(210,-6,o),
(214,-10,o),
(220,-10,cs),
(321,-10,ls),
(327,-10,o),
(331,-6,o),
(331,0,cs),
(331,588,ls),
(331,607,o),
(337,613,o),
(351,613,cs),
(511,613,ls),
(517,613,o),
(521,617,o),
(521,623,cs),
(521,697,ls),
(521,703,o),
(517,707,o),
(511,707,cs),
(29,707,ls),
(23,707,o),
(19,703,o),
(19,697,cs)
);
}
);
width = 541;
}
);
note = T;
unicode = 84;
},
{
glyphname = U;
lastChange = "2022-10-19 10:09:06 +0000";
layers = (
{
layerId = m01;
shapes = (
{
closed = 1;
nodes = (
(60,257,ls),
(60,70,o),
(185,-17,o),
(337,-17,cs),
(489,-17,o),
(615,70,o),
(615,257,cs),
(615,697,ls),
(615,703,o),
(611,707,o),
(605,707,cs),
(544,707,ls),
(513,707,o),
(494,688,o),
(494,662,cs),
(494,256,ls),
(494,131,o),
(434,83,o),
(338,83,cs),
(242,83,o),
(181,131,o),
(181,256,cs),
(181,662,ls),
(181,688,o),
(162,707,o),
(131,707,cs),
(70,707,ls),
(64,707,o),
(60,703,o),
(60,697,cs)
);
}
);
width = 675;
}
);
note = U;
unicode = 85;
},
{
glyphname = V;
lastChange = "2022-10-19 10:10:36 +0000";
layers = (
{
layerId = m01;
shapes = (
{
closed = 1;
nodes = (
(352,177,ls),
(347,163,o),
(329,163,o),
(324,177,cs),
(139,686,ls),
(134,700,o),
(122,707,o),
(108,707,cs),
(20,707,ls),
(12,707,o),
(6,700,o),
(9,691,cs),
(261,24,ls),
(269,3,o),
(288,-10,o),
(315,-10,cs),
(360,-10,ls),
(387,-10,o),
(406,3,o),
(414,24,cs),
(666,691,ls),
(669,700,o),
(663,707,o),
(655,707,cs),
(568,707,ls),
(554,707,o),
(542,700,o),
(537,686,cs)
);
}
);
width = 676;
}
);
note = V;
unicode = 86;
},
{
glyphname = W;
lastChange = "2022-10-19 10:13:42 +0000";
layers = (
{
layerId = m01;
shapes = (
{
closed = 1;
nodes = (
(196,26,ls),
(202,2,o),
(222,-11,o),
(249,-11,cs),
(289,-10,ls),
(317,-10,o),
(336,5,o),
(342,26,cs),
(479,484,ls),
(481,492,o),
(493,492,o),
(495,484,cs),
(626,26,ls),
(633,3,o),
(653,-10,o),
(680,-10,cs),
(720,-10,ls),
(747,-10,o),
(767,3,o),
(774,26,cs),
(967,693,ls),
(969,700,o),
(964,707,o),
(956,707,cs),
(868,707,ls),
(853,707,o),
(840,698,o),
(836,682,cs),
(710,197,ls),
(708,189,o),
(695,189,o),
(693,197,cs),
(565,670,ls),
(559,692,o),
(538,707,o),
(511,707,cs),
(471,707,ls),
(443,707,o),
(424,692,o),
(418,670,cs),
(282,191,ls),
(280,182,o),
(267,183,o),
(265,191,cs),
(139,682,ls),
(135,698,o),
(122,707,o),
(107,707,cs),
(20,707,ls),
(12,707,o),
(7,700,o),
(9,693,cs)
);
}
);
width = 976;
}
);
note = W;
unicode = 87;
},
{
glyphname = X;
lastChange = "2022-10-14 09:51:59 +0000";
layers = (
{
layerId = m01;
shapes = (
{
closed = 1;
nodes = (
(455,3,l),
(461,-5,o),
(471,-10,o),
(481,-10,cs),
(562,-10,ls),
(575,-10,o),
(594,-3,o),
(582,17,cs),
(390,329,ls),
(382,342,o),
(382,354,o),
(390,367,cs),
(583,680,ls),
(595,700,o),
(576,707,o),
(563,707,cs),
(483,707,ls),
(473,707,o),
(463,702,o),
(457,694,c),
(326,470,ls),
(315,452,o),
(314,451,o),
(303,469,cs),
(165,694,l),
(159,702,o),
(149,707,o),
(139,707,cs),
(59,707,ls),
(46,707,o),
(27,700,o),
(39,680,cs),
(231,367,ls),
(239,354,o),
(239,342,o),
(231,329,cs),
(40,17,ls),
(28,-3,o),
(47,-10,o),
(60,-10,cs),
(139,-10,ls),
(149,-10,o),
(159,-5,o),
(165,3,c),
(295,226,ls),
(306,244,o),
(307,245,o),
(318,227,cs)
);
}
);
width = 621;
}
);
note = X;
unicode = 88;
},
{
glyphname = Y;
lastChange = "2022-10-19 10:15:20 +0000";
layers = (
{
layerId = m01;
shapes = (
{
closed = 1;
nodes = (
(223,278,ls),
(229,267,o),
(232,255,o),
(232,240,cs),
(232,10,ls),
(232,-3,o),
(244,-10,o),
(257,-10,cs),
(328,-10,ls),
(341,-10,o),
(353,-3,o),
(353,10,cs),
(353,240,ls),
(353,255,o),
(356,267,o),
(362,278,cs),
(573,681,l),
(580,698,o),
(568,707,o),
(552,707,cs),
(472,707,ls),
(462,707,o),
(449,702,o),
(446,694,c),
(304,399,ls),
(299,388,o),
(285,388,o),
(280,399,cs),
(138,694,l),
(135,702,o),
(122,707,o),
(112,707,cs),
(32,707,ls),
(16,707,o),
(4,698,o),
(11,681,c)
);
}
);
width = 584;
}
);
note = Y;
unicode = 89;
},
{
glyphname = Z;
lastChange = "2022-10-20 04:21:06 +0000";
layers = (
{
layerId = m01;
shapes = (
{
closed = 1;
nodes = (
(507,687,ls),
(507,700,o),
(495,707,o),
(482,707,cs),
(45,707,ls),
(39,707,o),
(35,703,o),
(35,697,cs),
(35,653,ls),
(35,627,o),
(54,608,o),
(85,608,cs),
(362,608,l),
(36,81,ls),
(34,77,o),
(31,70,o),
(31,65,cs),
(31,10,ls),
(31,-3,o),
(43,-10,o),
(56,-10,cs),
(499,-10,ls),
(505,-10,o),
(509,-6,o),
(509,0,cs),
(509,44,ls),
(509,70,o),
(490,89,o),
(459,89,cs),
(176,89,l),
(502,616,ls),
(504,620,o),
(507,627,o),
(507,632,cs)
);
}
);
width = 541;
}
);
note = Z;
unicode = 90;
},
{
glyphname = bracketleft;
lastChange = "2022-10-19 10:29:45 +0000";
layers = (
{
layerId = m01;
shapes = (
{
closed = 1;
nodes = (
(118,-186,ls),
(118,-192,o),
(122,-196,o),
(128,-196,cs),
(318,-196,ls),
(324,-196,o),
(328,-192,o),
(328,-186,cs),
(328,-110,ls),
(328,-104,o),
(324,-100,o),
(318,-100,cs),
(268,-100,ls),
(246,-100,o),
(233,-87,o),
(233,-65,cs),
(233,814,ls),
(233,836,o),
(246,849,o),
(268,849,cs),
(318,849,ls),
(324,849,o),
(328,853,o),
(328,859,cs),
(328,934,ls),
(328,940,o),
(324,944,o),
(318,944,cs),
(128,944,ls),
(122,944,o),
(118,940,o),
(118,934,cs)
);
}
);
width = 423;
}
);
note = bracketleft;
unicode = 91;
},
{
glyphname = backslash;
layers = (
{
layerId = m01;
shapes = (
{
closed = 1;
nodes = (
(221,942,l),
(131,942,l),
(444,-170,l),
(534,-170,l)
);
}
);
width = 658;
}
);
note = backslash;
unicode = 92;
},
{
glyphname = bracketright;
lastChange = "2022-10-19 10:29:50 +0000";
layers = (
{
layerId = m01;
shapes = (
{
closed = 1;
nodes = (
(328,940,o),
(324,944,o),
(318,944,cs),
(128,944,ls),
(122,944,o),
(118,940,o),
(118,934,cs),
(118,859,ls),
(118,853,o),
(122,849,o),
(128,849,cs),
(178,849,ls),
(200,849,o),
(213,836,o),
(213,814,cs),
(213,-65,ls),
(213,-87,o),
(200,-100,o),
(178,-100,cs),
(128,-100,ls),
(122,-100,o),
(118,-104,o),
(118,-110,cs),
(118,-186,ls),
(118,-192,o),
(122,-196,o),
(128,-196,cs),
(318,-196,ls),
(324,-196,o),
(328,-192,o),
(328,-186,cs),
(328,934,ls)
);
}
);
width = 423;
}
);
note = bracketright;
unicode = 93;
},
{
glyphname = asciicircum;
lastChange = "2022-10-19 10:30:03 +0000";
layers = (
{
layerId = m01;
shapes = (
{
closed = 1;
nodes = (
(480,175,l),
(484,163,o),
(498,159,o),
(506,159,cs),
(580,159,ls),
(593,159,o),
(610,166,o),
(602,185,cs),
(383,671,ls),
(374,691,o),
(353,703,o),
(328,703,cs),
(301,703,ls),
(276,703,o),
(255,693,o),
(246,671,cs),
(28,185,ls),
(20,166,o),
(37,159,o),
(50,159,cs),
(123,159,ls),
(131,159,o),
(145,163,o),
(149,175,c),
(306,522,ls),
(311,534,o),
(321,534,o),
(326,522,cs)
);
}
);
width = 629;
}
);
note = asciicircum;
unicode = 94;
},
{
glyphname = underscore;
lastChange = "2022-10-19 10:30:28 +0000";
layers = (
{
layerId = m01;
shapes = (
{
closed = 1;
nodes = (
(90,-122,ls),
(90,-128,o),
(94,-132,o),
(100,-132,cs),
(642,-132,ls),
(648,-132,o),
(652,-128,o),
(652,-122,cs),
(652,-38,ls),
(652,-32,o),
(648,-28,o),
(642,-28,cs),
(100,-28,ls),
(94,-28,o),
(90,-32,o),
(90,-38,cs)
);
}
);
width = 733;
}
);
note = underscore;
unicode = 95;
},
{
glyphname = grave;
lastChange = "2022-10-19 10:30:33 +0000";
layers = (
{
layerId = m01;
shapes = (
{
closed = 1;
nodes = (
(2,706,ls),
(2,701,o),
(4,696,o),
(9,694,cs),
(233,574,ls),
(240,570,o),
(245,574,o),
(245,581,cs),
(245,653,ls),
(245,658,o),
(242,662,o),
(238,665,cs),
(14,797,ls),
(7,801,o),
(2,798,o),
(2,790,cs)
);
}
);
width = 257;
}
);
note = grave;
unicode = 96;
},
{
glyphname = a;
lastChange = "2023-01-11 15:38:16 +0000";
layers = (
{
layerId = m01;
shapes = (
{
closed = 1;
nodes = (
(493,45,ls),
(493,19,o),
(512,0,o),
(543,0,cs),
(589,0,ls),
(602,0,o),
(614,7,o),
(614,20,cs),
(614,503,ls),
(614,529,o),
(595,548,o),
(564,548,cs),
(518,548,ls),
(505,548,o),
(493,541,o),
(493,528,cs),
(493,487,l),
(452,530,o),
(387,566,o),
(303,566,cs),
(146,566,o),
(28,446,o),
(28,271,cs),
(28,95,o),
(146,-20,o),
(303,-20,cs),
(387,-20,o),
(452,14,o),
(493,57,c)
);
},
{
closed = 1;
nodes = (
(130,395,o),
(212,469,o),
(309,469,cs),
(404,469,o),
(488,396,o),
(488,272,cs),
(488,150,o),
(404,76,o),
(309,76,cs),
(212,76,o),
(130,147,o),
(130,271,cs)
);
}
);
width = 676;
}
);
note = a;
unicode = 97;
},
{
glyphname = b;
lastChange = "2023-01-11 15:38:39 +0000";
layers = (
{
layerId = m01;
shapes = (
{
closed = 1;
nodes = (
(224,14,o),
(289,-20,o),
(373,-20,cs),
(530,-20,o),
(648,95,o),
(648,271,cs),
(648,446,o),
(530,566,o),
(373,566,cs),
(289,566,o),
(224,530,o),
(183,487,c),
(183,730,ls),
(183,743,o),
(171,750,o),
(158,750,cs),
(112,750,ls),
(81,750,o),
(62,731,o),
(62,705,cs),
(62,20,ls),
(62,7,o),
(74,0,o),
(87,0,cs),
(133,0,ls),
(164,0,o),
(183,19,o),
(183,45,cs),
(183,57,l)
);
},
{
closed = 1;
nodes = (
(531,150,o),
(457,86,o),
(367,86,cs),
(279,86,o),
(203,153,o),
(203,272,cs),
(203,393,o),
(279,459,o),
(367,459,cs),
(457,459,o),
(531,392,o),
(531,271,cs)
);
}
);
width = 676;
}
);
note = b;
unicode = 98;
},
{
glyphname = c;
lastChange = "2022-10-14 09:51:59 +0000";
layers = (
{
layerId = m01;
shapes = (
{
closed = 1;
nodes = (
(28,96,o),
(145,-19,o),
(310,-19,cs),
(449,-19,o),
(543,57,o),
(574,162,cs),
(579,179,o),
(564,186,o),
(551,186,cs),
(495,186,ls),
(468,186,o),
(450,173,o),
(440,152,cs),
(416,103,o),
(374,78,o),
(310,78,cs),
(217,78,o),
(151,142,o),
(151,275,cs),
(151,406,o),
(217,470,o),
(310,470,cs),
(374,470,o),
(416,444,o),
(441,396,c),
(450,375,o),
(468,362,o),
(495,362,cs),
(551,362,ls),
(564,362,o),
(579,369,o),
(574,386,cs),
(543,497,o),
(449,567,o),
(310,567,cs),
(145,567,o),
(28,452,o),
(28,275,cs)
);
}
);
width = 607;
}
);
note = c;
unicode = 99;
},
{
glyphname = d;
lastChange = "2023-01-11 15:39:00 +0000";
layers = (
{
layerId = m01;
shapes = (
{
closed = 1;
nodes = (
(493,45,ls),
(493,19,o),
(512,0,o),
(543,0,cs),
(589,0,ls),
(602,0,o),
(614,7,o),
(614,20,cs),
(614,705,ls),
(614,731,o),
(595,750,o),
(564,750,cs),
(518,750,ls),
(505,750,o),
(493,743,o),
(493,730,cs),
(493,487,l),
(452,530,o),
(387,566,o),
(303,566,cs),
(146,566,o),
(28,446,o),
(28,271,cs),
(28,95,o),
(146,-20,o),
(303,-20,cs),
(387,-20,o),
(452,14,o),
(493,57,c)
);
},
{
closed = 1;
nodes = (
(145,392,o),
(219,459,o),
(309,459,cs),
(397,459,o),
(473,393,o),
(473,272,cs),
(473,153,o),
(397,86,o),
(309,86,cs),
(219,86,o),
(145,150,o),
(145,271,cs)
);
}
);
width = 676;
}
);
note = d;
unicode = 100;
},
{
glyphname = e;
lastChange = "2022-10-19 09:54:15 +0000";
layers = (
{
layerId = m01;
shapes = (
{
closed = 1;
nodes = (
(393,470,o),
(460,423,o),
(468,330,cs),
(468,327,o),
(465,324,o),
(462,324,cs),
(159,324,ls),
(156,324,o),
(153,327,o),
(154,330,c),
(170,423,o),
(232,470,o),
(310,470,cs)
);
},
{
closed = 1;
nodes = (
(497,179,ls),
(469,179,o),
(453,165,o),
(443,148,cs),
(418,103,o),
(377,78,o),
(314,78,cs),
(232,78,o),
(166,127,o),
(153,224,cs),
(152,227,o),
(155,230,o),
(158,230,cs),
(564,230,ls),
(574,230,o),
(588,235,o),
(590,248,cs),
(591,265,o),
(592,278,o),
(592,295,cs),
(592,449,o),
(483,567,o),
(314,567,cs),
(145,567,o),
(28,453,o),
(28,275,cs),
(28,96,o),
(149,-19,o),
(314,-19,cs),
(464,-19,o),
(560,71,o),
(584,179,c)
);
}
);
width = 620;
}
);
note = e;
unicode = 101;
},
{
glyphname = f;
lastChange = "2023-01-11 15:41:52 +0000";
layers = (
{
layerId = m01;
shapes = (
{
closed = 1;
nodes = (
(79,9,ls),
(79,3,o),
(83,-1,o),
(89,-1,cs),
(190,-1,ls),
(196,-1,o),
(200,3,o),
(200,9,cs),
(200,458,ls),
(200,461,o),
(202,463,o),
(205,463,cs),
(310,463,ls),
(313,463,o),
(315,465,o),
(315,468,cs),
(315,553,ls),
(315,556,o),
(313,558,o),
(310,558,cs),
(205,558,ls),
(202,558,o),
(200,560,o),
(200,563,cs),
(200,587,ls),
(200,645,o),
(215,669,o),
(261,676,cs),
(291,680,o),
(309,695,o),
(309,722,cs),
(309,754,ls),
(309,767,o),
(297,774,o),
(284,774,cs),
(145,771,o),
(79,714,o),
(79,587,cs),
(79,563,ls),
(79,560,o),
(77,558,o),
(74,558,cs),
(13,558,ls),
(10,558,o),
(8,556,o),
(8,553,cs),
(8,468,ls),
(8,465,o),
(10,463,o),
(13,463,cs),
(59,463,ls),
(73,463,o),
(79,457,o),
(79,438,cs)
);
}
);
width = 329;
}
);
note = f;
unicode = 102;
},
{
glyphname = g;
lastChange = "2022-10-14 09:53:45 +0000";
layers = (
{
layerId = m01;
shapes = (
{
closed = 1;
nodes = (
(210,78,o),
(130,150,o),
(130,276,cs),
(130,402,o),
(210,471,o),
(309,471,cs),
(406,471,o),
(488,399,o),
(488,275,cs),
(488,149,o),
(406,78,o),
(309,78,cs)
);
},
{
closed = 1;
nodes = (
(543,558,ls),
(512,558,o),
(493,539,o),
(493,513,cs),
(493,490,l),
(452,533,o),
(387,567,o),
(303,567,cs),
(146,567,o),
(28,452,o),
(28,276,cs),
(28,101,o),
(146,-19,o),
(303,-19,cs),
(387,-19,o),
(452,17,o),
(493,60,c),
(493,0,ls),
(493,-114,o),
(428,-169,o),
(338,-169,cs),
(258,-169,o),
(202,-133,o),
(180,-72,cs),
(177,-64,o),
(164,-58,o),
(154,-58,cs),
(57,-58,l),
(70,-185,o),
(182,-268,o),
(338,-268,cs),
(509,-268,o),
(614,-155,o),
(614,0,cs),
(614,538,ls),
(614,551,o),
(602,558,o),
(589,558,cs)
);
}
);
width = 676;
}
);
note = g;
unicode = 103;
},
{
glyphname = h;
lastChange = "2023-01-11 15:42:01 +0000";
layers = (
{
layerId = m01;
shapes = (
{
closed = 1;
nodes = (
(463,35,ls),
(463,11,o),
(482,0,o),
(503,0,cs),
(573,0,ls),
(579,0,o),
(583,4,o),
(583,10,cs),
(583,323,ls),
(583,485,o),
(480,568,o),
(344,568,cs),
(281,568,o),
(223,547,o),
(183,509,c),
(183,715,ls),
(183,739,o),
(164,750,o),
(143,750,cs),
(72,750,ls),
(66,750,o),
(62,746,o),
(62,740,cs),
(62,10,ls),
(62,4,o),
(66,0,o),
(72,0,cs),
(173,0,ls),
(179,0,o),
(183,4,o),
(183,10,cs),
(183,303,ls),
(183,418,o),
(239,469,o),
(325,469,cs),
(410,469,o),
(463,419,o),
(463,310,cs)
);
}
);
width = 640;
}
);
note = h;
unicode = 104;
},
{
glyphname = i;
lastChange = "2023-01-11 15:41:18 +0000";
layers = (
{
layerId = m01;
shapes = (
{
closed = 1;
nodes = (
(62,35,ls),
(62,11,o),
(81,0,o),
(102,0,cs),
(173,0,ls),
(179,0,o),
(183,4,o),
(183,10,cs),
(183,523,ls),
(183,547,o),
(164,558,o),
(143,558,cs),
(72,558,ls),
(66,558,o),
(62,554,o),
(62,548,cs)
);
},
{
closed = 1;
nodes = (
(164,613,o),
(193,642,o),
(193,679,cs),
(193,716,o),
(164,745,o),
(124,745,cs),
(83,745,o),
(53,715,o),
(53,679,cs),
(53,643,o),
(83,613,o),
(124,613,cs)
);
}
);
width = 246;
}
);
note = i;
unicode = 105;
},
{
glyphname = j;
lastChange = "2022-10-19 09:58:26 +0000";
layers = (
{
layerId = m01;
shapes = (
{
closed = 1;
nodes = (
(75,558,ls),
(69,558,o),
(65,554,o),
(65,548,cs),
(65,-117,ls),
(65,-168,o),
(51,-177,o),
(-10,-172,cs),
(-24,-171,o),
(-42,-178,o),
(-42,-196,cs),
(-42,-270,l),
(26,-270,ls),
(128,-270,o),
(186,-223,o),
(186,-119,cs),
(186,513,ls),
(186,539,o),
(167,558,o),
(136,558,cs)
);
},
{
closed = 1;
nodes = (
(167,612,o),
(196,641,o),
(196,678,cs),
(196,715,o),
(167,744,o),
(127,744,cs),
(86,744,o),
(56,714,o),
(56,678,cs),
(56,642,o),
(86,612,o),
(127,612,cs)
);
}
);
width = 248;
}
);
note = j;
unicode = 106;
},
{
glyphname = k;
lastChange = "2023-01-11 15:40:01 +0000";
layers = (
{
layerId = m01;
shapes = (
{
closed = 1;
nodes = (
(62,44,ls),
(62,18,o),
(81,-1,o),
(112,-1,cs),
(173,-1,ls),
(179,-1,o),
(183,3,o),
(183,9,cs),
(183,223,ls),
(183,227,o),
(168,222,o),
(169,221,cs),
(356,11,l),
(361,4,o),
(373,0,o),
(381,0,cs),
(481,0,ls),
(493,0,o),
(517,8,o),
(497,29,cs),
(266,275,l),
(268,277,l),
(533,558,l),
(405,558,ls),
(382,558,o),
(363,549,o),
(351,535,cs),
(169,326,ls),
(168,325,o),
(183,320,o),
(183,324,cs),
(183,705,ls),
(183,731,o),
(164,750,o),
(133,750,cs),
(72,750,ls),
(66,750,o),
(62,746,o),
(62,740,cs)
);
}
);
width = 515;
}
);
note = k;
unicode = 107;
},
{
glyphname = l;
lastChange = "2023-01-11 15:41:12 +0000";
layers = (
{
layerId = m01;
shapes = (
{
closed = 1;
nodes = (
(62,44,ls),
(62,18,o),
(81,-1,o),
(112,-1,cs),
(173,-1,ls),
(179,-1,o),
(183,3,o),
(183,9,cs),
(183,740,ls),
(183,746,o),
(179,750,o),
(173,750,cs),
(72,750,ls),
(66,750,o),
(62,746,o),
(62,740,cs)
);
}
);
width = 246;
}
);
note = l;
unicode = 108;
},
{
glyphname = m;
lastChange = "2023-01-11 15:40:15 +0000";
layers = (
{
layerId = m01;
shapes = (
{
closed = 1;
nodes = (
(658,570,o),
(587,558,o),
(517,516,c),
(505,536,o),
(430,570,o),
(344,570,cs),
(281,570,o),
(223,549,o),
(183,511,c),
(183,515,ls),
(183,541,o),
(164,560,o),
(133,560,cs),
(72,560,ls),
(66,560,o),
(62,556,o),
(62,550,cs),
(62,10,ls),
(62,4,o),
(66,0,o),
(72,0,cs),
(173,0,ls),
(179,0,o),
(183,4,o),
(183,10,cs),
(183,305,ls),
(183,420,o),
(239,471,o),
(325,471,cs),
(410,471,o),
(463,421,o),
(463,312,cs),
(463,35,ls),
(463,11,o),
(482,0,o),
(503,0,cs),
(573,0,ls),
(579,0,o),
(583,4,o),
(583,10,cs),
(583,299,ls),
(583,415,o),
(631,471,o),
(716,471,cs),
(801,471,o),
(854,421,o),
(854,312,cs),
(854,35,ls),
(854,11,o),
(873,0,o),
(894,0,cs),
(964,0,ls),
(970,0,o),
(974,4,o),
(974,10,cs),
(974,325,ls),
(974,487,o),
(871,570,o),
(735,570,cs)
);
}
);
width = 1030;
}
);
note = m;
unicode = 109;
},
{
glyphname = n;
lastChange = "2023-01-11 15:40:24 +0000";
layers = (
{
layerId = m01;
shapes = (
{
closed = 1;
nodes = (
(463,35,ls),
(463,11,o),
(482,0,o),
(503,0,cs),
(573,0,ls),
(579,0,o),
(583,4,o),
(583,10,cs),
(583,323,ls),
(583,485,o),
(480,568,o),
(344,568,cs),
(281,568,o),
(223,547,o),
(183,509,c),
(183,523,ls),
(183,547,o),
(164,558,o),
(143,558,cs),
(72,558,ls),
(66,558,o),
(62,554,o),
(62,548,cs),
(62,10,ls),
(62,4,o),
(66,0,o),
(72,0,cs),
(173,0,ls),
(179,0,o),
(183,4,o),
(183,10,cs),
(183,303,ls),
(183,418,o),
(239,469,o),
(325,469,cs),
(410,469,o),
(463,419,o),
(463,310,cs)
);
}
);
width = 640;
}
);
note = n;
unicode = 110;
},
{
glyphname = o;
lastChange = "2023-01-11 15:41:34 +0000";
layers = (
{
layerId = m01;
shapes = (
{
closed = 1;
nodes = (
(612,453,o),
(485,567,o),
(320,567,cs),
(156,567,o),
(28,453,o),
(28,275,cs),
(28,96,o),
(152,-19,o),
(316,-19,cs),
(481,-19,o),
(612,96,o),
(612,275,cs)
);
},
{
closed = 1;
nodes = (
(151,409,o),
(229,468,o),
(319,468,cs),
(407,468,o),
(489,409,o),
(489,275,cs),
(489,140,o),
(405,81,o),
(316,81,cs),
(227,81,o),
(151,139,o),
(151,275,cs)
);
}
);
width = 640;
}
);
note = o;
unicode = 111;
},
{
glyphname = p;
lastChange = "2022-10-19 10:04:46 +0000";
layers = (
{
layerId = m01;
shapes = (
{
closed = 1;
nodes = (
(183,513,ls),
(183,539,o),
(164,558,o),
(133,558,cs),
(72,558,ls),
(66,558,o),
(62,554,o),
(62,548,cs),
(62,-225,ls),
(62,-251,o),
(81,-270,o),
(112,-270,cs),
(173,-270,ls),
(179,-270,o),
(183,-266,o),
(183,-260,cs),
(183,60,l),
(224,17,o),
(289,-19,o),
(373,-19,cs),
(530,-19,o),
(648,101,o),
(648,276,cs),
(648,452,o),
(530,567,o),
(373,567,cs),
(289,567,o),
(224,533,o),
(183,490,c)
);
},
{
closed = 1;
nodes = (
(531,155,o),
(457,88,o),
(367,88,cs),
(279,88,o),
(203,154,o),
(203,275,cs),
(203,394,o),
(279,461,o),
(367,461,cs),
(457,461,o),
(531,397,o),
(531,276,cs)
);
}
);
width = 676;
}
);
note = p;
unicode = 112;
},
{
glyphname = q;
lastChange = "2022-10-19 10:05:21 +0000";
layers = (
{
layerId = m01;
shapes = (
{
closed = 1;
nodes = (
(452,533,o),
(387,567,o),
(303,567,cs),
(146,567,o),
(28,452,o),
(28,276,cs),
(28,101,o),
(146,-19,o),
(303,-19,cs),
(387,-19,o),
(452,17,o),
(493,60,c),
(493,-260,ls),
(493,-266,o),
(497,-270,o),
(503,-270,cs),
(564,-270,ls),
(595,-270,o),
(614,-251,o),
(614,-225,cs),
(614,548,ls),
(614,554,o),
(610,558,o),
(604,558,cs),
(543,558,ls),
(512,558,o),
(493,539,o),
(493,513,cs),
(493,490,l)
);
},
{
closed = 1;
nodes = (
(145,397,o),
(219,461,o),
(309,461,cs),
(397,461,o),
(473,394,o),
(473,275,cs),
(473,154,o),
(397,88,o),
(309,88,cs),
(219,88,o),
(145,155,o),
(145,276,cs)
);
}
);
width = 676;
}
);
note = q;
unicode = 113;
},
{
glyphname = r;
lastChange = "2023-01-11 15:42:14 +0000";
layers = (
{
layerId = m01;
shapes = (
{
closed = 1;
nodes = (
(368,555,ls),
(369,562,o),
(365,568,o),
(358,568,cs),
(292,568,o),
(226,547,o),
(183,508,c),
(183,523,ls),
(183,547,o),
(164,558,o),
(143,558,cs),
(72,558,ls),
(66,558,o),
(62,554,o),
(62,548,cs),
(62,10,ls),
(62,4,o),
(66,0,o),
(72,0,cs),
(173,0,ls),
(179,0,o),
(183,4,o),
(183,10,cs),
(183,303,ls),
(183,405,o),
(235,449,o),
(307,458,cs),
(335,462,o),
(352,476,o),
(357,499,cs)
);
}
);
width = 373;
}
);
note = r;
unicode = 114;
},
{
glyphname = s;
lastChange = "2022-10-19 10:07:33 +0000";
layers = (
{
layerId = m01;
shapes = (
{
closed = 1;
nodes = (
(482,359,o),
(164,288,o),
(164,404,cs),
(164,445,o),
(196,470,o),
(256,470,cs),
(309,470,o),
(339,449,o),
(354,412,cs),
(362,392,o),
(376,375,o),
(406,375,cs),
(470,375,ls),
(476,375,o),
(481,380,o),
(481,386,cs),
(475,497,o),
(387,567,o),
(259,567,cs),
(128,567,o),
(43,493,o),
(43,404,cs),
(43,186,o),
(367,257,o),
(367,149,cs),
(367,107,o),
(335,78,o),
(270,78,cs),
(213,78,o),
(179,99,o),
(163,135,cs),
(153,156,o),
(138,171,o),
(110,171,cs),
(43,171,ls),
(37,171,o),
(32,167,o),
(32,160,cs),
(38,56,o),
(136,-19,o),
(271,-19,cs),
(401,-19,o),
(486,54,o),
(486,149,cs)
);
}
);
width = 522;
}
);
note = s;
unicode = 115;
},
{
glyphname = t;
lastChange = "2022-10-19 10:08:38 +0000";
layers = (
{
layerId = m01;
shapes = (
{
closed = 1;
nodes = (
(82,150,ls),
(82,34,o),
(144,-10,o),
(249,-10,cs),
(346,-10,l),
(346,42,ls),
(346,68,o),
(327,87,o),
(296,87,cs),
(264,87,ls),
(215,87,o),
(203,99,o),
(203,150,cs),
(203,463,ls),
(203,466,o),
(200,463,o),
(198,463,cs),
(336,463,ls),
(342,463,o),
(346,467,o),
(346,473,cs),
(346,548,ls),
(346,554,o),
(342,558,o),
(336,558,cs),
(198,558,ls),
(200,558,o),
(203,555,o),
(203,558,cs),
(203,686,ls),
(203,692,o),
(199,696,o),
(193,696,cs),
(92,696,ls),
(86,696,o),
(82,692,o),
(82,686,cs),
(82,583,ls),
(82,564,o),
(76,558,o),
(62,558,cs),
(21,558,ls),
(15,558,o),
(11,554,o),
(11,548,cs),
(11,483,ls),
(11,470,o),
(23,463,o),
(36,463,cs),
(87,463,ls),
(85,463,o),
(82,466,o),
(82,463,cs)
);
}
);
width = 364;
}
);
note = t;
unicode = 116;
},
{
glyphname = u;
lastChange = "2023-01-11 15:38:24 +0000";
layers = (
{
layerId = m01;
shapes = (
{
closed = 1;
nodes = (
(182,524,ls),
(182,548,o),
(163,559,o),
(142,559,cs),
(72,559,ls),
(66,559,o),
(62,555,o),
(62,549,cs),
(62,236,ls),
(62,74,o),
(165,-9,o),
(301,-9,cs),
(364,-9,o),
(422,12,o),
(462,50,c),
(462,46,ls),
(462,20,o),
(481,1,o),
(512,1,cs),
(573,1,ls),
(579,1,o),
(583,5,o),
(583,11,cs),
(583,549,ls),
(583,555,o),
(579,559,o),
(573,559,cs),
(472,559,ls),
(466,559,o),
(462,555,o),
(462,549,cs),
(462,256,ls),
(462,141,o),
(406,90,o),
(320,90,cs),
(235,90,o),
(182,140,o),
(182,249,cs)
);
}
);
width = 640;
}
);
note = u;
unicode = 117;
},
{
glyphname = v;
lastChange = "2023-01-11 15:42:39 +0000";
layers = (
{
layerId = m01;
shapes = (
{
closed = 1;
nodes = (
(10,558,ls),
(2,558,o),
(-5,551,o),
(-1,542,cs),
(202,33,ls),
(210,12,o),
(231,0,o),
(257,0,cs),
(303,0,ls),
(329,0,o),
(350,12,o),
(358,33,cs),
(561,542,ls),
(565,551,o),
(558,558,o),
(550,558,cs),
(481,558,ls),
(454,558,o),
(435,545,o),
(427,523,cs),
(295,164,ls),
(290,149,o),
(272,149,o),
(267,164,cs),
(134,523,ls),
(126,545,o),
(107,558,o),
(80,558,cs)
);
}
);
width = 567;
}
);
note = v;
unicode = 118;
},
{
glyphname = w;
lastChange = "2023-01-11 15:42:49 +0000";
layers = (
{
layerId = m01;
shapes = (
{
closed = 1;
nodes = (
(16,558,ls),
(8,558,o),
(3,551,o),
(6,543,cs),
(169,33,ls),
(176,11,o),
(193,-1,o),
(216,-1,cs),
(253,-1,ls),
(276,-1,o),
(295,11,o),
(300,33,c),
(410,372,ls),
(413,380,o),
(423,380,o),
(426,372,cs),
(535,33,ls),
(542,11,o),
(559,-1,o),
(582,-1,cs),
(619,-1,ls),
(642,-1,o),
(661,11,o),
(666,33,c),
(830,543,ls),
(833,551,o),
(827,558,o),
(819,558,cs),
(762,558,ls),
(741,558,o),
(723,548,o),
(716,523,cs),
(610,161,ls),
(608,153,o),
(596,153,o),
(594,161,cs),
(486,523,ls),
(479,546,o),
(463,558,o),
(444,558,cs),
(441,558,l),
(395,558,l),
(389,558,l),
(371,555,o),
(356,544,o),
(350,523,cs),
(244,161,ls),
(242,153,o),
(230,153,o),
(228,161,cs),
(120,523,ls),
(113,547,o),
(95,558,o),
(74,558,cs)
);
}
);
width = 836;
}
);
note = w;
unicode = 119;
},
{
glyphname = x;
lastChange = "2023-01-11 15:42:56 +0000";
layers = (
{
layerId = m01;
shapes = (
{
closed = 1;
nodes = (
(347,1,ls),
(351,-5,o),
(361,-10,o),
(371,-10,cs),
(452,-10,ls),
(470,-10,o),
(481,0,o),
(471,17,cs),
(318,258,ls),
(310,271,o),
(309,283,o),
(317,295,cs),
(470,531,ls),
(480,548,o),
(469,558,o),
(451,558,cs),
(378,558,ls),
(368,558,o),
(358,553,o),
(352,545,c),
(257,389,ls),
(246,371,o),
(245,372,o),
(234,389,cs),
(132,547,ls),
(128,553,o),
(118,558,o),
(108,558,cs),
(27,558,ls),
(9,558,o),
(-2,548,o),
(8,531,cs),
(161,290,l),
(170,278,o),
(170,266,o),
(162,254,cs),
(8,17,ls),
(-2,0,o),
(9,-10,o),
(27,-10,cs),
(100,-10,ls),
(110,-10,o),
(120,-5,o),
(126,3,c),
(222,160,ls),
(233,178,o),
(234,178,o),
(245,160,cs)
);
}
);
width = 479;
}
);
note = x;
unicode = 120;
},
{
glyphname = y;
lastChange = "2022-10-19 10:15:49 +0000";
layers = (
{
layerId = m01;
shapes = (
{
closed = 1;
nodes = (
(299,180,ls),
(294,166,o),
(276,166,o),
(271,180,cs),
(127,552,ls),
(126,556,o),
(123,558,o),
(119,558,cs),
(10,558,ls),
(1,558,o),
(-4,550,o),
(-1,542,cs),
(218,6,l),
(112,-252,ls),
(109,-260,o),
(114,-268,o),
(123,-268,cs),
(224,-268,ls),
(227,-268,o),
(231,-266,o),
(232,-262,cs),
(562,542,ls),
(565,550,o),
(560,558,o),
(551,558,cs),
(449,558,ls),
(445,558,o),
(442,556,o),
(441,552,cs)
);
}
);
width = 563;
}
);
note = y;
unicode = 121;
},
{
glyphname = z;
lastChange = "2022-10-19 10:16:24 +0000";
layers = (
{
layerId = m01;
shapes = (
{
closed = 1;
nodes = (
(427,538,ls),
(427,551,o),
(415,558,o),
(402,558,cs),
(38,558,ls),
(32,558,o),
(28,554,o),
(28,548,cs),
(28,509,ls),
(28,483,o),
(47,464,o),
(78,464,cs),
(292,464,ls),
(289,464,o),
(287,468,o),
(287,468,c),
(31,84,l),
(29,80,o),
(26,73,o),
(26,68,cs),
(26,10,ls),
(26,-3,o),
(38,-10,o),
(51,-10,cs),
(419,-10,ls),
(425,-10,o),
(429,-6,o),
(429,0,cs),
(429,40,ls),
(429,66,o),
(410,85,o),
(379,85,cs),
(160,85,ls),
(163,85,o),
(165,81,o),
(165,81,c),
(422,465,l),
(424,469,o),
(427,476,o),
(427,481,cs)
);
}
);
width = 455;
}
);
note = z;
unicode = 122;
},
{
glyphname = braceleft;
layers = (
{
layerId = m01;
shapes = (
{
closed = 1;
nodes = (
(207,155,o),
(187,46,o),
(187,-39,cs),
(187,-137,o),
(248,-187,o),
(336,-187,cs),
(394,-187,l),
(394,-108,l),
(353,-108,ls),
(303,-108,o),
(276,-87,o),
(276,-33,cs),
(276,43,o),
(295,153,o),
(295,236,cs),
(295,304,o),
(263,356,o),
(187,373,c),
(187,375,l),
(263,391,o),
(295,443,o),
(295,511,cs),
(295,594,o),
(276,704,o),
(276,780,cs),
(276,834,o),
(303,855,o),
(353,855,cs),
(394,855,l),
(394,934,l),
(336,934,ls),
(248,934,o),
(187,884,o),
(187,786,cs),
(187,701,o),
(207,592,o),
(207,514,cs),
(207,464,o),
(180,423,o),
(105,409,c),
(105,338,l),
(180,324,o),
(207,283,o),
(207,233,cs)
);
}
);
width = 462;
}
);
note = braceleft;
unicode = 123;
},
{
glyphname = bar;
layers = (
{
layerId = m01;
shapes = (
{
closed = 1;
nodes = (
(100,795,l),
(100,-106,l),
(191,-106,l),
(191,795,l)
);
}
);
width = 291;
}
);
note = bar;
unicode = 124;
},
{
glyphname = braceright;
layers = (
{
layerId = m01;
shapes = (
{
closed = 1;
nodes = (
(255,155,o),
(275,46,o),
(275,-39,cs),
(275,-137,o),
(214,-187,o),
(126,-187,cs),
(68,-187,l),
(68,-108,l),
(109,-108,ls),
(159,-108,o),
(186,-87,o),
(186,-33,cs),
(186,43,o),
(167,153,o),
(167,236,cs),
(167,304,o),
(199,356,o),
(275,373,c),
(275,375,l),
(199,391,o),
(167,443,o),
(167,511,cs),
(167,594,o),
(186,704,o),
(186,780,cs),
(186,834,o),
(159,855,o),
(109,855,cs),
(68,855,l),
(68,934,l),
(126,934,ls),
(214,934,o),
(275,884,o),
(275,786,cs),
(275,701,o),
(255,592,o),
(255,514,cs),
(255,464,o),
(282,423,o),
(357,409,c),
(357,338,l),
(282,324,o),
(255,283,o),
(255,233,cs)
);
}
);
width = 462;
}
);
note = braceright;
unicode = 125;
},
{
glyphname = asciitilde;
lastChange = "2022-10-19 10:30:42 +0000";
layers = (
{
layerId = m01;
shapes = (
{
closed = 1;
nodes = (
(109,238,ls),
(115,238,o),
(118,241,o),
(119,248,cs),
(125,285,o),
(144,303,o),
(172,303,cs),
(220,303,o),
(254,237,o),
(340,237,cs),
(423,237,o),
(479,287,o),
(497,392,cs),
(498,399,o),
(494,403,o),
(488,403,cs),
(409,403,ls),
(403,403,o),
(400,400,o),
(399,393,cs),
(393,355,o),
(374,338,o),
(347,338,cs),
(300,338,o),
(264,404,o),
(178,404,cs),
(96,404,o),
(41,353,o),
(22,249,cs),
(21,242,o),
(24,238,o),
(31,238,cs)
);
}
);
width = 519;
}
);
note = asciitilde;
unicode = 126;
},
{
glyphname = exclamdown;
layers = (
{
layerId = m01;
shapes = (
{
closed = 1;
nodes = (
(108,361,l),
(184,361,l),
(195,-139,l),
(97,-139,l)
);
},
{
closed = 1;
nodes = (
(210,467,o),
(183,440,o),
(150,440,cs),
(115,440,o),
(88,467,o),
(88,502,cs),
(88,537,o),
(115,564,o),
(150,564,cs),
(183,564,o),
(210,537,o),
(210,502,cs)
);
}
);
width = 298;
}
);
note = exclamdown;
unicode = 161;
},
{
glyphname = cent;
layers = (
{
layerId = m01;
shapes = (
{
closed = 1;
nodes = (
(471,184,l),
(456,120,o),
(405,80,o),
(322,80,cs),
(223,80,o),
(151,144,o),
(151,262,cs),
(151,380,o),
(223,445,o),
(322,445,cs),
(405,445,o),
(456,404,o),
(471,341,c),
(556,341,l),
(544,437,o),
(465,510,o),
(347,519,c),
(347,611,l),
(293,611,l),
(293,519,l),
(145,507,o),
(65,400,o),
(65,262,cs),
(65,124,o),
(145,17,o),
(293,5,c),
(293,-89,l),
(347,-89,l),
(347,5,l),
(465,14,o),
(544,87,o),
(556,184,c)
);
}
);
width = 665;
}
);
note = cent;
unicode = 162;
},
{
glyphname = sterling;
layers = (
{
layerId = m01;
shapes = (
{
closed = 1;
nodes = (
(108,452,o),
(121,410,o),
(135,372,c),
(44,372,l),
(44,308,l),
(157,308,l),
(162,288,o),
(166,268,o),
(166,246,cs),
(166,155,o),
(133,105,o),
(83,50,c),
(99,-2,l),
(545,-2,l),
(545,74,l),
(181,74,l),
(228,125,o),
(252,180,o),
(252,246,cs),
(252,267,o),
(248,288,o),
(243,308,c),
(417,308,l),
(417,372,l),
(223,372,l),
(209,413,o),
(195,455,o),
(195,504,cs),
(195,602,o),
(255,642,o),
(326,642,cs),
(414,642,o),
(456,586,o),
(458,511,c),
(542,511,l),
(537,623,o),
(470,719,o),
(326,719,cs),
(197,719,o),
(108,637,o),
(108,508,cs)
);
}
);
width = 620;
}
);
note = sterling;
unicode = 163;
},
{
glyphname = currency;
layers = (
{
layerId = m01;
shapes = (
{
closed = 1;
nodes = (
(369,300,o),
(319,259,o),
(267,259,cs),
(212,259,o),
(168,300,o),
(168,377,cs),
(168,454,o),
(213,496,o),
(267,496,cs),
(321,496,o),
(369,454,o),
(369,377,cs)
);
},
{
closed = 1;
nodes = (
(432,170,l),
(473,212,l),
(414,271,l),
(434,300,o),
(446,336,o),
(446,377,cs),
(446,419,o),
(434,456,o),
(413,484,c),
(473,544,l),
(432,586,l),
(371,525,l),
(342,544,o),
(307,554,o),
(268,554,cs),
(229,554,o),
(194,544,o),
(166,525,c),
(105,586,l),
(63,544,l),
(124,484,l),
(104,456,o),
(92,419,o),
(92,377,cs),
(92,335,o),
(103,300,o),
(122,271,c),
(63,212,l),
(105,170,l),
(164,229,l),
(192,210,o),
(227,200,o),
(267,200,cs),
(306,200,o),
(342,211,o),
(372,230,c)
);
}
);
width = 537;
}
);
note = currency;
unicode = 164;
},
{
glyphname = yen;
layers = (
{
layerId = m01;
shapes = (
{
closed = 1;
nodes = (
(253,263,l),
(253,224,l),
(53,224,l),
(53,157,l),
(253,157,l),
(253,0,l),
(344,0,l),
(344,157,l),
(544,157,l),
(544,224,l),
(344,224,l),
(344,263,l),
(371,315,l),
(544,317,l),
(544,383,l),
(407,383,l),
(571,697,l),
(469,697,l),
(298,345,l),
(127,697,l),
(25,697,l),
(190,383,l),
(53,383,l),
(53,317,l),
(225,315,l)
);
}
);
width = 595;
}
);
note = yen;
unicode = 165;
},
{
glyphname = brokenbar;
layers = (
{
layerId = m01;
shapes = (
{
closed = 1;
nodes = (
(100,273,l),
(100,-106,l),
(191,-106,l),
(191,273,l)
);
},
{
closed = 1;
nodes = (
(191,417,l),
(191,795,l),
(100,795,l),
(100,417,l)
);
}
);
width = 291;
}
);
note = brokenbar;
unicode = 166;
},
{
glyphname = section;
layers = (
{
layerId = m01;
shapes = (
{
closed = 1;
nodes = (
(76,487,o),
(124,449,o),
(184,420,c),
(93,394,o),
(46,331,o),
(46,258,cs),
(46,158,o),
(123,111,o),
(247,70,cs),
(372,29,o),
(408,4,o),
(408,-46,cs),
(408,-104,o),
(365,-132,o),
(295,-132,cs),
(215,-132,o),
(180,-87,o),
(175,-31,c),
(84,-31,l),
(87,-137,o),
(175,-196,o),
(295,-196,cs),
(423,-196,o),
(499,-125,o),
(499,-39,cs),
(499,29,o),
(452,67,o),
(391,95,c),
(483,124,o),
(529,185,o),
(529,258,cs),
(529,357,o),
(452,405,o),
(328,445,cs),
(203,486,o),
(167,512,o),
(167,563,cs),
(167,619,o),
(211,647,o),
(281,647,cs),
(361,647,o),
(396,600,o),
(400,546,c),
(491,546,l),
(488,652,o),
(401,712,o),
(281,712,cs),
(152,712,o),
(76,641,o),
(76,555,cs)
);
},
{
closed = 1;
nodes = (
(436,197,o),
(383,143,o),
(290,143,cs),
(196,143,o),
(139,194,o),
(139,258,cs),
(139,319,o),
(192,372,o),
(286,372,cs),
(379,372,o),
(436,323,o),
(436,258,cs)
);
}
);
width = 575;
}
);
note = section;
unicode = 167;
},
{
glyphname = dieresis;
layers = (
{
layerId = m01;
shapes = (
{
closed = 1;
nodes = (
(104,622,o),
(128,645,o),
(128,674,cs),
(128,703,o),
(104,727,o),
(76,727,cs),
(46,727,o),
(23,703,o),
(23,674,cs),
(23,645,o),
(46,622,o),
(76,622,cs)
);
},
{
closed = 1;
nodes = (
(267,622,o),
(291,645,o),
(291,674,cs),
(291,703,o),
(267,727,o),
(238,727,cs),
(208,727,o),
(186,703,o),
(186,674,cs),
(186,645,o),
(208,622,o),
(238,622,cs)
);
}
);
width = 314;
}
);
note = dieresis;
unicode = 168;
},
{
glyphname = copyright;
layers = (
{
layerId = m01;
shapes = (
{
closed = 1;
nodes = (
(49,141,o),
(191,-6,o),
(397,-6,cs),
(602,-6,o),
(743,141,o),
(743,349,cs),
(743,557,o),
(602,704,o),
(397,704,cs),
(191,704,o),
(49,557,o),
(49,349,cs)
);
},
{
closed = 1;
nodes = (
(700,162,o),
(583,33,o),
(397,33,cs),
(209,33,o),
(92,162,o),
(92,349,cs),
(92,537,o),
(209,664,o),
(397,664,cs),
(583,664,o),
(700,537,o),
(700,349,cs)
);
},
{
closed = 1;
nodes = (
(516,432,l),
(499,486,o),
(452,515,o),
(395,515,cs),
(319,515,o),
(259,459,o),
(259,349,cs),
(259,240,o),
(319,184,o),
(395,184,cs),
(457,184,o),
(497,214,o),
(516,267,c),
(600,267,l),
(574,177,o),
(496,118,o),
(395,118,cs),
(275,118,o),
(178,206,o),
(178,350,cs),
(178,494,o),
(275,581,o),
(395,581,cs),
(496,581,o),
(574,527,o),
(600,432,c)
);
}
);
width = 792;
}
);
note = copyright;
unicode = 169;
},
{
glyphname = ordfeminine;
layers = (
{
layerId = m01;
shapes = (
{
closed = 1;
nodes = (
(266,347,o),
(311,376,o),
(331,413,c),
(331,353,l),
(403,353,l),
(403,703,l),
(331,703,l),
(331,642,l),
(310,679,o),
(266,709,o),
(200,709,cs),
(106,709,o),
(33,636,o),
(33,530,cs),
(33,423,o),
(106,347,o),
(202,347,cs)
);
},
{
closed = 1;
nodes = (
(280,652,o),
(331,607,o),
(331,528,cs),
(331,449,o),
(280,404,o),
(219,404,cs),
(159,404,o),
(108,450,o),
(108,529,cs),
(108,608,o),
(159,652,o),
(219,652,cs)
);
}
);
width = 450;
}
);
note = ordfeminine;
unicode = 170;
},
{
glyphname = guillemotleft;
layers = (
{
layerId = m01;
shapes = (
{
closed = 1;
nodes = (
(131,295,l),
(230,470,l),
(141,470,l),
(45,295,l),
(141,120,l),
(230,120,l)
);
},
{
closed = 1;
nodes = (
(312,295,l),
(411,470,l),
(321,470,l),
(226,295,l),
(321,120,l),
(411,120,l)
);
}
);
width = 461;
}
);
note = guillemotleft;
unicode = 171;
},
{
glyphname = logicalnot;
layers = (
{
layerId = m01;
shapes = (
{
closed = 1;
nodes = (
(41,360,l),
(515,360,l),
(515,220,l),
(606,220,l),
(606,432,l),
(41,432,l)
);
}
);
width = 650;
}
);
note = logicalnot;
unicode = 172;
},
{
glyphname = uni00AD;
layers = (
{
layerId = m01;
shapes = (
{
closed = 1;
nodes = (
(58,328,l),
(457,328,l),
(457,405,l),
(58,405,l)
);
}
);
width = 551;
}
);
note = uni00AD;
unicode = 173;
},
{
glyphname = registered;
layers = (
{
layerId = m01;
shapes = (
{
closed = 1;
nodes = (
(352,667,o),
(416,599,o),
(416,502,cs),
(416,405,o),
(352,337,o),
(255,337,cs),
(157,337,o),
(95,405,o),
(95,502,cs),
(95,599,o),
(157,667,o),
(255,667,cs)
);
},
{
closed = 1;
nodes = (
(373,297,o),
(457,384,o),
(457,502,cs),
(457,620,o),
(373,706,o),
(255,706,cs),
(136,706,o),
(52,620,o),
(52,502,cs),
(52,384,o),
(136,297,o),
(255,297,cs)
);
},
{
closed = 1;
nodes = (
(345,585,o),
(315,611,o),
(270,611,cs),
(174,611,l),
(174,396,l),
(226,396,l),
(226,476,l),
(243,476,l),
(291,396,l),
(354,397,l),
(298,480,l),
(327,489,o),
(345,512,o),
(345,544,cs)
);
},
{
closed = 1;
nodes = (
(267,564,ls),
(281,564,o),
(293,558,o),
(293,542,cs),
(293,526,o),
(281,519,o),
(267,519,cs),
(226,519,l),
(226,564,l)
);
}
);
width = 509;
}
);
note = registered;
unicode = 174;
},
{
glyphname = macron;
layers = (
{
layerId = m01;
shapes = (
{
closed = 1;
nodes = (
(17,641,l),
(369,641,l),
(369,709,l),
(17,709,l)
);
}
);
width = 387;
}
);
note = macron;
unicode = 175;
},
{
glyphname = degree;
layers = (
{
layerId = m01;
shapes = (
{
closed = 1;
nodes = (
(28,417,o),
(100,347,o),
(203,347,cs),
(306,347,o),
(381,417,o),
(381,524,cs),
(381,631,o),
(307,699,o),
(205,699,cs),
(103,699,o),
(28,631,o),
(28,524,cs)
);
},
{
closed = 1;
nodes = (
(308,443,o),
(259,402,o),
(203,402,cs),
(146,402,o),
(101,443,o),
(101,524,cs),
(101,603,o),
(148,646,o),
(204,646,cs),
(261,646,o),
(308,603,o),
(308,524,cs)
);
}
);
width = 410;
}
);
note = degree;
unicode = 176;
},
{
glyphname = plusminus;
layers = (
{
layerId = m01;
shapes = (
{
closed = 1;
nodes = (
(301,624,l),
(301,454,l),
(88,454,l),
(88,377,l),
(301,377,l),
(301,195,l),
(88,195,l),
(88,118,l),
(597,118,l),
(597,195,l),
(386,195,l),
(386,377,l),
(597,377,l),
(597,454,l),
(386,454,l),
(386,624,l)
);
}
);
width = 686;
}
);
note = plusminus;
unicode = 177;
},
{
glyphname = twosuperior;
layers = (
{
layerId = m01;
shapes = (
{
closed = 1;
nodes = (
(103,603,l),
(107,635,o),
(125,654,o),
(157,654,cs),
(186,654,o),
(209,634,o),
(209,597,cs),
(209,555,o),
(180,524,o),
(141,492,cs),
(32,404,l),
(32,352,l),
(289,352,l),
(289,411,l),
(113,411,l),
(192,467,ls),
(254,512,o),
(285,547,o),
(285,600,cs),
(285,660,o),
(237,710,o),
(159,710,cs),
(78,710,o),
(33,664,o),
(30,603,c)
);
}
);
width = 330;
}
);
note = twosuperior;
unicode = 178;
},
{
glyphname = threesuperior;
layers = (
{
layerId = m01;
shapes = (
{
closed = 1;
nodes = (
(96,611,l),
(102,637,o),
(122,655,o),
(158,655,cs),
(195,655,o),
(218,634,o),
(218,603,cs),
(218,570,o),
(192,553,o),
(155,553,cs),
(114,553,l),
(114,505,l),
(157,505,ls),
(194,505,o),
(220,486,o),
(220,453,cs),
(220,421,o),
(196,401,o),
(159,401,cs),
(125,401,o),
(100,417,o),
(95,454,c),
(23,454,l),
(28,386,o),
(80,347,o),
(160,347,cs),
(243,347,o),
(298,391,o),
(298,444,cs),
(298,487,o),
(268,515,o),
(233,527,c),
(233,529,l),
(269,539,o),
(295,566,o),
(295,607,cs),
(295,665,o),
(237,710,o),
(163,710,cs),
(84,710,o),
(33,669,o),
(27,611,c)
);
}
);
width = 332;
}
);
note = threesuperior;
unicode = 179;
},
{
glyphname = acute;
layers = (
{
layerId = m01;
shapes = (
{
closed = 1;
nodes = (
(17,657,l),
(17,589,l),
(230,703,l),
(230,782,l)
);
}
);
width = 247;
}
);
note = acute;
unicode = 180;
},
{
glyphname = uni00B5;
layers = (
{
layerId = m01;
shapes = (
{
closed = 1;
nodes = (
(568,548,l),
(477,548,l),
(477,245,ls),
(477,128,o),
(415,69,o),
(323,69,cs),
(231,69,o),
(167,129,o),
(167,248,cs),
(167,548,l),
(77,548,l),
(77,-260,l),
(167,-260,l),
(167,54,l),
(196,8,o),
(245,-9,o),
(295,-9,cs),
(374,-9,o),
(442,27,o),
(477,100,c),
(477,0,l),
(568,0,l)
);
}
);
width = 645;
}
);
note = uni00B5;
unicode = 181;
},
{
glyphname = paragraph;
layers = (
{
layerId = m01;
shapes = (
{
closed = 1;
nodes = (
(268,692,ls),
(106,692,o),
(31,602,o),
(31,488,cs),
(31,375,o),
(105,286,o),
(268,286,cs),
(279,286,l),
(279,0,l),
(360,0,l),
(360,621,l),
(437,621,l),
(437,0,l),
(518,0,l),
(518,692,l)
);
}
);
width = 596;
}
);
note = paragraph;
unicode = 182;
},
{
glyphname = periodcentered;
layers = (
{
layerId = m01;
shapes = (
{
closed = 1;
nodes = (
(169,376,o),
(142,403,o),
(109,403,cs),
(74,403,o),
(47,376,o),
(47,341,cs),
(47,306,o),
(74,279,o),
(109,279,cs),
(142,279,o),
(169,306,o),
(169,341,cs)
);
}
);
width = 212;
}
);
note = periodcentered;
unicode = 183;
},
{
glyphname = cedilla;
layers = (
{
layerId = m01;
shapes = (
{
closed = 1;
nodes = (
(125,7,l),
(64,7,l),
(64,-114,l),
(114,-114,ls),
(157,-114,o),
(178,-126,o),
(178,-157,cs),
(178,-189,o),
(157,-201,o),
(114,-201,cs),
(17,-201,l),
(17,-260,l),
(132,-260,ls),
(203,-260,o),
(254,-220,o),
(254,-157,cs),
(254,-91,o),
(202,-57,o),
(125,-58,c)
);
}
);
width = 272;
}
);
note = cedilla;
unicode = 184;
},
{
glyphname = onesuperior;
layers = (
{
layerId = m01;
shapes = (
{
closed = 1;
nodes = (
(79,352,l),
(151,352,l),
(151,704,l),
(25,704,l),
(25,648,l),
(79,648,l)
);
}
);
width = 196;
}
);
note = onesuperior;
unicode = 185;
},
{
glyphname = ordmasculine;
layers = (
{
layerId = m01;
shapes = (
{
closed = 1;
nodes = (
(33,419,o),
(111,346,o),
(217,346,cs),
(322,346,o),
(403,419,o),
(403,528,cs),
(403,638,o),
(324,709,o),
(218,709,cs),
(113,709,o),
(33,638,o),
(33,528,cs)
);
},
{
closed = 1;
nodes = (
(329,447,o),
(275,404,o),
(217,404,cs),
(157,404,o),
(108,447,o),
(108,527,cs),
(108,609,o),
(159,652,o),
(218,652,cs),
(276,652,o),
(329,609,o),
(329,527,cs)
);
}
);
width = 436;
}
);
note = ordmasculine;
unicode = 186;
},
{
glyphname = guillemotright;
layers = (
{
layerId = m01;
shapes = (
{
closed = 1;
nodes = (
(320,120,l),
(416,295,l),
(320,470,l),
(231,470,l),
(329,295,l),
(231,120,l)
);
},
{
closed = 1;
nodes = (
(139,120,l),
(235,295,l),
(139,470,l),
(50,470,l),
(149,295,l),
(50,120,l)
);
}
);
width = 461;
}
);
note = guillemotright;
unicode = 187;
},
{
glyphname = onequarter;
layers = (
{
layerId = m01;
shapes = (
{
closed = 1;
nodes = (
(62,0,l),
(148,0,l),
(522,698,l),
(436,698,l)
);
},
{
closed = 1;
nodes = (
(556,116,l),
(556,353,l),
(459,353,l),
(301,111,l),
(301,69,l),
(484,69,l),
(484,0,l),
(556,0,l),
(556,69,l),
(604,69,l),
(604,116,l)
);
},
{
closed = 1;
nodes = (
(375,116,l),
(486,291,l),
(486,116,l)
);
},
{
closed = 1;
nodes = (
(92,352,l),
(164,352,l),
(164,704,l),
(38,704,l),
(38,648,l),
(92,648,l)
);
}
);
width = 640;
}
);
note = onequarter;
unicode = 188;
},
{
glyphname = onehalf;
layers = (
{
layerId = m01;
shapes = (
{
closed = 1;
nodes = (
(57,0,l),
(144,0,l),
(509,698,l),
(423,698,l)
);
},
{
closed = 1;
nodes = (
(90,352,l),
(162,352,l),
(162,704,l),
(36,704,l),
(36,648,l),
(90,648,l)
);
},
{
closed = 1;
nodes = (
(441,250,l),
(445,282,o),
(463,301,o),
(495,301,cs),
(524,301,o),
(547,281,o),
(547,244,cs),
(547,202,o),
(518,171,o),
(479,139,cs),
(370,51,l),
(370,-1,l),
(627,-1,l),
(627,58,l),
(451,58,l),
(530,114,ls),
(592,159,o),
(623,194,o),
(623,247,cs),
(623,307,o),
(575,357,o),
(497,357,cs),
(416,357,o),
(371,311,o),
(368,250,c)
);
}
);
width = 675;
}
);
note = onehalf;
unicode = 189;
},
{
glyphname = threequarters;
layers = (
{
layerId = m01;
shapes = (
{
closed = 1;
nodes = (
(143,0,l),
(228,0,l),
(617,698,l),
(531,698,l)
);
},
{
closed = 1;
nodes = (
(635,116,l),
(635,353,l),
(538,353,l),
(380,111,l),
(380,69,l),
(563,69,l),
(563,0,l),
(635,0,l),
(635,69,l),
(682,69,l),
(682,116,l)
);
},
{
closed = 1;
nodes = (
(453,116,l),
(564,291,l),
(564,116,l)
);
},
{
closed = 1;
nodes = (
(108,611,l),
(114,637,o),
(134,655,o),
(170,655,cs),
(207,655,o),
(230,634,o),
(230,603,cs),
(230,570,o),
(204,553,o),
(167,553,cs),
(126,553,l),
(126,505,l),
(169,505,ls),
(206,505,o),
(232,486,o),
(232,453,cs),
(232,421,o),
(208,401,o),
(171,401,cs),
(137,401,o),
(112,417,o),
(107,454,c),
(35,454,l),
(40,386,o),
(92,347,o),
(172,347,cs),
(255,347,o),
(310,391,o),
(310,444,cs),
(310,487,o),
(280,515,o),
(245,527,c),
(245,529,l),
(281,539,o),
(307,566,o),
(307,607,cs),
(307,665,o),
(249,710,o),
(175,710,cs),
(96,710,o),
(45,669,o),
(39,611,c)
);
}
);
width = 709;
}
);
note = threequarters;
unicode = 190;
},
{
glyphname = questiondown;
layers = (
{
layerId = m01;
shapes = (
{
closed = 1;
nodes = (
(399,45,l),
(399,-33,o),
(348,-80,o),
(266,-80,cs),
(185,-80,o),
(133,-30,o),
(133,50,cs),
(133,171,o),
(230,193,o),
(344,193,cs),
(373,193,l),
(369,351,l),
(290,351,l),
(287,256,l),
(147,256,o),
(46,196,o),
(46,50,cs),
(46,-77,o),
(136,-156,o),
(267,-156,cs),
(398,-156,o),
(486,-76,o),
(485,45,c)
);
},
{
closed = 1;
nodes = (
(270,459,o),
(297,432,o),
(330,432,cs),
(365,432,o),
(392,459,o),
(392,494,cs),
(392,529,o),
(365,556,o),
(330,556,cs),
(297,556,o),
(270,529,o),
(270,494,cs)
);
}
);
width = 519;
}
);
note = questiondown;
unicode = 191;
},
{
glyphname = Agrave;
layers = (
{
layerId = m01;
shapes = (
{
closed = 1;
nodes = (
(545,0,l),
(641,0,l),
(390,693,l),
(285,693,l),
(33,0,l),
(129,0,l),
(185,155,l),
(489,155,l)
);
},
{
closed = 1;
nodes = (
(222,848,l),
(435,734,l),
(435,802,l),
(222,927,l)
);
},
{
closed = 1;
nodes = (
(463,229,l),
(211,229,l),
(337,581,l)
);
}
);
width = 674;
}
);
note = Agrave;
unicode = 192;
},
{
glyphname = Aacute;
layers = (
{
layerId = m01;
shapes = (
{
closed = 1;
nodes = (
(545,0,l),
(641,0,l),
(390,693,l),
(285,693,l),
(33,0,l),
(129,0,l),
(185,155,l),
(489,155,l)
);
},
{
closed = 1;
nodes = (
(222,802,l),
(222,734,l),
(435,848,l),
(435,927,l)
);
},
{
closed = 1;
nodes = (
(463,229,l),
(211,229,l),
(337,581,l)
);
}
);
width = 674;
}
);
note = Aacute;
unicode = 193;
},
{
glyphname = Acircumflex;
layers = (
{
layerId = m01;
shapes = (
{
closed = 1;
nodes = (
(545,0,l),
(641,0,l),
(390,693,l),
(285,693,l),
(33,0,l),
(129,0,l),
(185,155,l),
(489,155,l)
);
},
{
closed = 1;
nodes = (
(476,814,l),
(338,897,l),
(199,814,l),
(199,742,l),
(338,827,l),
(476,742,l)
);
},
{
closed = 1;
nodes = (
(463,229,l),
(211,229,l),
(337,581,l)
);
}
);
width = 674;
}
);
note = Acircumflex;
unicode = 194;
},
{
glyphname = Atilde;
layers = (
{
layerId = m01;
shapes = (
{
closed = 1;
nodes = (
(545,0,l),
(641,0,l),
(390,693,l),
(285,693,l),
(33,0,l),
(129,0,l),
(185,155,l),
(489,155,l)
);
},
{
closed = 1;
nodes = (
(243,752,l),
(247,782,o),
(264,796,o),
(286,796,cs),
(326,796,o),
(346,750,o),
(400,750,cs),
(452,750,o),
(492,786,o),
(500,854,c),
(448,854,l),
(444,825,o),
(426,811,o),
(404,811,cs),
(363,811,o),
(343,857,o),
(290,857,cs),
(238,857,o),
(200,821,o),
(190,752,c)
);
},
{
closed = 1;
nodes = (
(463,229,l),
(211,229,l),
(337,581,l)
);
}
);
width = 674;
}
);
note = Atilde;
unicode = 195;
},
{
glyphname = Adieresis;
layers = (
{
layerId = m01;
shapes = (
{
closed = 1;
nodes = (
(545,0,l),
(641,0,l),
(390,693,l),
(285,693,l),
(33,0,l),
(129,0,l),
(185,155,l),
(489,155,l)
);
},
{
closed = 1;
nodes = (
(285,767,o),
(309,790,o),
(309,819,cs),
(309,848,o),
(285,872,o),
(257,872,cs),
(227,872,o),
(204,848,o),
(204,819,cs),
(204,790,o),
(227,767,o),
(257,767,cs)
);
},
{
closed = 1;
nodes = (
(448,767,o),
(472,790,o),
(472,819,cs),
(472,848,o),
(448,872,o),
(419,872,cs),
(389,872,o),
(367,848,o),
(367,819,cs),
(367,790,o),
(389,767,o),
(419,767,cs)
);
},
{
closed = 1;
nodes = (
(463,229,l),
(211,229,l),
(337,581,l)
);
}
);
width = 674;
}
);
note = Adieresis;
unicode = 196;
},
{
glyphname = Aring;
layers = (
{
layerId = m01;
shapes = (
{
closed = 1;
nodes = (
(545,0,l),
(641,0,l),
(390,693,l),
(285,693,l),
(33,0,l),
(129,0,l),
(185,155,l),
(489,155,l)
);
},
{
closed = 1;
nodes = (
(308,801,o),
(284,824,o),
(284,858,cs),
(284,892,o),
(308,914,o),
(338,914,cs),
(368,914,o),
(392,892,o),
(392,858,cs),
(392,824,o),
(368,801,o),
(338,801,cs)
);
},
{
closed = 1;
nodes = (
(280,962,o),
(231,922,o),
(231,857,cs),
(231,792,o),
(280,752,o),
(338,752,cs),
(397,752,o),
(445,792,o),
(445,857,cs),
(445,922,o),
(397,962,o),
(338,962,cs)
);
},
{
closed = 1;
nodes = (
(463,229,l),
(211,229,l),
(337,581,l)
);
}
);
width = 674;
}
);
note = Aring;
unicode = 197;
},
{
glyphname = AE;
layers = (
{
layerId = m01;
shapes = (
{
closed = 1;
nodes = (
(465,629,l),
(465,226,l),
(238,226,l)
);
},
{
closed = 1;
nodes = (
(838,626,l),
(838,698,l),
(407,698,l),
(12,0,l),
(111,0,l),
(198,155,l),
(465,155,l),
(465,0,l),
(838,0,l),
(838,72,l),
(556,72,l),
(556,317,l),
(808,317,l),
(808,387,l),
(556,387,l),
(556,626,l)
);
}
);
width = 900;
}
);
note = AE;
unicode = 198;
},
{
glyphname = Ccedilla;
layers = (
{
layerId = m01;
shapes = (
{
closed = 1;
nodes = (
(43,149,o),
(183,7,o),
(365,-5,c),
(365,-114,l),
(415,-114,ls),
(458,-114,o),
(479,-126,o),
(479,-157,cs),
(479,-189,o),
(458,-201,o),
(415,-201,cs),
(318,-201,l),
(318,-260,l),
(433,-260,ls),
(504,-260,o),
(555,-220,o),
(555,-157,cs),
(555,-91,o),
(503,-57,o),
(426,-58,c),
(426,-5,l),
(560,6,o),
(666,80,o),
(714,203,c),
(605,203,l),
(567,120,o),
(493,73,o),
(391,73,cs),
(245,73,o),
(136,179,o),
(136,349,cs),
(136,520,o),
(245,626,o),
(391,626,cs),
(493,626,o),
(567,579,o),
(605,495,c),
(714,495,l),
(662,630,o),
(542,706,o),
(391,706,cs),
(196,706,o),
(43,558,o),
(43,349,cs)
);
}
);
width = 772;
}
);
note = Ccedilla;
unicode = 199;
},
{
glyphname = Egrave;
layers = (
{
layerId = m01;
shapes = (
{
closed = 1;
nodes = (
(452,698,l),
(77,698,l),
(77,0,l),
(452,0,l),
(452,75,l),
(168,75,l),
(168,315,l),
(422,315,l),
(422,390,l),
(168,390,l),
(168,623,l),
(452,623,l)
);
},
{
closed = 1;
nodes = (
(139,848,l),
(352,734,l),
(352,802,l),
(139,927,l)
);
}
);
width = 513;
}
);
note = Egrave;
unicode = 200;
},
{
glyphname = Eacute;
layers = (
{
layerId = m01;
shapes = (
{
closed = 1;
nodes = (
(452,698,l),
(77,698,l),
(77,0,l),
(452,0,l),
(452,75,l),
(168,75,l),
(168,315,l),
(422,315,l),
(422,390,l),
(168,390,l),
(168,623,l),
(452,623,l)
);
},
{
closed = 1;
nodes = (
(139,802,l),
(139,734,l),
(352,848,l),
(352,927,l)
);
}
);
width = 513;
}
);
note = Eacute;
unicode = 201;
},
{
glyphname = Ecircumflex;
layers = (
{
layerId = m01;
shapes = (
{
closed = 1;
nodes = (
(452,698,l),
(77,698,l),
(77,0,l),
(452,0,l),
(452,75,l),
(168,75,l),
(168,315,l),
(422,315,l),
(422,390,l),
(168,390,l),
(168,623,l),
(452,623,l)
);
},
{
closed = 1;
nodes = (
(393,814,l),
(255,897,l),
(116,814,l),
(116,742,l),
(255,827,l),
(393,742,l)
);
}
);
width = 513;
}
);
note = Ecircumflex;
unicode = 202;
},
{
glyphname = Edieresis;
layers = (
{
layerId = m01;
shapes = (
{
closed = 1;
nodes = (
(452,698,l),
(77,698,l),
(77,0,l),
(452,0,l),
(452,75,l),
(168,75,l),
(168,315,l),
(422,315,l),
(422,390,l),
(168,390,l),
(168,623,l),
(452,623,l)
);
},
{
closed = 1;
nodes = (
(202,767,o),
(226,790,o),
(226,819,cs),
(226,848,o),
(202,872,o),
(174,872,cs),
(144,872,o),
(121,848,o),
(121,819,cs),
(121,790,o),
(144,767,o),
(174,767,cs)
);
},
{
closed = 1;
nodes = (
(365,767,o),
(389,790,o),
(389,819,cs),
(389,848,o),
(365,872,o),
(336,872,cs),
(306,872,o),
(284,848,o),
(284,819,cs),
(284,790,o),
(306,767,o),
(336,767,cs)
);
}
);
width = 513;
}
);
note = Edieresis;
unicode = 203;
},
{
glyphname = Igrave;
layers = (
{
layerId = m01;
shapes = (
{
closed = 1;
nodes = (
(77,0,l),
(168,0,l),
(168,697,l),
(77,697,l)
);
},
{
closed = 1;
nodes = (
(7,848,l),
(220,734,l),
(220,802,l),
(7,927,l)
);
}
);
width = 246;
}
);
note = Igrave;
unicode = 204;
},
{
glyphname = Iacute;
layers = (
{
layerId = m01;
shapes = (
{
closed = 1;
nodes = (
(77,0,l),
(168,0,l),
(168,697,l),
(77,697,l)
);
},
{
closed = 1;
nodes = (
(7,802,l),
(7,734,l),
(220,848,l),
(220,927,l)
);
}
);
width = 246;
}
);
note = Iacute;
unicode = 205;
},
{
glyphname = Icircumflex;
layers = (
{
layerId = m01;
shapes = (
{
closed = 1;
nodes = (
(77,0,l),
(168,0,l),
(168,697,l),
(77,697,l)
);
},
{
closed = 1;
nodes = (
(261,814,l),
(123,897,l),
(-16,814,l),
(-16,742,l),
(123,827,l),
(261,742,l)
);
}
);
width = 246;
}
);
note = Icircumflex;
unicode = 206;
},
{
glyphname = Idieresis;
layers = (
{
layerId = m01;
shapes = (
{
closed = 1;
nodes = (
(77,0,l),
(168,0,l),
(168,697,l),
(77,697,l)
);
},
{
closed = 1;
nodes = (
(70,767,o),
(94,790,o),
(94,819,cs),
(94,848,o),
(70,872,o),
(42,872,cs),
(12,872,o),
(-11,848,o),
(-11,819,cs),
(-11,790,o),
(12,767,o),
(42,767,cs)
);
},
{
closed = 1;
nodes = (
(233,767,o),
(257,790,o),
(257,819,cs),
(257,848,o),
(233,872,o),
(204,872,cs),
(174,872,o),
(152,848,o),
(152,819,cs),
(152,790,o),
(174,767,o),
(204,767,cs)
);
}
);
width = 246;
}
);
note = Idieresis;
unicode = 207;
},
{
glyphname = Eth;
layers = (
{
layerId = m01;
shapes = (
{
closed = 1;
nodes = (
(96,697,l),
(96,389,l),
(9,389,l),
(9,305,l),
(96,305,l),
(96,0,l),
(313,0,ls),
(541,0,o),
(682,131,o),
(682,347,cs),
(682,563,o),
(541,697,o),
(313,697,cs)
);
},
{
closed = 1;
nodes = (
(187,70,l),
(187,305,l),
(379,305,l),
(379,389,l),
(187,389,l),
(187,623,l),
(313,623,ls),
(494,623,o),
(589,517,o),
(589,347,cs),
(589,177,o),
(494,70,o),
(313,70,cs)
);
}
);
width = 725;
}
);
note = Eth;
unicode = 208;
},
{
glyphname = Ntilde;
layers = (
{
layerId = m01;
shapes = (
{
closed = 1;
nodes = (
(534,698,l),
(534,144,l),
(168,698,l),
(77,698,l),
(77,0,l),
(168,0,l),
(168,555,l),
(534,0,l),
(625,0,l),
(625,698,l)
);
},
{
closed = 1;
nodes = (
(258,752,l),
(262,782,o),
(279,796,o),
(301,796,cs),
(341,796,o),
(361,750,o),
(415,750,cs),
(467,750,o),
(507,786,o),
(515,854,c),
(463,854,l),
(459,825,o),
(441,811,o),
(419,811,cs),
(378,811,o),
(358,857,o),
(305,857,cs),
(253,857,o),
(215,821,o),
(205,752,c)
);
}
);
width = 703;
}
);
note = Ntilde;
unicode = 209;
},
{
glyphname = Ograve;
layers = (
{
layerId = m01;
shapes = (
{
closed = 1;
nodes = (
(743,558,o),
(590,705,o),
(393,705,cs),
(197,705,o),
(43,558,o),
(43,349,cs),
(43,140,o),
(197,-7,o),
(393,-7,cs),
(590,-7,o),
(743,140,o),
(743,349,cs)
);
},
{
closed = 1;
nodes = (
(136,520,o),
(246,626,o),
(393,626,cs),
(540,626,o),
(650,520,o),
(650,349,cs),
(650,179,o),
(540,72,o),
(393,72,cs),
(246,72,o),
(136,179,o),
(136,349,cs)
);
},
{
closed = 1;
nodes = (
(280,848,l),
(493,734,l),
(493,802,l),
(280,927,l)
);
}
);
width = 786;
}
);
note = Ograve;
unicode = 210;
},
{
glyphname = Oacute;
layers = (
{
layerId = m01;
shapes = (
{
closed = 1;
nodes = (
(743,558,o),
(590,705,o),
(393,705,cs),
(197,705,o),
(43,558,o),
(43,349,cs),
(43,140,o),
(197,-7,o),
(393,-7,cs),
(590,-7,o),
(743,140,o),
(743,349,cs)
);
},
{
closed = 1;
nodes = (
(136,520,o),
(246,626,o),
(393,626,cs),
(540,626,o),
(650,520,o),
(650,349,cs),
(650,179,o),
(540,72,o),
(393,72,cs),
(246,72,o),
(136,179,o),
(136,349,cs)
);
},
{
closed = 1;
nodes = (
(280,802,l),
(280,734,l),
(493,848,l),
(493,927,l)
);
}
);
width = 786;
}
);
note = Oacute;
unicode = 211;
},
{
glyphname = Ocircumflex;
layers = (
{
layerId = m01;
shapes = (
{
closed = 1;
nodes = (
(743,558,o),
(590,705,o),
(393,705,cs),
(197,705,o),
(43,558,o),
(43,349,cs),
(43,140,o),
(197,-7,o),
(393,-7,cs),
(590,-7,o),
(743,140,o),
(743,349,cs)
);
},
{
closed = 1;
nodes = (
(136,520,o),
(246,626,o),
(393,626,cs),
(540,626,o),
(650,520,o),
(650,349,cs),
(650,179,o),
(540,72,o),
(393,72,cs),
(246,72,o),
(136,179,o),
(136,349,cs)
);
},
{
closed = 1;
nodes = (
(534,814,l),
(396,897,l),
(257,814,l),
(257,742,l),
(396,827,l),
(534,742,l)
);
}
);
width = 786;
}
);
note = Ocircumflex;
unicode = 212;
},
{
glyphname = Otilde;
layers = (
{
layerId = m01;
shapes = (
{
closed = 1;
nodes = (
(743,558,o),
(590,705,o),
(393,705,cs),
(197,705,o),
(43,558,o),
(43,349,cs),
(43,140,o),
(197,-7,o),
(393,-7,cs),
(590,-7,o),
(743,140,o),
(743,349,cs)
);
},
{
closed = 1;
nodes = (
(136,520,o),
(246,626,o),
(393,626,cs),
(540,626,o),
(650,520,o),
(650,349,cs),
(650,179,o),
(540,72,o),
(393,72,cs),
(246,72,o),
(136,179,o),
(136,349,cs)
);
},
{
closed = 1;
nodes = (
(302,752,l),
(306,782,o),
(323,796,o),
(345,796,cs),
(385,796,o),
(405,750,o),
(459,750,cs),
(511,750,o),
(551,786,o),
(559,854,c),
(507,854,l),
(503,825,o),
(485,811,o),
(463,811,cs),
(422,811,o),
(402,857,o),
(349,857,cs),
(297,857,o),
(259,821,o),
(249,752,c)
);
}
);
width = 786;
}
);
note = Otilde;
unicode = 213;
},
{
glyphname = Odieresis;
layers = (
{
layerId = m01;
shapes = (
{
closed = 1;
nodes = (
(743,558,o),
(590,705,o),
(393,705,cs),
(197,705,o),
(43,558,o),
(43,349,cs),
(43,140,o),
(197,-7,o),
(393,-7,cs),
(590,-7,o),
(743,140,o),
(743,349,cs)
);
},
{
closed = 1;
nodes = (
(136,520,o),
(246,626,o),
(393,626,cs),
(540,626,o),
(650,520,o),
(650,349,cs),
(650,179,o),
(540,72,o),
(393,72,cs),
(246,72,o),
(136,179,o),
(136,349,cs)
);
},
{
closed = 1;
nodes = (
(343,767,o),
(367,790,o),
(367,819,cs),
(367,848,o),
(343,872,o),
(315,872,cs),
(285,872,o),
(262,848,o),
(262,819,cs),
(262,790,o),
(285,767,o),
(315,767,cs)
);
},
{
closed = 1;
nodes = (
(506,767,o),
(530,790,o),
(530,819,cs),
(530,848,o),
(506,872,o),
(477,872,cs),
(447,872,o),
(425,848,o),
(425,819,cs),
(425,790,o),
(447,767,o),
(477,767,cs)
);
}
);
width = 786;
}
);
note = Odieresis;
unicode = 214;
},
{
glyphname = multiply;
layers = (
{
layerId = m01;
shapes = (
{
closed = 1;
nodes = (
(163,150,l),
(322,309,l),
(481,150,l),
(539,208,l),
(381,367,l),
(538,524,l),
(478,584,l),
(321,427,l),
(164,584,l),
(106,525,l),
(262,369,l),
(103,210,l)
);
}
);
width = 643;
}
);
note = multiply;
unicode = 215;
},
{
glyphname = Oslash;
layers = (
{
layerId = m01;
shapes = (
{
closed = 1;
nodes = (
(743,447,o),
(710,531,o),
(654,593,c),
(751,698,l),
(677,698,l),
(614,630,l),
(555,678,o),
(478,705,o),
(393,705,cs),
(197,705,o),
(43,558,o),
(43,349,cs),
(43,252,o),
(77,168,o),
(132,106,c),
(35,0,l),
(109,0,l),
(172,68,l),
(232,20,o),
(308,-7,o),
(393,-7,cs),
(590,-7,o),
(743,140,o),
(743,349,cs)
);
},
{
closed = 1;
nodes = (
(136,520,o),
(246,626,o),
(393,626,cs),
(457,626,o),
(514,606,o),
(558,569,c),
(191,169,l),
(156,215,o),
(136,276,o),
(136,349,cs)
);
},
{
closed = 1;
nodes = (
(329,72,o),
(272,92,o),
(228,129,c),
(596,529,l),
(630,483,o),
(650,422,o),
(650,349,cs),
(650,179,o),
(540,72,o),
(393,72,cs)
);
}
);
width = 786;
}
);
note = Oslash;
unicode = 216;
},
{
glyphname = Ugrave;
layers = (
{
layerId = m01;
shapes = (
{
closed = 1;
nodes = (
(75,257,ls),
(75,76,o),
(193,-7,o),
(337,-7,cs),
(481,-7,o),
(600,76,o),
(600,257,cs),
(600,697,l),
(509,697,l),
(509,256,ls),
(509,128,o),
(441,73,o),
(338,73,cs),
(235,73,o),
(166,128,o),
(166,256,cs),
(166,697,l),
(75,697,l)
);
},
{
closed = 1;
nodes = (
(222,848,l),
(435,734,l),
(435,802,l),
(222,927,l)
);
}
);
width = 675;
}
);
note = Ugrave;
unicode = 217;
},
{
glyphname = Uacute;
layers = (
{
layerId = m01;
shapes = (
{
closed = 1;
nodes = (
(75,257,ls),
(75,76,o),
(193,-7,o),
(337,-7,cs),
(481,-7,o),
(600,76,o),
(600,257,cs),
(600,697,l),
(509,697,l),
(509,256,ls),
(509,128,o),
(441,73,o),
(338,73,cs),
(235,73,o),
(166,128,o),
(166,256,cs),
(166,697,l),
(75,697,l)
);
},
{
closed = 1;
nodes = (
(222,802,l),
(222,734,l),
(435,848,l),
(435,927,l)
);
}
);
width = 675;
}
);
note = Uacute;
unicode = 218;
},
{
glyphname = Ucircumflex;
layers = (
{
layerId = m01;
shapes = (
{
closed = 1;
nodes = (
(75,257,ls),
(75,76,o),
(193,-7,o),
(337,-7,cs),
(481,-7,o),
(600,76,o),
(600,257,cs),
(600,697,l),
(509,697,l),
(509,256,ls),
(509,128,o),
(441,73,o),
(338,73,cs),
(235,73,o),
(166,128,o),
(166,256,cs),
(166,697,l),
(75,697,l)
);
},
{
closed = 1;
nodes = (
(476,814,l),
(338,897,l),
(199,814,l),
(199,742,l),
(338,827,l),
(476,742,l)
);
}
);
width = 675;
}
);
note = Ucircumflex;
unicode = 219;
},
{
glyphname = Udieresis;
layers = (
{
layerId = m01;
shapes = (
{
closed = 1;
nodes = (
(75,257,ls),
(75,76,o),
(193,-7,o),
(337,-7,cs),
(481,-7,o),
(600,76,o),
(600,257,cs),
(600,697,l),
(509,697,l),
(509,256,ls),
(509,128,o),
(441,73,o),
(338,73,cs),
(235,73,o),
(166,128,o),
(166,256,cs),
(166,697,l),
(75,697,l)
);
},
{
closed = 1;
nodes = (
(285,767,o),
(309,790,o),
(309,819,cs),
(309,848,o),
(285,872,o),
(257,872,cs),
(227,872,o),
(204,848,o),
(204,819,cs),
(204,790,o),
(227,767,o),
(257,767,cs)
);
},
{
closed = 1;
nodes = (
(448,767,o),
(472,790,o),
(472,819,cs),
(472,848,o),
(448,872,o),
(419,872,cs),
(389,872,o),
(367,848,o),
(367,819,cs),
(367,790,o),
(389,767,o),
(419,767,cs)
);
}
);
width = 675;
}
);
note = Udieresis;
unicode = 220;
},
{
glyphname = Yacute;
layers = (
{
layerId = m01;
shapes = (
{
closed = 1;
nodes = (
(247,263,l),
(247,0,l),
(338,0,l),
(338,263,l),
(565,697,l),
(464,697,l),
(292,344,l),
(120,697,l),
(19,697,l)
);
},
{
closed = 1;
nodes = (
(177,802,l),
(177,734,l),
(390,848,l),
(390,927,l)
);
}
);
width = 584;
}
);
note = Yacute;
unicode = 221;
},
{
glyphname = Thorn;
layers = (
{
layerId = m01;
shapes = (
{
closed = 1;
nodes = (
(168,219,l),
(168,481,l),
(302,481,ls),
(406,481,o),
(450,429,o),
(450,349,cs),
(450,271,o),
(406,219,o),
(302,219,cs)
);
},
{
closed = 1;
nodes = (
(543,463,o),
(466,553,o),
(302,553,cs),
(168,553,l),
(168,698,l),
(77,698,l),
(77,0,l),
(168,0,l),
(168,146,l),
(302,146,ls),
(475,146,o),
(543,242,o),
(543,349,cs)
);
}
);
width = 579;
}
);
note = Thorn;
unicode = 222;
},
{
glyphname = germandbls;
layers = (
{
layerId = m01;
shapes = (
{
closed = 1;
nodes = (
(60,0,l),
(151,0,l),
(151,550,ls),
(151,640,o),
(192,694,o),
(294,694,cs),
(373,694,o),
(423,658,o),
(423,598,cs),
(423,510,o),
(281,477,o),
(281,375,cs),
(281,312,o),
(326,277,o),
(431,242,cs),
(505,218,o),
(530,192,o),
(530,144,cs),
(530,92,o),
(495,63,o),
(433,63,cs),
(365,63,o),
(325,106,o),
(321,170,c),
(229,170,l),
(239,57,o),
(318,-10,o),
(433,-10,cs),
(553,-10,o),
(623,56,o),
(623,151,cs),
(623,228,o),
(583,279,o),
(484,311,cs),
(395,341,o),
(373,359,o),
(373,387,cs),
(373,446,o),
(514,481,o),
(514,605,cs),
(514,691,o),
(439,771,o),
(295,771,cs),
(134,771,o),
(60,678,o),
(60,561,cs)
);
}
);
width = 681;
}
);
note = germandbls;
unicode = 223;
},
{
glyphname = agrave;
layers = (
{
layerId = m01;
shapes = (
{
closed = 1;
nodes = (
(43,106,o),
(156,-9,o),
(302,-9,cs),
(403,-9,o),
(474,43,o),
(507,102,c),
(507,0,l),
(599,0,l),
(599,548,l),
(507,548,l),
(507,448,l),
(475,505,o),
(405,557,o),
(303,557,cs),
(156,557,o),
(43,447,o),
(43,276,cs)
);
},
{
closed = 1;
nodes = (
(507,146,o),
(421,71,o),
(321,71,cs),
(221,71,o),
(136,147,o),
(136,276,cs),
(136,405,o),
(221,478,o),
(321,478,cs),
(421,478,o),
(507,402,o),
(507,275,cs)
);
},
{
closed = 1;
nodes = (
(223,703,l),
(436,589,l),
(436,657,l),
(223,782,l)
);
}
);
width = 676;
}
);
note = agrave;
unicode = 224;
},
{
glyphname = aacute;
layers = (
{
layerId = m01;
shapes = (
{
closed = 1;
nodes = (
(43,106,o),
(156,-9,o),
(302,-9,cs),
(403,-9,o),
(474,43,o),
(507,102,c),
(507,0,l),
(599,0,l),
(599,548,l),
(507,548,l),
(507,448,l),
(475,505,o),
(405,557,o),
(303,557,cs),
(156,557,o),
(43,447,o),
(43,276,cs)
);
},
{
closed = 1;
nodes = (
(507,146,o),
(421,71,o),
(321,71,cs),
(221,71,o),
(136,147,o),
(136,276,cs),
(136,405,o),
(221,478,o),
(321,478,cs),
(421,478,o),
(507,402,o),
(507,275,cs)
);
},
{
closed = 1;
nodes = (
(223,657,l),
(223,589,l),
(436,703,l),
(436,782,l)
);
}
);
width = 676;
}
);
note = aacute;
unicode = 225;
},
{
glyphname = acircumflex;
layers = (
{
layerId = m01;
shapes = (
{
closed = 1;
nodes = (
(43,106,o),
(156,-9,o),
(302,-9,cs),
(403,-9,o),
(474,43,o),
(507,102,c),
(507,0,l),
(599,0,l),
(599,548,l),
(507,548,l),
(507,448,l),
(475,505,o),
(405,557,o),
(303,557,cs),
(156,557,o),
(43,447,o),
(43,276,cs)
);
},
{
closed = 1;
nodes = (
(507,146,o),
(421,71,o),
(321,71,cs),
(221,71,o),
(136,147,o),
(136,276,cs),
(136,405,o),
(221,478,o),
(321,478,cs),
(421,478,o),
(507,402,o),
(507,275,cs)
);
},
{
closed = 1;
nodes = (
(477,669,l),
(339,752,l),
(200,669,l),
(200,597,l),
(339,682,l),
(477,597,l)
);
}
);
width = 676;
}
);
note = acircumflex;
unicode = 226;
},
{
glyphname = atilde;
layers = (
{
layerId = m01;
shapes = (
{
closed = 1;
nodes = (
(43,106,o),
(156,-9,o),
(302,-9,cs),
(403,-9,o),
(474,43,o),
(507,102,c),
(507,0,l),
(599,0,l),
(599,548,l),
(507,548,l),
(507,448,l),
(475,505,o),
(405,557,o),
(303,557,cs),
(156,557,o),
(43,447,o),
(43,276,cs)
);
},
{
closed = 1;
nodes = (
(507,146,o),
(421,71,o),
(321,71,cs),
(221,71,o),
(136,147,o),
(136,276,cs),
(136,405,o),
(221,478,o),
(321,478,cs),
(421,478,o),
(507,402,o),
(507,275,cs)
);
},
{
closed = 1;
nodes = (
(245,607,l),
(249,637,o),
(266,651,o),
(288,651,cs),
(328,651,o),
(348,605,o),
(402,605,cs),
(454,605,o),
(494,641,o),
(502,709,c),
(450,709,l),
(446,680,o),
(428,666,o),
(406,666,cs),
(365,666,o),
(345,712,o),
(292,712,cs),
(240,712,o),
(202,676,o),
(192,607,c)
);
}
);
width = 676;
}
);
note = atilde;
unicode = 227;
},
{
glyphname = adieresis;
layers = (
{
layerId = m01;
shapes = (
{
closed = 1;
nodes = (
(43,106,o),
(156,-9,o),
(302,-9,cs),
(403,-9,o),
(474,43,o),
(507,102,c),
(507,0,l),
(599,0,l),
(599,548,l),
(507,548,l),
(507,448,l),
(475,505,o),
(405,557,o),
(303,557,cs),
(156,557,o),
(43,447,o),
(43,276,cs)
);
},
{
closed = 1;
nodes = (
(507,146,o),
(421,71,o),
(321,71,cs),
(221,71,o),
(136,147,o),
(136,276,cs),
(136,405,o),
(221,478,o),
(321,478,cs),
(421,478,o),
(507,402,o),
(507,275,cs)
);
},
{
closed = 1;
nodes = (
(286,622,o),
(310,645,o),
(310,674,cs),
(310,703,o),
(286,727,o),
(258,727,cs),
(228,727,o),
(205,703,o),
(205,674,cs),
(205,645,o),
(228,622,o),
(258,622,cs)
);
},
{
closed = 1;
nodes = (
(449,622,o),
(473,645,o),
(473,674,cs),
(473,703,o),
(449,727,o),
(420,727,cs),
(390,727,o),
(368,703,o),
(368,674,cs),
(368,645,o),
(390,622,o),
(420,622,cs)
);
}
);
width = 676;
}
);
note = adieresis;
unicode = 228;
},
{
glyphname = aring;
layers = (
{
layerId = m01;
shapes = (
{
closed = 1;
nodes = (
(43,106,o),
(156,-9,o),
(302,-9,cs),
(403,-9,o),
(474,43,o),
(507,102,c),
(507,0,l),
(599,0,l),
(599,548,l),
(507,548,l),
(507,448,l),
(475,505,o),
(405,557,o),
(303,557,cs),
(156,557,o),
(43,447,o),
(43,276,cs)
);
},
{
closed = 1;
nodes = (
(507,146,o),
(421,71,o),
(321,71,cs),
(221,71,o),
(136,147,o),
(136,276,cs),
(136,405,o),
(221,478,o),
(321,478,cs),
(421,478,o),
(507,402,o),
(507,275,cs)
);
},
{
closed = 1;
nodes = (
(281,817,o),
(232,777,o),
(232,712,cs),
(232,647,o),
(281,607,o),
(339,607,cs),
(398,607,o),
(446,647,o),
(446,712,cs),
(446,777,o),
(398,817,o),
(339,817,cs)
);
},
{
closed = 1;
nodes = (
(309,656,o),
(285,679,o),
(285,713,cs),
(285,747,o),
(309,769,o),
(339,769,cs),
(369,769,o),
(393,747,o),
(393,713,cs),
(393,679,o),
(369,656,o),
(339,656,cs)
);
}
);
width = 676;
}
);
note = aring;
unicode = 229;
},
{
glyphname = ae;
layers = (
{
layerId = m01;
shapes = (
{
closed = 1;
nodes = (
(881,480,o),
(962,418,o),
(961,309,c),
(600,309,l),
(610,417,o),
(691,480,o),
(784,480,cs)
);
},
{
closed = 1;
nodes = (
(945,169,l),
(927,109,o),
(870,68,o),
(783,68,cs),
(698,68,o),
(610,126,o),
(600,243,c),
(1051,243,l),
(1054,262,o),
(1055,278,o),
(1055,297,cs),
(1055,442,o),
(954,557,o),
(798,557,cs),
(711,557,o),
(639,524,o),
(589,447,c),
(589,548,l),
(513,548,l),
(513,447,l),
(469,517,o),
(399,557,o),
(308,557,cs),
(156,557,o),
(43,447,o),
(43,276,cs),
(43,106,o),
(156,-9,o),
(303,-9,cs),
(399,-9,o),
(472,41,o),
(510,105,c),
(510,0,l),
(589,0,l),
(589,106,l),
(628,36,o),
(708,-9,o),
(798,-9,cs),
(929,-9,o),
(1015,69,o),
(1043,169,c)
);
},
{
closed = 1;
nodes = (
(136,405,o),
(221,478,o),
(321,478,cs),
(421,478,o),
(507,402,o),
(507,275,cs),
(507,146,o),
(421,71,o),
(321,71,cs),
(221,71,o),
(136,147,o),
(136,276,cs)
);
}
);
width = 1097;
}
);
note = ae;
unicode = 230;
},
{
glyphname = ccedilla;
layers = (
{
layerId = m01;
shapes = (
{
closed = 1;
nodes = (
(43,114,o),
(139,7,o),
(277,-7,c),
(277,-114,l),
(327,-114,ls),
(370,-114,o),
(391,-126,o),
(391,-157,cs),
(391,-189,o),
(370,-201,o),
(327,-201,cs),
(230,-201,l),
(230,-260,l),
(345,-260,ls),
(416,-260,o),
(467,-220,o),
(467,-157,cs),
(467,-91,o),
(415,-57,o),
(338,-58,c),
(338,-8,l),
(458,2,o),
(537,75,o),
(563,176,c),
(465,176,l),
(445,107,o),
(391,68,o),
(310,68,cs),
(210,68,o),
(136,139,o),
(136,275,cs),
(136,409,o),
(210,480,o),
(310,480,cs),
(391,480,o),
(446,438,o),
(465,372,c),
(563,372,l),
(535,487,o),
(446,557,o),
(310,557,cs),
(154,557,o),
(43,447,o),
(43,275,cs)
);
}
);
width = 607;
}
);
note = ccedilla;
unicode = 231;
},
{
glyphname = egrave;
layers = (
{
layerId = m01;
shapes = (
{
closed = 1;
nodes = (
(404,480,o),
(484,421,o),
(483,314,c),
(137,314,l),
(147,421,o),
(221,480,o),
(310,480,cs)
);
},
{
closed = 1;
nodes = (
(468,169,l),
(448,110,o),
(396,68,o),
(314,68,cs),
(221,68,o),
(143,129,o),
(136,240,c),
(574,240,l),
(576,259,o),
(577,275,o),
(577,295,cs),
(577,445,o),
(473,557,o),
(314,557,cs),
(154,557,o),
(43,448,o),
(43,275,cs),
(43,101,o),
(158,-9,o),
(314,-9,cs),
(450,-9,o),
(538,69,o),
(566,169,c)
);
},
{
closed = 1;
nodes = (
(195,703,l),
(408,589,l),
(408,657,l),
(195,782,l)
);
}
);
width = 620;
}
);
note = egrave;
unicode = 232;
},
{
glyphname = eacute;
layers = (
{
layerId = m01;
shapes = (
{
closed = 1;
nodes = (
(404,480,o),
(484,421,o),
(483,314,c),
(137,314,l),
(147,421,o),
(221,480,o),
(310,480,cs)
);
},
{
closed = 1;
nodes = (
(468,169,l),
(448,110,o),
(396,68,o),
(314,68,cs),
(221,68,o),
(143,129,o),
(136,240,c),
(574,240,l),
(576,259,o),
(577,275,o),
(577,295,cs),
(577,445,o),
(473,557,o),
(314,557,cs),
(154,557,o),
(43,448,o),
(43,275,cs),
(43,101,o),
(158,-9,o),
(314,-9,cs),
(450,-9,o),
(538,69,o),
(566,169,c)
);
},
{
closed = 1;
nodes = (
(195,657,l),
(195,589,l),
(408,703,l),
(408,782,l)
);
}
);
width = 620;
}
);
note = eacute;
unicode = 233;
},
{
glyphname = ecircumflex;
layers = (
{
layerId = m01;
shapes = (
{
closed = 1;
nodes = (
(404,480,o),
(484,421,o),
(483,314,c),
(137,314,l),
(147,421,o),
(221,480,o),
(310,480,cs)
);
},
{
closed = 1;
nodes = (
(468,169,l),
(448,110,o),
(396,68,o),
(314,68,cs),
(221,68,o),
(143,129,o),
(136,240,c),
(574,240,l),
(576,259,o),
(577,275,o),
(577,295,cs),
(577,445,o),
(473,557,o),
(314,557,cs),
(154,557,o),
(43,448,o),
(43,275,cs),
(43,101,o),
(158,-9,o),
(314,-9,cs),
(450,-9,o),
(538,69,o),
(566,169,c)
);
},
{
closed = 1;
nodes = (
(449,669,l),
(311,752,l),
(172,669,l),
(172,597,l),
(311,682,l),
(449,597,l)
);
}
);
width = 620;
}
);
note = ecircumflex;
unicode = 234;
},
{
glyphname = edieresis;
layers = (
{
layerId = m01;
shapes = (
{
closed = 1;
nodes = (
(404,480,o),
(484,421,o),
(483,314,c),
(137,314,l),
(147,421,o),
(221,480,o),
(310,480,cs)
);
},
{
closed = 1;
nodes = (
(468,169,l),
(448,110,o),
(396,68,o),
(314,68,cs),
(221,68,o),
(143,129,o),
(136,240,c),
(574,240,l),
(576,259,o),
(577,275,o),
(577,295,cs),
(577,445,o),
(473,557,o),
(314,557,cs),
(154,557,o),
(43,448,o),
(43,275,cs),
(43,101,o),
(158,-9,o),
(314,-9,cs),
(450,-9,o),
(538,69,o),
(566,169,c)
);
},
{
closed = 1;
nodes = (
(257,622,o),
(281,645,o),
(281,674,cs),
(281,703,o),
(257,727,o),
(229,727,cs),
(199,727,o),
(176,703,o),
(176,674,cs),
(176,645,o),
(199,622,o),
(229,622,cs)
);
},
{
closed = 1;
nodes = (
(420,622,o),
(444,645,o),
(444,674,cs),
(444,703,o),
(420,727,o),
(391,727,cs),
(361,727,o),
(339,703,o),
(339,674,cs),
(339,645,o),
(361,622,o),
(391,622,cs)
);
}
);
width = 620;
}
);
note = edieresis;
unicode = 235;
},
{
glyphname = igrave;
layers = (
{
layerId = m01;
shapes = (
{
closed = 1;
nodes = (
(77,0,l),
(168,0,l),
(168,548,l),
(77,548,l)
);
},
{
closed = 1;
nodes = (
(7,703,l),
(220,589,l),
(220,657,l),
(7,782,l)
);
}
);
width = 246;
}
);
note = igrave;
unicode = 236;
},
{
glyphname = iacute;
layers = (
{
layerId = m01;
shapes = (
{
closed = 1;
nodes = (
(77,0,l),
(168,0,l),
(168,548,l),
(77,548,l)
);
},
{
closed = 1;
nodes = (
(7,657,l),
(7,589,l),
(220,703,l),
(220,782,l)
);
}
);
width = 246;
}
);
note = iacute;
unicode = 237;
},
{
glyphname = icircumflex;
layers = (
{
layerId = m01;
shapes = (
{
closed = 1;
nodes = (
(77,0,l),
(168,0,l),
(168,548,l),
(77,548,l)
);
},
{
closed = 1;
nodes = (
(261,669,l),
(123,752,l),
(-16,669,l),
(-16,597,l),
(123,682,l),
(261,597,l)
);
}
);
width = 246;
}
);
note = icircumflex;
unicode = 238;
},
{
glyphname = idieresis;
layers = (
{
layerId = m01;
shapes = (
{
closed = 1;
nodes = (
(77,0,l),
(168,0,l),
(168,548,l),
(77,548,l)
);
},
{
closed = 1;
nodes = (
(70,622,o),
(94,645,o),
(94,674,cs),
(94,703,o),
(70,727,o),
(42,727,cs),
(12,727,o),
(-11,703,o),
(-11,674,cs),
(-11,645,o),
(12,622,o),
(42,622,cs)
);
},
{
closed = 1;
nodes = (
(233,622,o),
(257,645,o),
(257,674,cs),
(257,703,o),
(233,727,o),
(204,727,cs),
(174,727,o),
(152,703,o),
(152,674,cs),
(152,645,o),
(174,622,o),
(204,622,cs)
);
}
);
width = 246;
}
);
note = idieresis;
unicode = 239;
},
{
glyphname = eth;
layers = (
{
layerId = m01;
shapes = (
{
closed = 1;
nodes = (
(261,644,l),
(261,594,l),
(391,638,l),
(440,583,o),
(471,528,o),
(492,466,c),
(450,528,o),
(389,558,o),
(311,558,cs),
(159,558,o),
(43,448,o),
(43,278,cs),
(43,105,o),
(156,-9,o),
(316,-9,cs),
(476,-9,o),
(596,100,o),
(596,315,cs),
(596,446,o),
(549,559,o),
(458,660,c),
(552,692,l),
(552,743,l),
(421,699,l),
(407,713,o),
(391,726,o),
(375,740,c),
(282,740,l),
(309,718,o),
(333,697,o),
(355,676,c)
);
},
{
closed = 1;
nodes = (
(136,412,o),
(220,481,o),
(318,481,cs),
(415,481,o),
(502,411,o),
(502,275,cs),
(502,140,o),
(414,68,o),
(316,68,cs),
(217,68,o),
(136,141,o),
(136,278,cs)
);
}
);
width = 638;
}
);
note = eth;
unicode = 240;
},
{
glyphname = ntilde;
layers = (
{
layerId = m01;
shapes = (
{
closed = 1;
nodes = (
(168,303,ls),
(168,421,o),
(232,479,o),
(325,479,cs),
(417,479,o),
(478,422,o),
(478,310,cs),
(478,0,l),
(568,0,l),
(568,323,ls),
(568,480,o),
(471,558,o),
(344,558,cs),
(270,558,o),
(204,527,o),
(168,470,c),
(168,548,l),
(77,548,l),
(77,0,l),
(168,0,l)
);
},
{
closed = 1;
nodes = (
(228,607,l),
(232,637,o),
(249,651,o),
(271,651,cs),
(311,651,o),
(331,605,o),
(385,605,cs),
(437,605,o),
(477,641,o),
(485,709,c),
(433,709,l),
(429,680,o),
(411,666,o),
(389,666,cs),
(348,666,o),
(328,712,o),
(275,712,cs),
(223,712,o),
(185,676,o),
(175,607,c)
);
}
);
width = 640;
}
);
note = ntilde;
unicode = 241;
},
{
glyphname = ograve;
layers = (
{
layerId = m01;
shapes = (
{
closed = 1;
nodes = (
(597,448,o),
(476,557,o),
(320,557,cs),
(165,557,o),
(43,448,o),
(43,275,cs),
(43,101,o),
(161,-9,o),
(316,-9,cs),
(472,-9,o),
(597,101,o),
(597,275,cs)
);
},
{
closed = 1;
nodes = (
(136,413,o),
(223,478,o),
(319,478,cs),
(413,478,o),
(504,413,o),
(504,275,cs),
(504,136,o),
(411,71,o),
(316,71,cs),
(221,71,o),
(136,136,o),
(136,275,cs)
);
},
{
closed = 1;
nodes = (
(205,710,l),
(418,596,l),
(418,664,l),
(205,789,l)
);
}
);
width = 640;
}
);
note = ograve;
unicode = 242;
},
{
glyphname = oacute;
layers = (
{
layerId = m01;
shapes = (
{
closed = 1;
nodes = (
(597,448,o),
(476,557,o),
(320,557,cs),
(165,557,o),
(43,448,o),
(43,275,cs),
(43,101,o),
(161,-9,o),
(316,-9,cs),
(472,-9,o),
(597,101,o),
(597,275,cs)
);
},
{
closed = 1;
nodes = (
(136,413,o),
(223,478,o),
(319,478,cs),
(413,478,o),
(504,413,o),
(504,275,cs),
(504,136,o),
(411,71,o),
(316,71,cs),
(221,71,o),
(136,136,o),
(136,275,cs)
);
},
{
closed = 1;
nodes = (
(205,664,l),
(205,596,l),
(418,710,l),
(418,789,l)
);
}
);
width = 640;
}
);
note = oacute;
unicode = 243;
},
{
glyphname = ocircumflex;
layers = (
{
layerId = m01;
shapes = (
{
closed = 1;
nodes = (
(597,448,o),
(476,557,o),
(320,557,cs),
(165,557,o),
(43,448,o),
(43,275,cs),
(43,101,o),
(161,-9,o),
(316,-9,cs),
(472,-9,o),
(597,101,o),
(597,275,cs)
);
},
{
closed = 1;
nodes = (
(136,413,o),
(223,478,o),
(319,478,cs),
(413,478,o),
(504,413,o),
(504,275,cs),
(504,136,o),
(411,71,o),
(316,71,cs),
(221,71,o),
(136,136,o),
(136,275,cs)
);
},
{
closed = 1;
nodes = (
(459,676,l),
(321,759,l),
(182,676,l),
(182,604,l),
(321,689,l),
(459,604,l)
);
}
);
width = 640;
}
);
note = ocircumflex;
unicode = 244;
},
{
glyphname = otilde;
layers = (
{
layerId = m01;
shapes = (
{
closed = 1;
nodes = (
(597,448,o),
(476,557,o),
(320,557,cs),
(165,557,o),
(43,448,o),
(43,275,cs),
(43,101,o),
(161,-9,o),
(316,-9,cs),
(472,-9,o),
(597,101,o),
(597,275,cs)
);
},
{
closed = 1;
nodes = (
(136,413,o),
(223,478,o),
(319,478,cs),
(413,478,o),
(504,413,o),
(504,275,cs),
(504,136,o),
(411,71,o),
(316,71,cs),
(221,71,o),
(136,136,o),
(136,275,cs)
);
},
{
closed = 1;
nodes = (
(227,614,l),
(231,644,o),
(248,658,o),
(270,658,cs),
(310,658,o),
(330,612,o),
(384,612,cs),
(436,612,o),
(476,648,o),
(484,716,c),
(432,716,l),
(428,687,o),
(410,673,o),
(388,673,cs),
(347,673,o),
(327,719,o),
(274,719,cs),
(222,719,o),
(184,683,o),
(174,614,c)
);
}
);
width = 640;
}
);
note = otilde;
unicode = 245;
},
{
glyphname = odieresis;
layers = (
{
layerId = m01;
shapes = (
{
closed = 1;
nodes = (
(597,448,o),
(476,557,o),
(320,557,cs),
(165,557,o),
(43,448,o),
(43,275,cs),
(43,101,o),
(161,-9,o),
(316,-9,cs),
(472,-9,o),
(597,101,o),
(597,275,cs)
);
},
{
closed = 1;
nodes = (
(136,413,o),
(223,478,o),
(319,478,cs),
(413,478,o),
(504,413,o),
(504,275,cs),
(504,136,o),
(411,71,o),
(316,71,cs),
(221,71,o),
(136,136,o),
(136,275,cs)
);
},
{
closed = 1;
nodes = (
(268,629,o),
(292,652,o),
(292,681,cs),
(292,710,o),
(268,734,o),
(240,734,cs),
(210,734,o),
(187,710,o),
(187,681,cs),
(187,652,o),
(210,629,o),
(240,629,cs)
);
},
{
closed = 1;
nodes = (
(431,629,o),
(455,652,o),
(455,681,cs),
(455,710,o),
(431,734,o),
(402,734,cs),
(372,734,o),
(350,710,o),
(350,681,cs),
(350,652,o),
(372,629,o),
(402,629,cs)
);
}
);
width = 640;
}
);
note = odieresis;
unicode = 246;
},
{
glyphname = divide;
layers = (
{
layerId = m01;
shapes = (
{
closed = 1;
nodes = (
(78,328,l),
(588,328,l),
(588,405,l),
(78,405,l)
);
},
{
closed = 1;
nodes = (
(395,188,o),
(368,215,o),
(335,215,cs),
(300,215,o),
(273,188,o),
(273,153,cs),
(273,118,o),
(300,91,o),
(335,91,cs),
(368,91,o),
(395,118,o),
(395,153,cs)
);
},
{
closed = 1;
nodes = (
(395,617,o),
(368,644,o),
(335,644,cs),
(300,644,o),
(273,617,o),
(273,582,cs),
(273,547,o),
(300,520,o),
(335,520,cs),
(368,520,o),
(395,547,o),
(395,582,cs)
);
}
);
width = 657;
}
);
note = divide;
unicode = 247;
},
{
glyphname = oslash;
layers = (
{
layerId = m01;
shapes = (
{
closed = 1;
nodes = (
(597,354,o),
(572,420,o),
(530,468,c),
(603,548,l),
(538,548,l),
(495,500,l),
(447,537,o),
(387,557,o),
(320,557,cs),
(165,557,o),
(43,448,o),
(43,275,cs),
(43,195,o),
(68,128,o),
(110,79,c),
(38,0,l),
(103,0,l),
(145,46,l),
(192,11,o),
(250,-9,o),
(316,-9,cs),
(472,-9,o),
(597,101,o),
(597,275,cs)
);
},
{
closed = 1;
nodes = (
(136,413,o),
(223,478,o),
(319,478,cs),
(362,478,o),
(404,465,o),
(437,437,c),
(171,145,l),
(149,178,o),
(136,221,o),
(136,275,cs)
);
},
{
closed = 1;
nodes = (
(274,71,o),
(234,84,o),
(203,109,c),
(469,401,l),
(491,370,o),
(504,328,o),
(504,275,cs),
(504,136,o),
(411,71,o),
(316,71,cs)
);
}
);
width = 640;
}
);
note = oslash;
unicode = 248;
},
{
glyphname = ugrave;
layers = (
{
layerId = m01;
shapes = (
{
closed = 1;
nodes = (
(563,548,l),
(472,548,l),
(472,247,ls),
(472,129,o),
(409,71,o),
(315,71,cs),
(223,71,o),
(162,128,o),
(162,239,cs),
(162,548,l),
(72,548,l),
(72,227,ls),
(72,70,o),
(171,-8,o),
(297,-8,cs),
(370,-8,o),
(437,24,o),
(472,81,c),
(472,0,l),
(563,0,l)
);
},
{
closed = 1;
nodes = (
(205,703,l),
(418,589,l),
(418,657,l),
(205,782,l)
);
}
);
width = 640;
}
);
note = ugrave;
unicode = 249;
},
{
glyphname = uacute;
layers = (
{
layerId = m01;
shapes = (
{
closed = 1;
nodes = (
(563,548,l),
(472,548,l),
(472,247,ls),
(472,129,o),
(409,71,o),
(315,71,cs),
(223,71,o),
(162,128,o),
(162,239,cs),
(162,548,l),
(72,548,l),
(72,227,ls),
(72,70,o),
(171,-8,o),
(297,-8,cs),
(370,-8,o),
(437,24,o),
(472,81,c),
(472,0,l),
(563,0,l)
);
},
{
closed = 1;
nodes = (
(205,657,l),
(205,589,l),
(418,703,l),
(418,782,l)
);
}
);
width = 640;
}
);
note = uacute;
unicode = 250;
},
{
glyphname = ucircumflex;
layers = (
{
layerId = m01;
shapes = (
{
closed = 1;
nodes = (
(563,548,l),
(472,548,l),
(472,247,ls),
(472,129,o),
(409,71,o),
(315,71,cs),
(223,71,o),
(162,128,o),
(162,239,cs),
(162,548,l),
(72,548,l),
(72,227,ls),
(72,70,o),
(171,-8,o),
(297,-8,cs),
(370,-8,o),
(437,24,o),
(472,81,c),
(472,0,l),
(563,0,l)
);
},
{
closed = 1;
nodes = (
(459,669,l),
(321,752,l),
(182,669,l),
(182,597,l),
(321,682,l),
(459,597,l)
);
}
);
width = 640;
}
);
note = ucircumflex;
unicode = 251;
},
{
glyphname = udieresis;
layers = (
{
layerId = m01;
shapes = (
{
closed = 1;
nodes = (
(563,548,l),
(472,548,l),
(472,247,ls),
(472,129,o),
(409,71,o),
(315,71,cs),
(223,71,o),
(162,128,o),
(162,239,cs),
(162,548,l),
(72,548,l),
(72,227,ls),
(72,70,o),
(171,-8,o),
(297,-8,cs),
(370,-8,o),
(437,24,o),
(472,81,c),
(472,0,l),
(563,0,l)
);
},
{
closed = 1;
nodes = (
(268,622,o),
(292,645,o),
(292,674,cs),
(292,703,o),
(268,727,o),
(240,727,cs),
(210,727,o),
(187,703,o),
(187,674,cs),
(187,645,o),
(210,622,o),
(240,622,cs)
);
},
{
closed = 1;
nodes = (
(431,622,o),
(455,645,o),
(455,674,cs),
(455,703,o),
(431,727,o),
(402,727,cs),
(372,727,o),
(350,703,o),
(350,674,cs),
(350,645,o),
(372,622,o),
(402,622,cs)
);
}
);
width = 640;
}
);
note = udieresis;
unicode = 252;
},
{
glyphname = yacute;
layers = (
{
layerId = m01;
shapes = (
{
closed = 1;
nodes = (
(285,104,l),
(113,548,l),
(12,548,l),
(233,6,l),
(125,-258,l),
(219,-258,l),
(549,548,l),
(455,548,l)
);
},
{
closed = 1;
nodes = (
(166,657,l),
(166,589,l),
(379,703,l),
(379,782,l)
);
}
);
width = 563;
}
);
note = yacute;
unicode = 253;
},
{
glyphname = thorn;
layers = (
{
layerId = m01;
shapes = (
{
closed = 1;
nodes = (
(168,740,l),
(77,740,l),
(77,-260,l),
(168,-260,l),
(168,120,l),
(202,46,o),
(273,-9,o),
(373,-9,cs),
(520,-9,o),
(633,106,o),
(633,276,cs),
(633,447,o),
(520,557,o),
(373,557,cs),
(273,557,o),
(201,503,o),
(168,432,c)
);
},
{
closed = 1;
nodes = (
(540,147,o),
(455,71,o),
(354,71,cs),
(255,71,o),
(168,146,o),
(168,275,cs),
(168,402,o),
(255,478,o),
(354,478,cs),
(455,478,o),
(540,405,o),
(540,276,cs)
);
}
);
width = 676;
}
);
note = thorn;
unicode = 254;
},
{
glyphname = ydieresis;
layers = (
{
layerId = m01;
shapes = (
{
closed = 1;
nodes = (
(285,104,l),
(113,548,l),
(12,548,l),
(233,6,l),
(125,-258,l),
(219,-258,l),
(549,548,l),
(455,548,l)
);
},
{
closed = 1;
nodes = (
(229,622,o),
(253,645,o),
(253,674,cs),
(253,703,o),
(229,727,o),
(201,727,cs),
(171,727,o),
(148,703,o),
(148,674,cs),
(148,645,o),
(171,622,o),
(201,622,cs)
);
},
{
closed = 1;
nodes = (
(392,622,o),
(416,645,o),
(416,674,cs),
(416,703,o),
(392,727,o),
(363,727,cs),
(333,727,o),
(311,703,o),
(311,674,cs),
(311,645,o),
(333,622,o),
(363,622,cs)
);
}
);
width = 563;
}
);
note = ydieresis;
unicode = 255;
},
{
glyphname = Amacron;
layers = (
{
layerId = m01;
shapes = (
{
closed = 1;
nodes = (
(545,0,l),
(641,0,l),
(390,693,l),
(285,693,l),
(33,0,l),
(129,0,l),
(185,155,l),
(489,155,l)
);
},
{
closed = 1;
nodes = (
(161,786,l),
(513,786,l),
(513,854,l),
(161,854,l)
);
},
{
closed = 1;
nodes = (
(463,229,l),
(211,229,l),
(337,581,l)
);
}
);
width = 674;
}
);
note = Amacron;
unicode = 256;
},
{
glyphname = amacron;
layers = (
{
layerId = m01;
shapes = (
{
closed = 1;
nodes = (
(43,106,o),
(156,-9,o),
(302,-9,cs),
(403,-9,o),
(474,43,o),
(507,102,c),
(507,0,l),
(599,0,l),
(599,548,l),
(507,548,l),
(507,448,l),
(475,505,o),
(405,557,o),
(303,557,cs),
(156,557,o),
(43,447,o),
(43,276,cs)
);
},
{
closed = 1;
nodes = (
(507,146,o),
(421,71,o),
(321,71,cs),
(221,71,o),
(136,147,o),
(136,276,cs),
(136,405,o),
(221,478,o),
(321,478,cs),
(421,478,o),
(507,402,o),
(507,275,cs)
);
},
{
closed = 1;
nodes = (
(163,641,l),
(515,641,l),
(515,709,l),
(163,709,l)
);
}
);
width = 676;
}
);
note = amacron;
unicode = 257;
},
{
glyphname = Abreve;
layers = (
{
layerId = m01;
shapes = (
{
closed = 1;
nodes = (
(545,0,l),
(641,0,l),
(390,693,l),
(285,693,l),
(33,0,l),
(129,0,l),
(185,155,l),
(489,155,l)
);
},
{
closed = 1;
nodes = (
(480,895,l),
(426,895,l),
(426,847,o),
(402,818,o),
(338,818,cs),
(273,818,o),
(249,847,o),
(249,895,c),
(195,895,l),
(195,878,ls),
(195,803,o),
(246,747,o),
(338,747,cs),
(430,747,o),
(480,803,o),
(480,877,cs)
);
},
{
closed = 1;
nodes = (
(463,229,l),
(211,229,l),
(337,581,l)
);
}
);
width = 674;
}
);
note = Abreve;
unicode = 258;
},
{
glyphname = abreve;
layers = (
{
layerId = m01;
shapes = (
{
closed = 1;
nodes = (
(43,106,o),
(156,-9,o),
(302,-9,cs),
(403,-9,o),
(474,43,o),
(507,102,c),
(507,0,l),
(599,0,l),
(599,548,l),
(507,548,l),
(507,448,l),
(475,505,o),
(405,557,o),
(303,557,cs),
(156,557,o),
(43,447,o),
(43,276,cs)
);
},
{
closed = 1;
nodes = (
(507,146,o),
(421,71,o),
(321,71,cs),
(221,71,o),
(136,147,o),
(136,276,cs),
(136,405,o),
(221,478,o),
(321,478,cs),
(421,478,o),
(507,402,o),
(507,275,cs)
);
},
{
closed = 1;
nodes = (
(481,750,l),
(427,750,l),
(427,702,o),
(403,673,o),
(339,673,cs),
(274,673,o),
(250,702,o),
(250,750,c),
(196,750,l),
(196,733,ls),
(196,658,o),
(247,602,o),
(339,602,cs),
(431,602,o),
(481,658,o),
(481,732,cs)
);
}
);
width = 676;
}
);
note = abreve;
unicode = 259;
},
{
glyphname = Aogonek;
layers = (
{
layerId = m01;
shapes = (
{
closed = 1;
nodes = (
(285,693,l),
(33,0,l),
(129,0,l),
(185,155,l),
(489,155,l),
(541,12,l),
(475,-24,o),
(451,-63,o),
(451,-106,cs),
(451,-179,o),
(514,-206,o),
(574,-206,cs),
(600,-206,o),
(628,-200,o),
(650,-192,c),
(650,-132,l),
(628,-140,o),
(604,-145,o),
(585,-145,cs),
(550,-145,o),
(526,-128,o),
(526,-97,cs),
(526,-72,o),
(541,-49,o),
(587,-27,cs),
(641,0,l),
(390,693,l)
);
},
{
closed = 1;
nodes = (
(463,229,l),
(211,229,l),
(337,581,l)
);
}
);
width = 674;
}
);
note = Aogonek;
unicode = 260;
},
{
glyphname = aogonek;
layers = (
{
layerId = m01;
shapes = (
{
closed = 1;
nodes = (
(43,106,o),
(156,-9,o),
(302,-9,cs),
(403,-9,o),
(474,43,o),
(507,102,c),
(507,17,l),
(435,-21,o),
(409,-62,o),
(409,-106,cs),
(409,-179,o),
(471,-206,o),
(531,-206,cs),
(558,-206,o),
(585,-200,o),
(608,-192,c),
(608,-132,l),
(585,-140,o),
(562,-145,o),
(543,-145,cs),
(507,-145,o),
(484,-128,o),
(484,-97,cs),
(484,-72,o),
(499,-49,o),
(544,-27,cs),
(599,0,l),
(599,548,l),
(507,548,l),
(507,448,l),
(475,505,o),
(405,557,o),
(303,557,cs),
(156,557,o),
(43,447,o),
(43,276,cs)
);
},
{
closed = 1;
nodes = (
(507,146,o),
(421,71,o),
(321,71,cs),
(221,71,o),
(136,147,o),
(136,276,cs),
(136,405,o),
(221,478,o),
(321,478,cs),
(421,478,o),
(507,402,o),
(507,275,cs)
);
}
);
width = 676;
}
);
note = aogonek;
unicode = 261;
},
{
glyphname = Cacute;
layers = (
{
layerId = m01;
shapes = (
{
closed = 1;
nodes = (
(43,140,o),
(196,-6,o),
(391,-6,cs),
(542,-6,o),
(662,69,o),
(714,203,c),
(605,203,l),
(567,120,o),
(493,73,o),
(391,73,cs),
(245,73,o),
(136,179,o),
(136,349,cs),
(136,520,o),
(245,626,o),
(391,626,cs),
(493,626,o),
(567,579,o),
(605,495,c),
(714,495,l),
(662,630,o),
(542,706,o),
(391,706,cs),
(196,706,o),
(43,558,o),
(43,349,cs)
);
},
{
closed = 1;
nodes = (
(281,808,l),
(281,740,l),
(494,854,l),
(494,933,l)
);
}
);
width = 772;
}
);
note = Cacute;
unicode = 262;
},
{
glyphname = cacute;
layers = (
{
layerId = m01;
shapes = (
{
closed = 1;
nodes = (
(43,101,o),
(154,-9,o),
(310,-9,cs),
(446,-9,o),
(535,67,o),
(563,176,c),
(465,176,l),
(445,107,o),
(391,68,o),
(310,68,cs),
(210,68,o),
(136,139,o),
(136,275,cs),
(136,409,o),
(210,480,o),
(310,480,cs),
(391,480,o),
(446,438,o),
(465,372,c),
(563,372,l),
(535,487,o),
(446,557,o),
(310,557,cs),
(154,557,o),
(43,447,o),
(43,275,cs)
);
},
{
closed = 1;
nodes = (
(189,657,l),
(189,589,l),
(402,703,l),
(402,782,l)
);
}
);
width = 607;
}
);
note = cacute;
unicode = 263;
},
{
glyphname = Cdotaccent;
layers = (
{
layerId = m01;
shapes = (
{
closed = 1;
nodes = (
(43,140,o),
(196,-6,o),
(391,-6,cs),
(542,-6,o),
(662,69,o),
(714,203,c),
(605,203,l),
(567,120,o),
(493,73,o),
(391,73,cs),
(245,73,o),
(136,179,o),
(136,349,cs),
(136,520,o),
(245,626,o),
(391,626,cs),
(493,626,o),
(567,579,o),
(605,495,c),
(714,495,l),
(662,630,o),
(542,706,o),
(391,706,cs),
(196,706,o),
(43,558,o),
(43,349,cs)
);
},
{
closed = 1;
nodes = (
(426,767,o),
(449,790,o),
(449,819,cs),
(449,848,o),
(426,872,o),
(397,872,cs),
(367,872,o),
(344,848,o),
(344,819,cs),
(344,790,o),
(367,767,o),
(397,767,cs)
);
}
);
width = 772;
}
);
note = Cdotaccent;
unicode = 266;
},
{
glyphname = cdotaccent;
layers = (
{
layerId = m01;
shapes = (
{
closed = 1;
nodes = (
(43,101,o),
(154,-9,o),
(310,-9,cs),
(446,-9,o),
(535,67,o),
(563,176,c),
(465,176,l),
(445,107,o),
(391,68,o),
(310,68,cs),
(210,68,o),
(136,139,o),
(136,275,cs),
(136,409,o),
(210,480,o),
(310,480,cs),
(391,480,o),
(446,438,o),
(465,372,c),
(563,372,l),
(535,487,o),
(446,557,o),
(310,557,cs),
(154,557,o),
(43,447,o),
(43,275,cs)
);
},
{
closed = 1;
nodes = (
(333,617,o),
(356,640,o),
(356,669,cs),
(356,698,o),
(333,722,o),
(304,722,cs),
(274,722,o),
(251,698,o),
(251,669,cs),
(251,640,o),
(274,617,o),
(304,617,cs)
);
}
);
width = 607;
}
);
note = cdotaccent;
unicode = 267;
},
{
glyphname = Ccaron;
layers = (
{
layerId = m01;
shapes = (
{
closed = 1;
nodes = (
(43,140,o),
(196,-6,o),
(391,-6,cs),
(542,-6,o),
(662,69,o),
(714,203,c),
(605,203,l),
(567,120,o),
(493,73,o),
(391,73,cs),
(245,73,o),
(136,179,o),
(136,349,cs),
(136,520,o),
(245,626,o),
(391,626,cs),
(493,626,o),
(567,579,o),
(605,495,c),
(714,495,l),
(662,630,o),
(542,706,o),
(391,706,cs),
(196,706,o),
(43,558,o),
(43,349,cs)
);
},
{
closed = 1;
nodes = (
(397,817,l),
(258,902,l),
(258,830,l),
(397,748,l),
(535,830,l),
(535,902,l)
);
}
);
width = 772;
}
);
note = Ccaron;
unicode = 268;
},
{
glyphname = ccaron;
layers = (
{
layerId = m01;
shapes = (
{
closed = 1;
nodes = (
(43,101,o),
(154,-9,o),
(310,-9,cs),
(446,-9,o),
(535,67,o),
(563,176,c),
(465,176,l),
(445,107,o),
(391,68,o),
(310,68,cs),
(210,68,o),
(136,139,o),
(136,275,cs),
(136,409,o),
(210,480,o),
(310,480,cs),
(391,480,o),
(446,438,o),
(465,372,c),
(563,372,l),
(535,487,o),
(446,557,o),
(310,557,cs),
(154,557,o),
(43,447,o),
(43,275,cs)
);
},
{
closed = 1;
nodes = (
(304,666,l),
(165,751,l),
(165,679,l),
(304,597,l),
(442,679,l),
(442,751,l)
);
}
);
width = 607;
}
);
note = ccaron;
unicode = 269;
},
{
glyphname = Dcaron;
layers = (
{
layerId = m01;
shapes = (
{
closed = 1;
nodes = (
(77,697,l),
(77,0,l),
(294,0,ls),
(523,0,o),
(664,131,o),
(664,347,cs),
(664,563,o),
(523,697,o),
(294,697,cs)
);
},
{
closed = 1;
nodes = (
(168,75,l),
(168,623,l),
(294,623,ls),
(476,623,o),
(571,517,o),
(571,347,cs),
(571,177,o),
(476,75,o),
(294,75,cs)
);
},
{
closed = 1;
nodes = (
(352,811,l),
(213,896,l),
(213,824,l),
(352,742,l),
(490,824,l),
(490,896,l)
);
}
);
width = 707;
}
);
note = Dcaron;
unicode = 270;
},
{
glyphname = dcaron;
layers = (
{
layerId = m01;
shapes = (
{
closed = 1;
nodes = (
(651,740,l),
(651,654,l),
(700,654,l),
(700,631,ls),
(700,596,o),
(687,578,o),
(652,578,c),
(652,535,l),
(719,535,o),
(754,570,o),
(754,648,cs),
(754,675,o),
(750,705,o),
(743,740,c)
);
},
{
closed = 1;
nodes = (
(43,106,o),
(156,-9,o),
(303,-9,cs),
(403,-9,o),
(474,42,o),
(507,103,c),
(507,0,l),
(599,0,l),
(599,740,l),
(507,740,l),
(507,450,l),
(469,513,o),
(390,557,o),
(304,557,cs),
(156,557,o),
(43,447,o),
(43,276,cs)
);
},
{
closed = 1;
nodes = (
(507,146,o),
(421,71,o),
(321,71,cs),
(221,71,o),
(136,147,o),
(136,276,cs),
(136,405,o),
(221,478,o),
(321,478,cs),
(421,478,o),
(507,402,o),
(507,275,cs)
);
}
);
width = 754;
}
);
note = dcaron;
unicode = 271;
},
{
glyphname = Dcroat;
layers = (
{
layerId = m01;
shapes = (
{
closed = 1;
nodes = (
(96,697,l),
(96,389,l),
(9,389,l),
(9,305,l),
(96,305,l),
(96,0,l),
(313,0,ls),
(541,0,o),
(682,131,o),
(682,347,cs),
(682,563,o),
(541,697,o),
(313,697,cs)
);
},
{
closed = 1;
nodes = (
(187,70,l),
(187,305,l),
(379,305,l),
(379,389,l),
(187,389,l),
(187,623,l),
(313,623,ls),
(494,623,o),
(589,517,o),
(589,347,cs),
(589,177,o),
(494,70,o),
(313,70,cs)
);
}
);
width = 725;
}
);
note = Dcroat;
unicode = 272;
},
{
glyphname = dcroat;
layers = (
{
layerId = m01;
shapes = (
{
closed = 1;
nodes = (
(43,106,o),
(156,-9,o),
(303,-9,cs),
(403,-9,o),
(474,42,o),
(507,103,c),
(507,0,l),
(599,0,l),
(599,605,l),
(660,605,l),
(660,659,l),
(599,659,l),
(599,740,l),
(507,740,l),
(507,659,l),
(395,659,l),
(395,605,l),
(507,605,l),
(507,450,l),
(469,513,o),
(390,557,o),
(304,557,cs),
(156,557,o),
(43,447,o),
(43,276,cs)
);
},
{
closed = 1;
nodes = (
(507,146,o),
(421,71,o),
(321,71,cs),
(221,71,o),
(136,147,o),
(136,276,cs),
(136,405,o),
(221,478,o),
(321,478,cs),
(421,478,o),
(507,402,o),
(507,275,cs)
);
}
);
width = 675;
}
);
note = dcroat;
unicode = 273;
},
{
glyphname = Emacron;
layers = (
{
layerId = m01;
shapes = (
{
closed = 1;
nodes = (
(452,698,l),
(77,698,l),
(77,0,l),
(452,0,l),
(452,75,l),
(168,75,l),
(168,315,l),
(422,315,l),
(422,390,l),
(168,390,l),
(168,623,l),
(452,623,l)
);
},
{
closed = 1;
nodes = (
(78,786,l),
(430,786,l),
(430,854,l),
(78,854,l)
);
}
);
width = 513;
}
);
note = Emacron;
unicode = 274;
},
{
glyphname = emacron;
layers = (
{
layerId = m01;
shapes = (
{
closed = 1;
nodes = (
(404,480,o),
(484,421,o),
(483,314,c),
(137,314,l),
(147,421,o),
(221,480,o),
(310,480,cs)
);
},
{
closed = 1;
nodes = (
(468,169,l),
(448,110,o),
(396,68,o),
(314,68,cs),
(221,68,o),
(143,129,o),
(136,240,c),
(574,240,l),
(576,259,o),
(577,275,o),
(577,295,cs),
(577,445,o),
(473,557,o),
(314,557,cs),
(154,557,o),
(43,448,o),
(43,275,cs),
(43,101,o),
(158,-9,o),
(314,-9,cs),
(450,-9,o),
(538,69,o),
(566,169,c)
);
},
{
closed = 1;
nodes = (
(134,641,l),
(486,641,l),
(486,709,l),
(134,709,l)
);
}
);
width = 620;
}
);
note = emacron;
unicode = 275;
},
{
glyphname = Ebreve;
layers = (
{
layerId = m01;
shapes = (
{
closed = 1;
nodes = (
(452,698,l),
(77,698,l),
(77,0,l),
(452,0,l),
(452,75,l),
(168,75,l),
(168,315,l),
(422,315,l),
(422,390,l),
(168,390,l),
(168,623,l),
(452,623,l)
);
},
{
closed = 1;
nodes = (
(397,895,l),
(343,895,l),
(343,847,o),
(319,818,o),
(255,818,cs),
(190,818,o),
(166,847,o),
(166,895,c),
(112,895,l),
(112,878,ls),
(112,803,o),
(163,747,o),
(255,747,cs),
(347,747,o),
(397,803,o),
(397,877,cs)
);
}
);
width = 513;
}
);
note = Ebreve;
unicode = 276;
},
{
glyphname = ebreve;
layers = (
{
layerId = m01;
shapes = (
{
closed = 1;
nodes = (
(404,480,o),
(484,421,o),
(483,314,c),
(137,314,l),
(147,421,o),
(221,480,o),
(310,480,cs)
);
},
{
closed = 1;
nodes = (
(468,169,l),
(448,110,o),
(396,68,o),
(314,68,cs),
(221,68,o),
(143,129,o),
(136,240,c),
(574,240,l),
(576,259,o),
(577,275,o),
(577,295,cs),
(577,445,o),
(473,557,o),
(314,557,cs),
(154,557,o),
(43,448,o),
(43,275,cs),
(43,101,o),
(158,-9,o),
(314,-9,cs),
(450,-9,o),
(538,69,o),
(566,169,c)
);
},
{
closed = 1;
nodes = (
(453,750,l),
(399,750,l),
(399,702,o),
(375,673,o),
(311,673,cs),
(246,673,o),
(222,702,o),
(222,750,c),
(168,750,l),
(168,733,ls),
(168,658,o),
(219,602,o),
(311,602,cs),
(403,602,o),
(453,658,o),
(453,732,cs)
);
}
);
width = 620;
}
);
note = ebreve;
unicode = 277;
},
{
glyphname = Edotaccent;
layers = (
{
layerId = m01;
shapes = (
{
closed = 1;
nodes = (
(452,698,l),
(77,698,l),
(77,0,l),
(452,0,l),
(452,75,l),
(168,75,l),
(168,315,l),
(422,315,l),
(422,390,l),
(168,390,l),
(168,623,l),
(452,623,l)
);
},
{
closed = 1;
nodes = (
(284,761,o),
(307,784,o),
(307,813,cs),
(307,842,o),
(284,866,o),
(255,866,cs),
(225,866,o),
(202,842,o),
(202,813,cs),
(202,784,o),
(225,761,o),
(255,761,cs)
);
}
);
width = 513;
}
);
note = Edotaccent;
unicode = 278;
},
{
glyphname = edotaccent;
layers = (
{
layerId = m01;
shapes = (
{
closed = 1;
nodes = (
(404,480,o),
(484,421,o),
(483,314,c),
(137,314,l),
(147,421,o),
(221,480,o),
(310,480,cs)
);
},
{
closed = 1;
nodes = (
(468,169,l),
(448,110,o),
(396,68,o),
(314,68,cs),
(221,68,o),
(143,129,o),
(136,240,c),
(574,240,l),
(576,259,o),
(577,275,o),
(577,295,cs),
(577,445,o),
(473,557,o),
(314,557,cs),
(154,557,o),
(43,448,o),
(43,275,cs),
(43,101,o),
(158,-9,o),
(314,-9,cs),
(450,-9,o),
(538,69,o),
(566,169,c)
);
},
{
closed = 1;
nodes = (
(340,617,o),
(363,640,o),
(363,669,cs),
(363,698,o),
(340,722,o),
(311,722,cs),
(281,722,o),
(258,698,o),
(258,669,cs),
(258,640,o),
(281,617,o),
(311,617,cs)
);
}
);
width = 620;
}
);
note = edotaccent;
unicode = 279;
},
{
glyphname = Eogonek;
layers = (
{
layerId = m01;
shapes = (
{
closed = 1;
nodes = (
(452,698,l),
(77,698,l),
(77,0,l),
(331,0,l),
(281,-33,o),
(262,-68,o),
(262,-106,cs),
(262,-179,o),
(324,-206,o),
(384,-206,cs),
(411,-206,o),
(438,-200,o),
(461,-192,c),
(461,-132,l),
(438,-140,o),
(415,-145,o),
(396,-145,cs),
(360,-145,o),
(337,-128,o),
(337,-97,cs),
(337,-72,o),
(352,-49,o),
(397,-27,cs),
(452,0,l),
(452,75,l),
(168,75,l),
(168,315,l),
(422,315,l),
(422,390,l),
(168,390,l),
(168,623,l),
(452,623,l)
);
}
);
width = 513;
}
);
note = Eogonek;
unicode = 280;
},
{
glyphname = eogonek;
layers = (
{
layerId = m01;
shapes = (
{
closed = 1;
nodes = (
(404,480,o),
(484,421,o),
(483,314,c),
(137,314,l),
(147,421,o),
(221,480,o),
(310,480,cs)
);
},
{
closed = 1;
nodes = (
(429,-118,l),
(406,-126,o),
(383,-131,o),
(364,-131,cs),
(328,-131,o),
(305,-114,o),
(305,-83,cs),
(305,-58,o),
(320,-35,o),
(365,-13,cs),
(393,1,l),
(484,25,o),
(544,90,o),
(566,169,c),
(468,169,l),
(448,110,o),
(396,68,o),
(314,68,cs),
(221,68,o),
(143,129,o),
(136,240,c),
(574,240,l),
(576,259,o),
(577,275,o),
(577,295,cs),
(577,445,o),
(473,557,o),
(314,557,cs),
(154,557,o),
(43,448,o),
(43,275,cs),
(43,117,o),
(138,11,o),
(273,-6,c),
(242,-33,o),
(230,-62,o),
(230,-92,cs),
(230,-165,o),
(292,-192,o),
(352,-192,cs),
(379,-192,o),
(406,-186,o),
(429,-178,c)
);
}
);
width = 620;
}
);
note = eogonek;
unicode = 281;
},
{
glyphname = Ecaron;
layers = (
{
layerId = m01;
shapes = (
{
closed = 1;
nodes = (
(452,698,l),
(77,698,l),
(77,0,l),
(452,0,l),
(452,75,l),
(168,75,l),
(168,315,l),
(422,315,l),
(422,390,l),
(168,390,l),
(168,623,l),
(452,623,l)
);
},
{
closed = 1;
nodes = (
(255,811,l),
(116,896,l),
(116,824,l),
(255,742,l),
(393,824,l),
(393,896,l)
);
}
);
width = 513;
}
);
note = Ecaron;
unicode = 282;
},
{
glyphname = ecaron;
layers = (
{
layerId = m01;
shapes = (
{
closed = 1;
nodes = (
(404,480,o),
(484,421,o),
(483,314,c),
(137,314,l),
(147,421,o),
(221,480,o),
(310,480,cs)
);
},
{
closed = 1;
nodes = (
(468,169,l),
(448,110,o),
(396,68,o),
(314,68,cs),
(221,68,o),
(143,129,o),
(136,240,c),
(574,240,l),
(576,259,o),
(577,275,o),
(577,295,cs),
(577,445,o),
(473,557,o),
(314,557,cs),
(154,557,o),
(43,448,o),
(43,275,cs),
(43,101,o),
(158,-9,o),
(314,-9,cs),
(450,-9,o),
(538,69,o),
(566,169,c)
);
},
{
closed = 1;
nodes = (
(311,666,l),
(172,751,l),
(172,679,l),
(311,597,l),
(449,679,l),
(449,751,l)
);
}
);
width = 620;
}
);
note = ecaron;
unicode = 283;
},
{
glyphname = Gbreve;
layers = (
{
layerId = m01;
shapes = (
{
closed = 1;
nodes = (
(197,705,o),
(43,558,o),
(43,349,cs),
(43,140,o),
(197,-6,o),
(393,-6,cs),
(582,-6,o),
(719,133,o),
(735,306,c),
(735,376,l),
(360,376,l),
(360,302,l),
(638,302,l),
(624,164,o),
(530,76,o),
(393,76,cs),
(246,76,o),
(136,182,o),
(136,349,cs),
(136,517,o),
(246,623,o),
(393,623,cs),
(491,623,o),
(567,576,o),
(605,495,c),
(714,495,l),
(662,629,o),
(540,705,o),
(393,705,cs)
);
},
{
closed = 1;
nodes = (
(535,895,l),
(481,895,l),
(481,847,o),
(457,818,o),
(393,818,cs),
(328,818,o),
(304,847,o),
(304,895,c),
(250,895,l),
(250,878,ls),
(250,803,o),
(301,747,o),
(393,747,cs),
(485,747,o),
(535,803,o),
(535,877,cs)
);
}
);
width = 778;
}
);
note = Gbreve;
unicode = 286;
},
{
glyphname = gbreve;
layers = (
{
layerId = m01;
shapes = (
{
closed = 1;
nodes = (
(43,106,o),
(156,-9,o),
(303,-9,cs),
(403,-9,o),
(474,44,o),
(507,103,c),
(507,-12,ls),
(507,-129,o),
(434,-191,o),
(337,-191,cs),
(247,-191,o),
(182,-146,o),
(162,-80,c),
(72,-80,l),
(90,-197,o),
(193,-270,o),
(337,-270,cs),
(498,-270,o),
(599,-163,o),
(599,-12,cs),
(599,548,l),
(507,548,l),
(507,448,l),
(475,507,o),
(403,557,o),
(303,557,cs),
(156,557,o),
(43,447,o),
(43,276,cs)
);
},
{
closed = 1;
nodes = (
(507,146,o),
(421,71,o),
(321,71,cs),
(221,71,o),
(136,147,o),
(136,276,cs),
(136,405,o),
(221,478,o),
(321,478,cs),
(421,478,o),
(507,402,o),
(507,275,cs)
);
},
{
closed = 1;
nodes = (
(481,750,l),
(427,750,l),
(427,702,o),
(403,673,o),
(339,673,cs),
(274,673,o),
(250,702,o),
(250,750,c),
(196,750,l),
(196,733,ls),
(196,658,o),
(247,602,o),
(339,602,cs),
(431,602,o),
(481,658,o),
(481,732,cs)
);
}
);
width = 676;
}
);
note = gbreve;
unicode = 287;
},
{
glyphname = Gdotaccent;
layers = (
{
layerId = m01;
shapes = (
{
closed = 1;
nodes = (
(197,705,o),
(43,558,o),
(43,349,cs),
(43,140,o),
(197,-6,o),
(393,-6,cs),
(582,-6,o),
(719,133,o),
(735,306,c),
(735,376,l),
(360,376,l),
(360,302,l),
(638,302,l),
(624,164,o),
(530,76,o),
(393,76,cs),
(246,76,o),
(136,182,o),
(136,349,cs),
(136,517,o),
(246,623,o),
(393,623,cs),
(491,623,o),
(567,576,o),
(605,495,c),
(714,495,l),
(662,629,o),
(540,705,o),
(393,705,cs)
);
},
{
closed = 1;
nodes = (
(421,761,o),
(444,784,o),
(444,813,cs),
(444,842,o),
(421,866,o),
(392,866,cs),
(362,866,o),
(339,842,o),
(339,813,cs),
(339,784,o),
(362,761,o),
(392,761,cs)
);
}
);
width = 778;
}
);
note = Gdotaccent;
unicode = 288;
},
{
glyphname = gdotaccent;
layers = (
{
layerId = m01;
shapes = (
{
closed = 1;
nodes = (
(43,106,o),
(156,-9,o),
(303,-9,cs),
(403,-9,o),
(474,44,o),
(507,103,c),
(507,-12,ls),
(507,-129,o),
(434,-191,o),
(337,-191,cs),
(247,-191,o),
(182,-146,o),
(162,-80,c),
(72,-80,l),
(90,-197,o),
(193,-270,o),
(337,-270,cs),
(498,-270,o),
(599,-163,o),
(599,-12,cs),
(599,548,l),
(507,548,l),
(507,448,l),
(475,507,o),
(403,557,o),
(303,557,cs),
(156,557,o),
(43,447,o),
(43,276,cs)
);
},
{
closed = 1;
nodes = (
(507,146,o),
(421,71,o),
(321,71,cs),
(221,71,o),
(136,147,o),
(136,276,cs),
(136,405,o),
(221,478,o),
(321,478,cs),
(421,478,o),
(507,402,o),
(507,275,cs)
);
},
{
closed = 1;
nodes = (
(368,617,o),
(391,640,o),
(391,669,cs),
(391,698,o),
(368,722,o),
(339,722,cs),
(309,722,o),
(286,698,o),
(286,669,cs),
(286,640,o),
(309,617,o),
(339,617,cs)
);
}
);
width = 676;
}
);
note = gdotaccent;
unicode = 289;
},
{
glyphname = uni0122;
layers = (
{
layerId = m01;
shapes = (
{
closed = 1;
nodes = (
(343,-49,l),
(343,-131,l),
(391,-131,l),
(391,-149,ls),
(391,-185,o),
(377,-205,o),
(343,-205,c),
(343,-247,l),
(408,-247,o),
(444,-212,o),
(444,-132,cs),
(444,-107,o),
(440,-79,o),
(433,-49,c)
);
},
{
closed = 1;
nodes = (
(197,705,o),
(43,558,o),
(43,349,cs),
(43,140,o),
(197,-6,o),
(393,-6,cs),
(582,-6,o),
(719,133,o),
(735,306,c),
(735,376,l),
(360,376,l),
(360,302,l),
(638,302,l),
(624,164,o),
(530,76,o),
(393,76,cs),
(246,76,o),
(136,182,o),
(136,349,cs),
(136,517,o),
(246,623,o),
(393,623,cs),
(491,623,o),
(567,576,o),
(605,495,c),
(714,495,l),
(662,629,o),
(540,705,o),
(393,705,cs)
);
}
);
width = 778;
}
);
note = uni0122;
unicode = 290;
},
{
glyphname = uni0123;
layers = (
{
layerId = m01;
shapes = (
{
closed = 1;
nodes = (
(382,596,l),
(382,682,l),
(334,682,l),
(334,705,ls),
(334,740,o),
(348,759,o),
(381,759,c),
(381,801,l),
(315,801,o),
(280,766,o),
(280,688,cs),
(280,661,o),
(283,631,o),
(291,596,c)
);
},
{
closed = 1;
nodes = (
(43,106,o),
(156,-9,o),
(303,-9,cs),
(403,-9,o),
(474,44,o),
(507,103,c),
(507,-12,ls),
(507,-129,o),
(434,-191,o),
(337,-191,cs),
(247,-191,o),
(182,-146,o),
(162,-80,c),
(72,-80,l),
(90,-197,o),
(193,-270,o),
(337,-270,cs),
(498,-270,o),
(599,-163,o),
(599,-12,cs),
(599,548,l),
(507,548,l),
(507,448,l),
(475,507,o),
(403,557,o),
(303,557,cs),
(156,557,o),
(43,447,o),
(43,276,cs)
);
},
{
closed = 1;
nodes = (
(507,146,o),
(421,71,o),
(321,71,cs),
(221,71,o),
(136,147,o),
(136,276,cs),
(136,405,o),
(221,478,o),
(321,478,cs),
(421,478,o),
(507,402,o),
(507,275,cs)
);
}
);
width = 676;
}
);
note = uni0123;
unicode = 291;
},
{
glyphname = Itilde;
layers = (
{
layerId = m01;
shapes = (
{
closed = 1;
nodes = (
(77,0,l),
(168,0,l),
(168,697,l),
(77,697,l)
);
},
{
closed = 1;
nodes = (
(29,752,l),
(33,782,o),
(50,796,o),
(72,796,cs),
(112,796,o),
(132,750,o),
(186,750,cs),
(238,750,o),
(278,786,o),
(286,854,c),
(234,854,l),
(230,825,o),
(212,811,o),
(190,811,cs),
(149,811,o),
(129,857,o),
(76,857,cs),
(24,857,o),
(-14,821,o),
(-24,752,c)
);
}
);
width = 246;
}
);
note = Itilde;
unicode = 296;
},
{
glyphname = itilde;
layers = (
{
layerId = m01;
shapes = (
{
closed = 1;
nodes = (
(77,0,l),
(168,0,l),
(168,548,l),
(77,548,l)
);
},
{
closed = 1;
nodes = (
(29,607,l),
(33,637,o),
(50,651,o),
(72,651,cs),
(112,651,o),
(132,605,o),
(186,605,cs),
(238,605,o),
(278,641,o),
(286,709,c),
(234,709,l),
(230,680,o),
(212,666,o),
(190,666,cs),
(149,666,o),
(129,712,o),
(76,712,cs),
(24,712,o),
(-14,676,o),
(-24,607,c)
);
}
);
width = 246;
}
);
note = itilde;
unicode = 297;
},
{
glyphname = Imacron;
layers = (
{
layerId = m01;
shapes = (
{
closed = 1;
nodes = (
(77,0,l),
(168,0,l),
(168,697,l),
(77,697,l)
);
},
{
closed = 1;
nodes = (
(-54,786,l),
(298,786,l),
(298,854,l),
(-54,854,l)
);
}
);
width = 246;
}
);
note = Imacron;
unicode = 298;
},
{
glyphname = imacron;
layers = (
{
layerId = m01;
shapes = (
{
closed = 1;
nodes = (
(77,0,l),
(168,0,l),
(168,548,l),
(77,548,l)
);
},
{
closed = 1;
nodes = (
(-54,641,l),
(298,641,l),
(298,709,l),
(-54,709,l)
);
}
);
width = 246;
}
);
note = imacron;
unicode = 299;
},
{
glyphname = uni012C;
layers = (
{
layerId = m01;
shapes = (
{
closed = 1;
nodes = (
(77,0,l),
(168,0,l),
(168,697,l),
(77,697,l)
);
},
{
closed = 1;
nodes = (
(265,895,l),
(211,895,l),
(211,847,o),
(187,818,o),
(123,818,cs),
(58,818,o),
(34,847,o),
(34,895,c),
(-20,895,l),
(-20,878,ls),
(-20,803,o),
(31,747,o),
(123,747,cs),
(215,747,o),
(265,803,o),
(265,877,cs)
);
}
);
width = 246;
}
);
note = uni012C;
unicode = 300;
},
{
glyphname = uni012D;
layers = (
{
layerId = m01;
shapes = (
{
closed = 1;
nodes = (
(77,0,l),
(168,0,l),
(168,548,l),
(77,548,l)
);
},
{
closed = 1;
nodes = (
(265,750,l),
(211,750,l),
(211,702,o),
(187,673,o),
(123,673,cs),
(58,673,o),
(34,702,o),
(34,750,c),
(-20,750,l),
(-20,733,ls),
(-20,658,o),
(31,602,o),
(123,602,cs),
(215,602,o),
(265,658,o),
(265,732,cs)
);
}
);
width = 246;
}
);
note = uni012D;
unicode = 301;
},
{
glyphname = Iogonek;
layers = (
{
layerId = m01;
shapes = (
{
closed = 1;
nodes = (
(177,-131,l),
(154,-139,o),
(131,-144,o),
(112,-144,cs),
(76,-144,o),
(53,-127,o),
(53,-96,cs),
(53,-71,o),
(68,-48,o),
(113,-26,cs),
(166,0,l),
(168,0,l),
(168,697,l),
(77,697,l),
(77,18,l),
(5,-19,o),
(-22,-61,o),
(-22,-105,cs),
(-22,-178,o),
(40,-205,o),
(100,-205,cs),
(127,-205,o),
(154,-199,o),
(177,-191,c)
);
}
);
width = 246;
}
);
note = Iogonek;
unicode = 302;
},
{
glyphname = iogonek;
layers = (
{
layerId = m01;
shapes = (
{
closed = 1;
nodes = (
(177,-131,l),
(154,-139,o),
(131,-144,o),
(112,-144,cs),
(76,-144,o),
(53,-127,o),
(53,-96,cs),
(53,-71,o),
(68,-48,o),
(113,-26,cs),
(166,0,l),
(168,0,l),
(168,548,l),
(77,548,l),
(77,18,l),
(5,-19,o),
(-22,-61,o),
(-22,-105,cs),
(-22,-178,o),
(40,-205,o),
(100,-205,cs),
(127,-205,o),
(154,-199,o),
(177,-191,c)
);
},
{
closed = 1;
nodes = (
(157,637,o),
(184,664,o),
(184,699,cs),
(184,734,o),
(157,761,o),
(124,761,cs),
(89,761,o),
(62,734,o),
(62,699,cs),
(62,664,o),
(89,637,o),
(124,637,cs)
);
}
);
width = 246;
}
);
note = iogonek;
unicode = 303;
},
{
glyphname = Idotaccent;
layers = (
{
layerId = m01;
shapes = (
{
closed = 1;
nodes = (
(77,0,l),
(168,0,l),
(168,697,l),
(77,697,l)
);
},
{
closed = 1;
nodes = (
(152,761,o),
(175,784,o),
(175,813,cs),
(175,842,o),
(152,866,o),
(123,866,cs),
(93,866,o),
(70,842,o),
(70,813,cs),
(70,784,o),
(93,761,o),
(123,761,cs)
);
}
);
width = 246;
}
);
note = Idotaccent;
unicode = 304;
},
{
glyphname = dotlessi;
layers = (
{
layerId = m01;
shapes = (
{
closed = 1;
nodes = (
(77,0,l),
(168,0,l),
(168,548,l),
(77,548,l)
);
}
);
width = 246;
}
);
note = dotlessi;
unicode = 305;
},
{
glyphname = uni0136;
layers = (
{
layerId = m01;
shapes = (
{
closed = 1;
nodes = (
(251,-49,l),
(251,-131,l),
(299,-131,l),
(299,-149,ls),
(299,-185,o),
(285,-205,o),
(252,-205,c),
(252,-247,l),
(317,-247,o),
(352,-212,o),
(352,-132,cs),
(352,-107,o),
(349,-79,o),
(341,-49,c)
);
},
{
closed = 1;
nodes = (
(455,0,l),
(574,0,l),
(255,348,l),
(571,697,l),
(456,697,l),
(168,374,l),
(168,697,l),
(77,697,l),
(77,0,l),
(168,0,l),
(168,318,l)
);
}
);
width = 599;
}
);
note = uni0136;
unicode = 310;
},
{
glyphname = uni0137;
layers = (
{
layerId = m01;
shapes = (
{
closed = 1;
nodes = (
(212,-49,l),
(212,-131,l),
(259,-131,l),
(259,-149,ls),
(259,-185,o),
(245,-205,o),
(212,-205,c),
(212,-247,l),
(277,-247,o),
(312,-212,o),
(312,-132,cs),
(312,-107,o),
(309,-79,o),
(302,-49,c)
);
},
{
closed = 1;
nodes = (
(77,0,l),
(168,0,l),
(168,242,l),
(383,0,l),
(507,0,l),
(248,275,l),
(506,548,l),
(379,548,l),
(168,305,l),
(168,740,l),
(77,740,l)
);
}
);
width = 515;
}
);
note = uni0137;
unicode = 311;
},
{
glyphname = Lacute;
layers = (
{
layerId = m01;
shapes = (
{
closed = 1;
nodes = (
(77,697,l),
(77,0,l),
(412,0,l),
(412,74,l),
(168,74,l),
(168,697,l)
);
},
{
closed = 1;
nodes = (
(101,802,l),
(101,734,l),
(314,848,l),
(314,927,l)
);
}
);
width = 432;
}
);
note = Lacute;
unicode = 313;
},
{
glyphname = lacute;
layers = (
{
layerId = m01;
shapes = (
{
closed = 1;
nodes = (
(77,0,l),
(168,0,l),
(168,740,l),
(77,740,l)
);
},
{
closed = 1;
nodes = (
(7,849,l),
(7,781,l),
(220,895,l),
(220,974,l)
);
}
);
width = 246;
}
);
note = lacute;
unicode = 314;
},
{
glyphname = uni013B;
layers = (
{
layerId = m01;
shapes = (
{
closed = 1;
nodes = (
(196,-49,l),
(196,-131,l),
(244,-131,l),
(244,-149,ls),
(244,-185,o),
(230,-205,o),
(197,-205,c),
(197,-247,l),
(262,-247,o),
(298,-212,o),
(298,-132,cs),
(298,-107,o),
(295,-79,o),
(287,-49,c)
);
},
{
closed = 1;
nodes = (
(77,697,l),
(77,0,l),
(412,0,l),
(412,74,l),
(168,74,l),
(168,697,l)
);
}
);
width = 432;
}
);
note = uni013B;
unicode = 315;
},
{
glyphname = uni013C;
layers = (
{
layerId = m01;
shapes = (
{
closed = 1;
nodes = (
(75,-49,l),
(75,-131,l),
(123,-131,l),
(123,-149,ls),
(123,-185,o),
(109,-205,o),
(75,-205,c),
(75,-247,l),
(140,-247,o),
(177,-212,o),
(177,-132,cs),
(177,-107,o),
(173,-79,o),
(166,-49,c)
);
},
{
closed = 1;
nodes = (
(77,0,l),
(168,0,l),
(168,740,l),
(77,740,l)
);
}
);
width = 246;
}
);
note = uni013C;
unicode = 316;
},
